<?xml version="1.0" standalone="no"?>
<!DOCTYPE svg PUBLIC "-//W3C//DTD SVG 1.1//EN" "http://www.w3.org/Graphics/SVG/1.1/DTD/svg11.dtd" >
<svg xmlns="http://www.w3.org/2000/svg">
<metadata>
Created by FontPrep 20130207 at Tue Mar 10 13:13:18 2015
 By Joseba Alonso
Digitized data copyright (c) 2010-2011, Google Corporation.
</metadata>
<defs>
<font id="fccccf1acf55b11d3e92cdf123b28da0" horiz-adv-x='1024' >
  <font-face 
    font-family="OpenSansLight-Italic"
    font-weight="300"
    font-style="italic"
    font-stretch="normal"
    units-per-em="2048"
    panose-1="2 11 3 6 3 5 4 2 2 4"
    ascent="1638"
    descent="-410"
    x-height="1087"
    cap-height="1462"
    bbox="-1069 -522 2478 2153"
    underline-thickness="102"
    underline-position="-103"
    slope="-12"
    unicode-range="U+0020-FFFD"
  />
<missing-glyph horiz-adv-x="1229" 
d="M297 104h633v1254h-633v-1254zM193 1462h841v-1462h-841v1462z" />
    <glyph glyph-name="ff" unicode="ff" horiz-adv-x="1155" 
d="M-131 -492q-48 0 -102 19v90q53 -16 100 -16q88 0 134 53t75 186l246 1166h-205l14 67l205 14l35 160q35 168 116.5 244t227.5 76q73 0 166 -31l-25 -80q-87 27 -165 27q-170 0 -220 -232l-35 -164h477l35 160q35 168 116.5 244t227.5 76q73 0 166 -31l-24 -80
q-87 27 -166 27t-136.5 -54.5t-82.5 -177.5l-35 -164h248l-17 -81h-248l-252 -1190q-34 -165 -105.5 -236.5t-193.5 -71.5q-48 0 -102 19v90q53 -16 100 -16q88 0 134 53t75 186l244 1166h-477l-252 -1190q-33 -161 -104 -234.5t-195 -73.5z" />
    <glyph glyph-name="uniFB01" unicode="fi" horiz-adv-x="1040" 
d="M975 1292q-60 0 -60 74q0 55 22 88t60 33q57 -1 57 -65t-22 -97t-57 -33zM739 0h-98l231 1087h96zM-148 -492q-48 0 -102 19v90q53 -16 100 -16q88 0 134 53t75 186l246 1166h-205l14 67l205 14l35 160q34 168 116 244t228 76q73 0 166 -31l-25 -80q-87 27 -165 27
q-170 0 -220 -232l-35 -164h248l-16 -81h-248l-252 -1190q-33 -160 -104 -234t-195 -74z" />
    <glyph glyph-name="uniFB02" unicode="fl" horiz-adv-x="1042" 
d="M737 0h-94l334 1556h94zM-148 -492q-48 0 -102 19v90q53 -16 100 -16q88 0 134 53t75 186l246 1166h-205l14 67l205 14l35 160q34 168 116 244t228 76q73 0 166 -31l-25 -80q-87 27 -165 27q-170 0 -220 -232l-35 -164h248l-16 -81h-248l-252 -1190q-33 -160 -104 -234
t-195 -74z" />
    <glyph glyph-name="uniFB03" unicode="ffi" horiz-adv-x="1616" 
d="M-148 -492q-48 0 -102 19v90q53 -16 100 -16q88 0 134 53t75 186l246 1166h-205l14 67l205 14l35 160q34 168 116 244t228 76q73 0 166 -31l-25 -80q-87 27 -165 27q-170 0 -220 -232l-35 -164h477l35 160q35 168 117 244t227 76q73 0 166 -31l-24 -80q-87 27 -166 27
q-79 -1 -137 -55t-82 -177l-35 -164h248l-17 -81h-248l-252 -1190q-34 -164 -106 -236t-193 -72q-48 0 -102 19v90q53 -16 100 -16q88 0 134 53t75 186l244 1166h-477l-252 -1190q-33 -160 -104 -234t-195 -74zM1551 1292q-60 0 -60 74q0 55 22 88t60 33q57 -1 57 -65
t-22 -97t-57 -33zM1315 0h-98l231 1087h96z" />
    <glyph glyph-name="uniFB04" unicode="ffl" horiz-adv-x="1626" 
d="M-148 -492q-48 0 -102 19v90q53 -16 100 -16q88 0 134 53t75 186l246 1166h-205l14 67l205 14l35 160q34 168 116 244t228 76q73 0 166 -31l-25 -80q-87 27 -165 27q-170 0 -220 -232l-35 -164h477l35 160q35 168 117 244t227 76q73 0 166 -31l-24 -80q-87 27 -166 27
q-79 -1 -137 -55t-82 -177l-35 -164h248l-17 -81h-248l-252 -1190q-34 -164 -106 -236t-193 -72q-48 0 -102 19v90q53 -16 100 -16q88 0 134 53t75 186l244 1166h-477l-252 -1190q-33 -160 -104 -234t-195 -74zM1321 0h-94l334 1556h94z" />
    <glyph glyph-name=".notdef" horiz-adv-x="1229" 
d="M297 104h633v1254h-633v-1254zM193 1462h841v-1462h-841v1462z" />
    <glyph glyph-name=".null" horiz-adv-x="0" 
 />
    <glyph glyph-name="nonmarkingreturn" horiz-adv-x="1044" 
 />
    <glyph glyph-name="space" unicode=" " horiz-adv-x="532" 
 />
    <glyph glyph-name="exclam" unicode="!" horiz-adv-x="502" 
d="M80 57q0 56 25 88.5t69 32.5q66 0 66 -72q0 -53 -25 -87.5t-68 -34.5q-67 0 -67 73zM248 377h-62l203 1085h119z" />
    <glyph glyph-name="quotedbl" unicode="&#x22;" horiz-adv-x="721" 
d="M784 1462l-145 -528h-61l79 528h127zM455 1462l-146 -528h-61l80 528h127z" />
    <glyph glyph-name="numbersign" unicode="#" horiz-adv-x="1323" 
d="M475 530h363l120 398h-362zM389 530l119 398h-297l8 80h311l134 454h90l-136 -454h365l135 454h86l-135 -454h285l-8 -80h-302l-118 -398h303l-8 -79h-320l-133 -451h-90l135 451h-360l-134 -451h-88l134 451h-283l8 79h299z" />
    <glyph glyph-name="dollar" unicode="$" 
d="M410 1018q0 -78 37 -128.5t137 -96.5l102 491q-134 -9 -205 -80t-71 -186zM842 461q0 76 -48 129.5t-157 97.5l-100 -485q142 7 223.5 74.5t81.5 183.5zM322 1025q0 140 105.5 235.5t272.5 99.5l41 192h80l-41 -192q149 -5 277 -68l-35 -78q-110 61 -256 70l-109 -514
q124 -60 197.5 -120t73.5 -197t-110.5 -229t-297.5 -103l-53 -240h-82l51 240q-173 4 -295 61v94q65 -34 153.5 -53.5t160.5 -19.5l110 512q-110 53 -176.5 111.5t-66.5 198.5z" />
    <glyph glyph-name="percent" unicode="%" horiz-adv-x="1556" 
d="M231 877q0 -240 160 -240q78 0 142.5 72t102.5 204t38 259t-36 181t-114 54t-144.5 -71.5t-107.5 -203t-41 -255.5zM760 1198q0 -175 -50 -327t-136 -230t-198 -78t-171.5 75.5t-59.5 229.5t52 306t138 229.5t193 77.5q232 0 232 -283zM1283 821q-79 0 -145.5 -72.5
t-106.5 -202.5t-40 -254t41 -182.5t113 -58.5q130 0 209.5 166.5t79.5 386.5q0 109 -36 163t-115 54zM1520 594q0 -158 -50 -309.5t-136 -229.5t-198 -78t-171.5 75.5t-59.5 229.5t52 306t138 229.5t200 77.5t169.5 -71.5t55.5 -229.5zM1458 1462l-1139 -1462h-106
l1135 1462h110z" />
    <glyph glyph-name="ampersand" unicode="&#x26;" horiz-adv-x="1331" 
d="M78 327q0 159 99 274.5t325 215.5l-41 67q-78 128 -78 268t101 236.5t255 96.5t236 -76.5t82 -206.5q0 -163 -121 -252t-297 -168l330 -463q73 75 135.5 176.5t91.5 186.5h111q-102 -247 -285 -436l184 -246h-123l-131 184q-121 -108 -242 -156t-277 -48t-255.5 94
t-99.5 253zM452 63q120 0 224 42.5t223 146.5l-352 493q-164 -79 -267.5 -163.5t-103.5 -253.5q0 -119 78 -192t198 -73zM730 1395q-107 0 -176 -68t-69 -196t109 -277q203 89 279.5 163.5t76.5 174.5t-56.5 151.5t-163.5 51.5z" />
    <glyph glyph-name="quotesingle" unicode="'" horiz-adv-x="403" 
d="M461 1462l-146 -528h-61l80 528h127z" />
    <glyph glyph-name="parenleft" unicode="(" horiz-adv-x="526" 
d="M713 1462q-510 -544 -510 -1182q0 -322 127 -604h-80q-146 262 -146 600t122 627.5t382 558.5h105z" />
    <glyph glyph-name="parenright" unicode=")" horiz-adv-x="526" 
d="M354 862q0 310 -127 600h80q146 -262 146 -600t-123.5 -629.5t-380.5 -556.5h-105q510 544 510 1186z" />
    <glyph glyph-name="asterisk" unicode="*" horiz-adv-x="1137" 
d="M834 1540l-109 -405l438 8l-8 -107l-416 29l181 -401l-115 -37l-135 417l-285 -348l-78 78l318 318l-392 125l39 102l394 -168l47 408z" />
    <glyph glyph-name="plus" unicode="+" 
d="M563 672h-401v100h401v404h101v-404h401v-100h-401v-400h-101v400z" />
    <glyph glyph-name="comma" unicode="," horiz-adv-x="451" 
d="M250 238l8 -23q-34 -92 -114 -233.5t-160 -245.5h-74q79 132 141 271t88 231h111z" />
    <glyph glyph-name="hyphen" unicode="-" horiz-adv-x="629" 
d="M82 502l18 90h457l-16 -90h-459z" />
    <glyph glyph-name="period" unicode="." horiz-adv-x="485" 
d="M82 55q0 56 25 88.5t69 32.5q66 0 66 -72q0 -53 -25 -87.5t-67 -34.5q-68 0 -68 73z" />
    <glyph glyph-name="slash" unicode="/" horiz-adv-x="641" 
d="M827 1462l-817 -1462h-110l815 1462h112z" />
    <glyph glyph-name="zero" unicode="0" 
d="M722 1397q-132 0 -240 -113t-174 -329.5t-66 -444.5t62.5 -335t199.5 -107t242 112t166 337t61 457t-59.5 327.5t-191.5 95.5zM139 494q0 186 44.5 381.5t163.5 402.5t388 207q340 0 340 -469q0 -201 -41 -405t-154.5 -417.5t-387.5 -213.5q-353 0 -353 514z" />
    <glyph glyph-name="one" unicode="1" 
d="M537 0h-105l225 1055q19 92 74 293q-42 -36 -75.5 -61t-249.5 -161l-52 78l406 258h90z" />
    <glyph glyph-name="two" unicode="2" 
d="M961 1158q0 102 -66 168.5t-197 66.5q-176 0 -333 -129l-54 73q180 146 394 146q173 0 268.5 -85t95.5 -237q0 -110 -43.5 -208.5t-141.5 -211.5t-311 -303l-383 -338v-4h736l-17 -96h-870l22 104l449 402q198 177 284 276.5t126.5 186.5t40.5 189z" />
    <glyph glyph-name="three" unicode="3" 
d="M705 1483q161 0 252.5 -82.5t91.5 -235.5t-106 -266t-286 -143v-4q117 -24 185.5 -116t68.5 -226t-95.5 -282t-422.5 -148q-190 0 -338 73v101q173 -86 357 -86t290.5 89.5t106.5 243.5t-89 232t-247 78h-117l21 96h110q209 0 333 95.5t124 258.5q0 114 -63.5 175
t-188.5 61q-167 0 -344 -131l-49 75q178 142 406 142z" />
    <glyph glyph-name="four" unicode="4" 
d="M729 459q79 369 119 558.5t86 354.5h-4q-66 -91 -129 -166l-651 -747h579zM1071 371h-264l-80 -371h-96l80 371h-688l20 96l881 1010h118l-215 -1018h265z" />
    <glyph glyph-name="five" unicode="5" 
d="M582 879q188 0 292.5 -102t104.5 -279q0 -237 -148 -377.5t-407 -140.5q-84 0 -177.5 20t-158.5 51v107q170 -90 359 -90t309.5 114.5t120.5 313.5q0 140 -85.5 219.5t-221.5 79.5t-246 -41l-66 49l193 659h624l-18 -96h-541l-149 -516q98 29 215 29z" />
    <glyph glyph-name="six" unicode="6" 
d="M535 68q120 0 204.5 58.5t130 162t45.5 239.5t-67 214.5t-195 78.5q-163 0 -251 -87t-110 -146.5t-22 -173.5q0 -164 72.5 -255t192.5 -91zM678 909q161 0 250.5 -100.5t89.5 -269.5t-60 -294t-171 -195t-269 -70t-253 119t-95 329q0 283 154.5 668t603.5 385
q123 0 182 -21l-18 -90q-86 23 -170 23q-233 0 -393.5 -174t-233.5 -502h8q139 192 375 192z" />
    <glyph glyph-name="seven" unicode="7" 
d="M244 0l796 1366h-766l23 96h858l-20 -110l-779 -1352h-112z" />
    <glyph glyph-name="eight" unicode="8" 
d="M724 1399q-128 0 -212 -82t-84 -188t41.5 -174t157.5 -142q192 62 279 144.5t87 198.5t-70.5 179.5t-198.5 63.5zM201 338q0 -134 77.5 -204.5t232.5 -70.5t257 91t102 233q0 208 -260 346q-218 -73 -313.5 -167t-95.5 -228zM730 1485q170 0 265 -85t95 -226t-84 -237.5
t-285 -172.5q130 -78 190 -170.5t60 -208.5t-58 -208t-165.5 -144.5t-273.5 -52.5t-271 92.5t-105 252.5t100.5 269.5t321.5 187.5q-100 72 -144 152t-44 180q0 159 114 265t284 106z" />
    <glyph glyph-name="nine" unicode="9" 
d="M695 1393q-121 0 -206.5 -58.5t-130.5 -162.5t-45 -240t67.5 -215.5t192.5 -79.5q168 0 254.5 87.5t108.5 146.5t22 201t-71 231.5t-192 89.5zM1059 1032q0 -288 -101.5 -548t-263.5 -382t-393 -122q-114 0 -186 22v90q87 -29 192 -29q474 0 627 674h-8
q-140 -192 -367 -192q-162 0 -255 105t-93 272t59.5 293t170.5 196t271 70t253.5 -115.5t93.5 -333.5z" />
    <glyph glyph-name="colon" unicode=":" horiz-adv-x="485" 
d="M102 55q0 56 25.5 88.5t69.5 32.5q65 0 65 -72q0 -55 -25.5 -88.5t-66.5 -33.5q-68 0 -68 73zM260 989q0 57 25.5 89t68.5 32q66 0 66 -72q0 -55 -25 -89t-67 -34q-68 0 -68 74z" />
    <glyph glyph-name="semicolon" unicode=";" horiz-adv-x="485" 
d="M266 989q0 57 25.5 89t68.5 32q66 0 66 -72q0 -55 -25 -89t-67 -34q-68 0 -68 74zM287 238l8 -23q-35 -96 -118.5 -242t-156.5 -237h-73q79 132 141 271t88 231h111z" />
    <glyph glyph-name="less" unicode="&#x3c;" 
d="M1051 262l-914 414v74l914 471v-103l-801 -399l801 -350v-107z" />
    <glyph glyph-name="equal" unicode="=" 
d="M168 461v98h903v-98h-903zM168 885v100h903v-100h-903z" />
    <glyph glyph-name="greater" unicode="&#x3e;" 
d="M170 369l801 350l-801 399v103l915 -471v-74l-915 -414v107z" />
    <glyph glyph-name="question" unicode="?" horiz-adv-x="799" 
d="M170 59q0 56 25 88.5t69 32.5q66 0 66 -71q0 -54 -24.5 -88.5t-67.5 -34.5q-68 0 -68 73zM534 1483q166 0 257.5 -84.5t91.5 -220.5t-66 -243t-227 -223t-198 -185t-58 -165h-92l6 29q29 132 82 206.5t164 152.5t197.5 172t86.5 237q0 108 -67.5 170t-194.5 62t-295 -101
l-39 86q186 107 352 107z" />
    <glyph glyph-name="at" unicode="@" horiz-adv-x="1724" 
d="M988 969q-93 0 -184.5 -59t-142.5 -165.5t-51 -218.5q0 -213 154 -213q101 0 180.5 89t124.5 255l78 289q-66 23 -159 23zM1051 424q-111 -199 -312 -199q-101 0 -167 73.5t-66 215.5t63 269t178 198.5t249 71.5t264 -52l-84 -315q-39 -140 -39 -216q0 -157 135 -157
q86 0 160 73.5t117.5 197.5t43.5 266t-65 263t-187 188t-292 67q-235 0 -424.5 -108.5t-295.5 -304t-106 -439.5q0 -288 155 -449t435 -161q207 0 420 82v-90q-211 -82 -421 -82t-364.5 82.5t-238.5 239t-84 370.5q0 276 121.5 493.5t337 337t473.5 119.5q189 0 330.5 -72.5
t221 -213t79.5 -316.5t-56 -321t-154 -227.5t-204 -82.5t-162.5 55t-56.5 144h-4z" />
    <glyph glyph-name="A" unicode="A" horiz-adv-x="1059" 
d="M793 612l-39 291q-31 242 -39 402q-60 -125 -371 -693h449zM805 520h-512l-287 -520h-117l822 1468h67l201 -1468h-105z" />
    <glyph glyph-name="B" unicode="B" horiz-adv-x="1202" 
d="M983 434q0 287 -365 287h-260l-135 -631h342q201 0 309.5 87.5t108.5 256.5zM655 811q206 0 313 81t107 238q0 119 -78 180.5t-229 61.5h-272l-119 -561h278zM791 1462q190 0 290.5 -84t100.5 -239t-90 -251t-254 -124v-4q125 -31 188.5 -113.5t63.5 -204.5
q0 -205 -140.5 -323.5t-390.5 -118.5h-457l310 1462h379z" />
    <glyph glyph-name="C" unicode="C" horiz-adv-x="1169" 
d="M961 1389q-197 0 -351.5 -104.5t-245 -304.5t-90.5 -433t110.5 -354t317.5 -121q140 0 304 51v-94q-156 -49 -316 -49q-252 0 -386 145t-134 411t104.5 487.5t284 340.5t379.5 119t330 -68l-45 -90q-117 64 -262 64z" />
    <glyph glyph-name="D" unicode="D" horiz-adv-x="1350" 
d="M430 90q226 0 394.5 94.5t261 275.5t92.5 412q0 498 -476 498h-206l-275 -1280h209zM1288 896q0 -270 -109.5 -478.5t-300.5 -313t-446 -104.5h-330l310 1462h305q282 0 426.5 -148t144.5 -418z" />
    <glyph glyph-name="E" unicode="E" horiz-adv-x="1067" 
d="M829 0h-727l310 1462h727l-21 -94h-624l-117 -553h590l-21 -94h-588l-135 -627h627z" />
    <glyph glyph-name="F" unicode="F" horiz-adv-x="981" 
d="M205 0h-103l310 1462h708l-20 -94h-604l-134 -620h570l-21 -95h-569z" />
    <glyph glyph-name="G" unicode="G" horiz-adv-x="1374" 
d="M707 -20q-257 0 -397 146t-140 416t105 488.5t283.5 335.5t388.5 117t394 -78l-38 -94q-110 46 -189.5 62t-167.5 16q-184 0 -339 -107.5t-244 -301.5t-89 -428t114.5 -357t326.5 -123q155 0 309 47l117 526h-303l18 90h406l-150 -682q-211 -73 -405 -73z" />
    <glyph glyph-name="H" unicode="H" horiz-adv-x="1366" 
d="M1063 0h-100l151 719h-760l-149 -719h-103l310 1462h102l-139 -649h760l137 649h100z" />
    <glyph glyph-name="I" unicode="I" horiz-adv-x="504" 
d="M102 0l310 1462h98l-309 -1462h-99z" />
    <glyph glyph-name="J" unicode="J" horiz-adv-x="477" 
d="M-180 -360q-96 0 -144 24l11 92q57 -20 137 -20q213 0 262 241l309 1485h105l-314 -1491q-35 -170 -125 -250.5t-241 -80.5z" />
    <glyph glyph-name="K" unicode="K" horiz-adv-x="1122" 
d="M979 0h-111l-342 788l-190 -153l-131 -635h-103l310 1462h102l-158 -723l133 121l680 602h138l-699 -610z" />
    <glyph glyph-name="L" unicode="L" horiz-adv-x="938" 
d="M102 0l310 1462h102l-289 -1366h621l-23 -96h-721z" />
    <glyph glyph-name="M" unicode="M" horiz-adv-x="1669" 
d="M772 205l733 1257h150l-301 -1462h-101l191 901q79 369 100 447h-6l-780 -1348h-51l-222 1348h-6q-20 -154 -78 -426l-196 -922h-96l309 1462h143l205 -1257h6z" />
    <glyph glyph-name="N" unicode="N" horiz-adv-x="1372" 
d="M1069 0h-86l-516 1284h-8q-23 -149 -48 -273t-214 -1011h-95l310 1462h80l522 -1294h8q23 176 74 416l188 878h94z" />
    <glyph glyph-name="O" unicode="O" horiz-adv-x="1464" 
d="M895 1389q-190 0 -324.5 -101t-214.5 -298.5t-80 -429.5t109.5 -360t319.5 -128q169 0 300 98.5t210 300t79 435.5t-104.5 358.5t-294.5 124.5zM1403 921q0 -265 -94 -491.5t-252 -338t-365 -111.5q-250 0 -385 149t-135 421t93 487t255 330.5t391 115.5t360.5 -148.5
t131.5 -413.5z" />
    <glyph glyph-name="P" unicode="P" horiz-adv-x="1145" 
d="M541 694q252 0 373.5 96.5t121.5 305.5q0 274 -329 274h-211l-146 -676h191zM1145 1102q0 -500 -610 -500h-201l-129 -602h-103l310 1462h315q202 0 310 -92.5t108 -267.5z" />
    <glyph glyph-name="Q" unicode="Q" horiz-adv-x="1464" 
d="M895 1389q-190 0 -324.5 -101t-214.5 -298.5t-80 -429.5t109.5 -360t319.5 -128q169 0 300 98.5t210 300t79 435.5t-104.5 358.5t-294.5 124.5zM1403 911q0 -216 -104 -516.5t-427 -392.5l267 -350h-142l-231 332l-74 -4q-250 0 -385 149t-135 421t93 487t255 330.5
t391 115.5t360.5 -148.5t131.5 -423.5z" />
    <glyph glyph-name="R" unicode="R" horiz-adv-x="1145" 
d="M610 725q208 0 317 95.5t109 281.5q0 268 -329 268h-211l-138 -645h252zM715 1462q430 0 430 -360q0 -182 -103.5 -303t-281.5 -152q201 -591 221 -647h-111l-211 633h-323l-131 -633h-103l310 1462h303z" />
    <glyph glyph-name="S" unicode="S" horiz-adv-x="1020" 
d="M694 1397q-169 0 -265.5 -82.5t-96.5 -218.5q0 -103 49 -170.5t193 -139.5t232.5 -148.5t88.5 -234.5q0 -126 -98.5 -274.5t-415.5 -148.5q-185 0 -344 75v109q163 -92 349 -92t294 86.5t108 232.5q0 114 -52.5 166t-108 85t-131.5 75q-150 76 -209.5 164t-59.5 206
t59 207.5t165 139t221 49.5t196 -17.5t168 -60.5l-32 -94q-141 86 -310 86z" />
    <glyph glyph-name="T" unicode="T" horiz-adv-x="985" 
d="M438 0h-102l289 1368h-432l20 94h973l-19 -94h-440z" />
    <glyph glyph-name="U" unicode="U" horiz-adv-x="1370" 
d="M616 -20q-440 0 -440 401q0 83 27 201l186 880h103l-193 -899q-20 -89 -20 -184q0 -309 342 -309q195 0 307.5 96.5t158.5 318.5l207 977h101l-207 -977q-58 -270 -197 -387.5t-375 -117.5z" />
    <glyph glyph-name="V" unicode="V" horiz-adv-x="1079" 
d="M457 147q51 111 124 247l572 1068h117l-799 -1462h-88l-182 1462h100l117 -950q26 -217 35 -365h4z" />
    <glyph glyph-name="W" unicode="W" horiz-adv-x="1702" 
d="M1182 174h6q30 86 61.5 163t493.5 1125h108q-169 -365 -330.5 -731t-328.5 -731h-78l-78 1075q-11 142 -11 219l1 47h-8q-27 -76 -62 -153.5t-563 -1187.5h-82l-73 1462h100l47 -1031l4 -165l-2 -86h6q85 226 170 398l434 884h105l61 -878q19 -266 19 -410z" />
    <glyph glyph-name="X" unicode="X" horiz-adv-x="971" 
d="M879 0h-107l-254 678l-526 -678h-127l608 766l-272 696h106l240 -626l483 626h119l-555 -719z" />
    <glyph glyph-name="Y" unicode="Y" horiz-adv-x="965" 
d="M494 645l544 817h117l-631 -932l-108 -530h-105l119 545l-237 917h100z" />
    <glyph glyph-name="Z" unicode="Z" 
d="M913 0h-925l22 92l1069 1276h-764l23 94h887l-19 -88l-1069 -1280h799z" />
    <glyph glyph-name="bracketleft" unicode="[" horiz-adv-x="537" 
d="M369 -324h-426l376 1786h429l-19 -90h-330l-340 -1605h330z" />
    <glyph glyph-name="backslash" unicode="\" horiz-adv-x="641" 
d="M295 1462l242 -1462h-82l-246 1462h86z" />
    <glyph glyph-name="bracketright" unicode="]" horiz-adv-x="537" 
d="M203 1462h426l-377 -1786h-428l18 91h330l340 1605h-330z" />
    <glyph glyph-name="asciicircum" unicode="^" horiz-adv-x="1047" 
d="M70 569l587 906h91l260 -906h-105l-217 809l-500 -809h-116z" />
    <glyph glyph-name="underscore" unicode="_" horiz-adv-x="801" 
d="M625 -291h-807l18 86h807z" />
    <glyph glyph-name="grave" unicode="`" horiz-adv-x="1135" 
d="M766 1241h-66q-50 52 -114 144.5t-99 162.5v21h115q46 -129 164 -303v-25z" />
    <glyph glyph-name="a" unicode="a" horiz-adv-x="1133" 
d="M205 365q0 -295 201 -295q89 0 177.5 62t159 166t107.5 230t37 209t-41 182t-189 99q-124 0 -224 -82t-164 -245.5t-64 -325.5zM102 354q0 197 75 376t200.5 276.5t277.5 97.5q232 0 279 -219h6l59 202h80l-229 -1087h-82l45 274h-6q-174 -294 -424 -294q-281 0 -281 374
z" />
    <glyph glyph-name="b" unicode="b" horiz-adv-x="1151" 
d="M950 723q0 295 -194 295q-96 0 -185.5 -61.5t-161 -169.5t-106.5 -235t-35 -206q0 -129 64 -202.5t177 -73.5t213 83t164 245t64 325zM772 1108q281 0 281 -375q0 -203 -76 -380t-201 -273t-257 -96q-252 0 -302 225h-6l-55 -209h-80l327 1556h95q-131 -628 -162 -751h6
q181 303 430 303z" />
    <glyph glyph-name="c" unicode="c" horiz-adv-x="887" 
d="M488 70q136 0 262 59v-92q-116 -57 -282 -57t-266 111t-100 305t73.5 362.5t198 257t274.5 88.5t257 -43l-28 -90q-107 47 -227 47t-223.5 -77t-162.5 -222t-59 -311t73.5 -252t209.5 -86z" />
    <glyph glyph-name="d" unicode="d" horiz-adv-x="1133" 
d="M406 70q89 0 178.5 62.5t160 168t106.5 231t36 230.5t-61.5 180.5t-177.5 75.5t-215.5 -83t-163.5 -242.5t-64 -327.5q0 -295 201 -295zM655 1104q230 0 279 -219h4q12 66 143 671h99l-330 -1556h-82l45 274h-6q-173 -294 -424 -294q-281 0 -281 374q0 193 71.5 370
t197.5 278.5t284 101.5z" />
    <glyph glyph-name="e" unicode="e" horiz-adv-x="928" 
d="M631 1018q-131 0 -243.5 -115.5t-162.5 -308.5h49q517 0 517 270q0 67 -43.5 110.5t-116.5 43.5zM462 -20q-166 0 -263 110t-97 298t71 354t195.5 264t256.5 98t200 -61t68 -166q0 -181 -163.5 -276t-485.5 -95h-33q-6 -44 -6 -98q0 -165 73.5 -251.5t209.5 -86.5t280 73
v-94q-140 -69 -306 -69z" />
    <glyph glyph-name="f" unicode="f" horiz-adv-x="578" 
d="M-131 -492q-48 0 -102 19v90q53 -16 100 -16q88 0 134 53t75 186l246 1166h-205l14 67l205 14l35 160q35 168 116.5 244t227.5 76q73 0 166 -31l-25 -80q-87 27 -165 27q-170 0 -220 -232l-35 -164h248l-16 -81h-248l-252 -1190q-33 -161 -104 -234.5t-195 -73.5z" />
    <glyph glyph-name="g" unicode="g" horiz-adv-x="1040" 
d="M285 694q0 -96 58.5 -153.5t155.5 -57.5t163 37t102.5 114t36.5 175t-56 155.5t-153 57.5t-165 -43t-105 -116t-37 -169zM14 -208q0 -100 81 -149t254 -49t287 74.5t114 204.5q0 85 -62.5 130.5t-218.5 57.5l-160 15q-157 -45 -226 -114.5t-69 -169.5zM334 442
q-150 76 -150 274q0 100 53.5 193t148 146t184.5 53t169 -21h361l-17 -79l-243 -11q26 -28 43.5 -84t17.5 -114q0 -109 -81.5 -254.5t-334.5 -145.5q-63 0 -77 9q-168 -69 -168 -132t31.5 -86.5t113.5 -31.5l121 -11q346 -31 346 -264q0 -112 -100 -243.5t-443 -131.5
q-186 0 -291.5 72t-105.5 203q0 236 309 334q-78 42 -78 123q0 123 191 202z" />
    <glyph glyph-name="h" unicode="h" horiz-adv-x="1143" 
d="M934 856q0 72 -43 117t-145 45t-249 -100t-221 -441l-102 -477h-98l332 1556h96l-86 -411q-44 -200 -66 -279h6q78 113 187 175.5t231 62.5t190 -65t68 -183q0 -70 -24 -182l-148 -674h-98l149 692q21 92 21 164z" />
    <glyph glyph-name="i" unicode="i" horiz-adv-x="475" 
d="M410 1292q-60 0 -60 74q0 55 22 88t60 33q57 -1 57 -65t-22 -97t-57 -33zM174 0h-98l231 1087h96z" />
    <glyph glyph-name="j" unicode="j" horiz-adv-x="475" 
d="M410 1292q-60 0 -60 74q0 55 22 88t60 33q57 -1 57 -65t-22 -97t-57 -33zM-166 -492q-62 0 -113 19v92q47 -22 121 -22t120.5 51.5t72.5 177.5l266 1261h96l-268 -1271q-35 -165 -106.5 -236.5t-188.5 -71.5z" />
    <glyph glyph-name="k" unicode="k" horiz-adv-x="944" 
d="M270 477l609 610h125l-474 -469l297 -618h-106l-264 559l-205 -188l-80 -371h-96l330 1556h96l-166 -780l-70 -299h4z" />
    <glyph glyph-name="l" unicode="l" horiz-adv-x="475" 
d="M170 0h-94l334 1556h94z" />
    <glyph glyph-name="m" unicode="m" horiz-adv-x="1751" 
d="M750 1104q106 0 163 -67t60 -195h6q77 129 181 195.5t222 66.5t183 -61.5t65 -176.5q0 -57 -22 -176l-152 -690h-100l149 680q25 120 25 186t-43 109t-119 43q-157 0 -277.5 -137.5t-168.5 -362.5l-109 -518h-102l147 674q25 125 25 162q0 182 -154 182
q-106 0 -246.5 -101t-212.5 -442l-100 -475h-98l231 1087h80l-33 -210h6q161 227 394 227z" />
    <glyph glyph-name="n" unicode="n" horiz-adv-x="1143" 
d="M934 856q0 72 -43 117t-145 45t-249 -100t-221 -441l-102 -477h-98l231 1087h82l-37 -221h6q164 238 416 238q130 0 195 -64t65 -184q0 -70 -24 -182l-148 -674h-98l149 692q21 92 21 164z" />
    <glyph glyph-name="o" unicode="o" horiz-adv-x="1124" 
d="M648 1022q-130 0 -229.5 -78.5t-158.5 -225t-59 -310.5q0 -342 282 -342q127 0 225.5 77.5t157 228t58.5 317.5t-73 250t-203 83zM660 1108q168 0 267 -108.5t99 -302.5t-71.5 -365.5t-195.5 -261.5t-297 -90t-268.5 109t-95.5 307t73 365t197 257t292 90z" />
    <glyph glyph-name="p" unicode="p" horiz-adv-x="1149" 
d="M748 1018q-87 0 -174 -58.5t-161.5 -167.5t-110.5 -237.5t-36 -230.5t61 -178t177 -76t217 84t164 243.5t63 325.5q0 295 -200 295zM770 1108q135 0 208 -93t73 -285t-72 -368t-197.5 -277t-283.5 -101q-230 0 -279 219h-4q-13 -72 -149 -695h-99l336 1579h82l-45 -274h6
q175 295 424 295z" />
    <glyph glyph-name="q" unicode="q" horiz-adv-x="1157" 
d="M201 365q-1 -295 191 -295q100 0 190.5 62.5t161 171.5t105 236.5t34.5 200.5q0 130 -63.5 203.5t-177.5 73.5t-213.5 -83t-163.5 -245t-64 -325zM98 354q0 201 75.5 379t200.5 274.5t277 96.5q109 0 183.5 -58t99.5 -167h6l55 208h80l-327 -1556h-95l98 470l64 282h-6
q-181 -303 -430 -303q-281 0 -281 374z" />
    <glyph glyph-name="r" unicode="r" horiz-adv-x="752" 
d="M714 1106q68 0 122 -14l-21 -93q-47 15 -127 15t-165 -64t-153 -192t-100 -277l-100 -481h-98l231 1087h80l-29 -204h6q73 94 123 135.5t106.5 64.5t124.5 23z" />
    <glyph glyph-name="s" unicode="s" horiz-adv-x="827" 
d="M322 66q142 0 215 57.5t73 150.5t-50 135.5t-148 98.5q-148 80 -200 145.5t-52 159.5q0 128 98.5 209.5t259.5 81.5q75 0 158.5 -17.5t140.5 -46.5l-35 -88q-136 64 -258 64t-192 -53t-70 -138q0 -55 25.5 -104.5t155.5 -120.5t200 -130.5t70 -189.5q0 -129 -103 -214.5
t-278 -85.5t-307 75v107q155 -96 297 -96z" />
    <glyph glyph-name="t" unicode="t" horiz-adv-x="616" 
d="M236 207q0 -139 126 -139q68 0 152 26v-86q-101 -28 -185 -28t-138 55t-54 143t29 221l129 607h-182l14 67l184 17l97 253h55l-55 -256h286l-18 -81h-283l-135 -635q-22 -99 -22 -164z" />
    <glyph glyph-name="u" unicode="u" horiz-adv-x="1143" 
d="M207 220q0 -63 47.5 -106.5t147.5 -43.5t246 97.5t216 434.5l105 485h98l-231 -1087h-80l28 205h-6q-167 -221 -403 -221q-131 0 -198.5 62t-67.5 181q0 60 22 170l150 690h100l-152 -698q-22 -106 -22 -169z" />
    <glyph glyph-name="v" unicode="v" horiz-adv-x="895" 
d="M276 0l-172 1087h101l108 -735q26 -165 33 -254h6q51 115 129 256l406 733h102l-600 -1087h-113z" />
    <glyph glyph-name="w" unicode="w" horiz-adv-x="1393" 
d="M764 952h-6q-34 -92 -144 -290l-356 -662h-117l-20 1087h92l13 -821l-3 -157h6q61 134 150 297l373 681h77l64 -681q14 -147 14 -297h6l125 297l320 681h96l-508 -1087h-108l-60 686q-14 224 -14 266z" />
    <glyph glyph-name="x" unicode="x" horiz-adv-x="922" 
d="M442 483l-393 -483h-121l471 559l-245 528h100l207 -462l373 462h120l-448 -534l258 -553h-98z" />
    <glyph glyph-name="y" unicode="y" horiz-adv-x="920" 
d="M-80 -492q-76 0 -137 21v92q71 -27 144 -27t140 49.5t130 164.5t100 184l-174 1095h100l82 -548q51 -351 55 -449h11q43 105 186 367l348 630h103l-713 -1290q-72 -127 -122.5 -178t-113.5 -81t-139 -30z" />
    <glyph glyph-name="z" unicode="z" horiz-adv-x="887" 
d="M700 0h-729l15 72l776 932h-543l17 83h659l-18 -83l-762 -920h602z" />
    <glyph glyph-name="braceleft" unicode="{" horiz-adv-x="709" 
d="M424 -324q-256 0 -256 199q0 45 16 115l56 252q18 90 18 127q0 159 -199 159l21 78q126 0 191 49t89 158l89 393q30 135 106 195.5t215 60.5h29l-17 -86q-86 -2 -147.5 -28.5t-95.5 -173.5l-74 -338q-30 -134 -91.5 -194.5t-164.5 -78.5v-4q68 -18 105.5 -68.5
t37.5 -112.5t-24 -173l-47 -225q-13 -58 -13 -110t37.5 -80t138.5 -28v-86h-20z" />
    <glyph glyph-name="bar" unicode="|" 
d="M584 1561h100v-2071h-100v2071z" />
    <glyph glyph-name="braceright" unicode="}" horiz-adv-x="709" 
d="M489 770q0 -160 199 -160l-20 -78q-125 0 -191 -48.5t-90 -157.5l-88 -394q-32 -139 -108.5 -197.5t-213.5 -58.5h-18v86q96 2 157.5 30t92.5 173l74 338q27 126 87.5 189.5t168.5 82.5v5q-75 20 -109.5 72.5t-34.5 112.5t18 136l54 258q12 61 12 103t-18 67t-54 36
t-116 11l20 86h21q248 0 248 -198q0 -41 -17 -115l-55 -252q-19 -95 -19 -127z" />
    <glyph glyph-name="asciitilde" unicode="~" 
d="M856 700q99 0 219 125v-96q-111 -113 -231 -113t-257 64q-138 65 -242 65t-218 -120v94q108 110 233 110q61 0 115 -13.5t168 -64.5t213 -51z" />
    <glyph glyph-name="nonbreakingspace" unicode="&#xa0;" horiz-adv-x="532" 
 />
    <glyph glyph-name="exclamdown" unicode="&#xa1;" horiz-adv-x="502" 
d="M432 1030q0 -56 -25 -88.5t-69 -32.5q-66 0 -66 72q0 55 25 89t68 34q67 0 67 -74zM264 711h62l-203 -1086h-119z" />
    <glyph glyph-name="cent" unicode="&#xa2;" 
d="M250 610q0 174 63.5 331t178 253t256.5 111l36 178h90l-38 -176q116 -4 217 -43l-29 -90q-107 47 -227 47t-223 -76t-162.5 -221.5t-59.5 -315.5t75 -253t205 -83t267 60v-92q-118 -58 -281 -58l-40 -202h-93l45 215q-132 25 -206 133t-74 282z" />
    <glyph glyph-name="sterling" unicode="&#xa3;" 
d="M876 1479q173 0 316 -78l-39 -84l-54 26q-109 50 -237 50t-214.5 -74.5t-117.5 -220.5l-73 -340h409l-18 -82h-408l-57 -268q-50 -225 -188 -314h759l-20 -94h-938l16 84q93 11 165.5 95.5t107.5 236.5l57 260h-199l17 82h198l76 350q41 187 155 279t287 92z" />
    <glyph glyph-name="currency" unicode="&#xa4;" 
d="M350 724q0 -118 80 -198t197 -80t198.5 81t81.5 196q0 75 -36.5 140t-102.5 104t-141 39q-114 0 -195.5 -82t-81.5 -200zM262 718q0 122 74 230l-129 129l63 64l127 -129q105 78 227 78t226 -78l131 129l61 -62l-129 -129q78 -106 78 -234t-78 -220l129 -127l-61 -62
l-131 127q-104 -76 -226 -76t-225 80l-129 -129l-61 62l127 127q-74 98 -74 220z" />
    <glyph glyph-name="yen" unicode="&#xa5;" 
d="M584 645l544 817h117l-559 -823h266l-16 -76h-315l-39 -190h317l-18 -84h-316l-59 -289h-105l64 289h-299l18 84h299l41 190h-301l17 76h258l-215 823h100z" />
    <glyph glyph-name="brokenbar" unicode="&#xa6;" 
d="M578 246h100v-756h-100v756zM578 1561h100v-756h-100v756z" />
    <glyph glyph-name="section" unicode="&#xa7;" horiz-adv-x="995" 
d="M596 535q221 105 221 260q0 82 -57.5 136t-200.5 107q-119 -30 -187.5 -97.5t-68.5 -139.5t24.5 -111.5t81 -73t187.5 -81.5zM211 782q0 98 69.5 178.5t198.5 129.5q-64 31 -103.5 85.5t-39.5 124.5t72 164.5t309 94.5q163 0 289 -58l-31 -80q-138 54 -263 54
t-203.5 -46.5t-78.5 -114.5t46 -114t170 -102t195.5 -113.5t71.5 -175.5q0 -197 -249 -317q122 -64 122 -197q0 -86 -75 -191.5t-334 -105.5q-157 0 -275 53v99q47 -27 126 -46.5t153 -19.5q149 0 228 52.5t79 150.5q0 62 -42 106.5t-182 102.5t-196.5 123t-56.5 163z" />
    <glyph glyph-name="dieresis" unicode="&#xa8;" horiz-adv-x="1135" 
d="M547 1303q-55 0 -55 56q0 114 77 114q54 0 54 -56t-21 -85t-55 -29zM891 1303q-55 0 -55 56q0 114 77 114q54 0 54 -56t-21 -85t-55 -29z" />
    <glyph glyph-name="copyright" unicode="&#xa9;" horiz-adv-x="1704" 
d="M240 729q0 -176 88.5 -327.5t240.5 -240.5t328 -89t327 85.5t243 239t92 333.5t-89 331.5t-240.5 240.5t-331.5 89t-333.5 -92t-239 -243t-85.5 -327zM147 732q0 199 100 374t275 276t376 101t376 -100t276 -274.5t101 -374.5t-97 -373t-271.5 -277t-382.5 -104
t-383 103.5t-272.5 276.5t-97.5 372zM641 733q0 -364 295 -364q85 0 199 43v-88q-104 -45 -209 -45q-187 0 -288 116.5t-101 326.5t110 335t297 125q119 0 227 -52l-36 -83q-99 45 -191 45q-142 0 -222.5 -94.5t-80.5 -264.5z" />
    <glyph glyph-name="ordfeminine" unicode="&#xaa;" horiz-adv-x="643" 
d="M369 885q66 0 133.5 75.5t97.5 184.5q16 51 16 116t-36 107.5t-93 42.5q-94 0 -161.5 -111.5t-67.5 -263.5t111 -151zM477 1485q126 0 174 -115h6l35 103h66l-137 -650h-72l22 125h-4q-96 -137 -223 -137q-80 0 -127 56.5t-47 164.5q0 189 90.5 321t216.5 132z" />
    <glyph glyph-name="guillemotleft" unicode="&#xab;" horiz-adv-x="860" 
d="M786 932l58 -49l-314 -336l209 -385l-63 -39l-254 418l2 26zM426 932l57 -49l-317 -336l213 -385l-64 -39l-254 418l2 26z" />
    <glyph glyph-name="logicalnot" unicode="&#xac;" 
d="M1028 772v-500h-100v400h-803v100h903z" />
    <glyph glyph-name="uni00AD" unicode="&#xad;" horiz-adv-x="629" 
d="M77 502l18 90h457l-16 -90h-459z" />
    <glyph glyph-name="registered" unicode="&#xae;" horiz-adv-x="1704" 
d="M242 729q0 -176 88.5 -327.5t240.5 -240.5t328 -89t327 85.5t243 239t92 333.5t-89 331.5t-240.5 240.5t-331.5 89t-333.5 -92t-239 -243t-85.5 -327zM150 732q0 206 103.5 381t276.5 272.5t372 97.5t374 -100t276 -274.5t101 -374.5t-97 -373t-272 -277t-381 -104
t-378.5 100.5t-273.5 273t-101 378.5zM868 1171q301 0 301 -253q0 -80 -39.5 -141t-109.5 -93l237 -393h-120l-211 360h-168v-360h-101v880h211zM758 731h112q93 0 144 46.5t51 135.5q0 172 -197 172h-110v-354z" />
    <glyph glyph-name="overscore" unicode="&#xaf;" horiz-adv-x="655" 
d="M1001 1556h-653l53 97h654z" />
    <glyph glyph-name="degree" unicode="&#xb0;" horiz-adv-x="877" 
d="M315 1190q0 -90 64.5 -153.5t156.5 -63.5t155 63.5t63 153.5t-64 155.5t-154 65.5t-155.5 -65.5t-65.5 -155.5zM242 1189q0 121 85 207.5t207 86.5t207.5 -86.5t85.5 -207.5t-85.5 -206.5t-207.5 -85.5t-207 85.5t-85 206.5z" />
    <glyph glyph-name="plusminus" unicode="&#xb1;" 
d="M127 0v100h903v-100h-903zM528 629h-401v98h401v406h101v-406h401v-98h-401v-400h-101v400z" />
    <glyph glyph-name="twosuperior" unicode="&#xb2;" horiz-adv-x="643" 
d="M623 1257q0 146 -158 146q-81 0 -180 -76l-41 62q108 90 246 90t180.5 -72t42.5 -127q0 -106 -59 -198.5t-183 -194.5l-266 -223h416l-17 -78h-522l16 80l297 258q137 118 182.5 190.5t45.5 142.5z" />
    <glyph glyph-name="threesuperior" unicode="&#xb3;" horiz-adv-x="643" 
d="M618 1262q0 137 -143 137q-100 0 -199 -68l-40 64q109 86 251 86q100 0 159 -56.5t59 -144.5q0 -192 -203 -240v-4q66 -16 105.5 -68t39.5 -126t-60.5 -173.5t-248.5 -99.5q-59 0 -123.5 15.5t-105.5 40.5v90q112 -68 222 -68t170 52.5t60 142.5q0 162 -196 162h-84
l16 79h86q102 0 168.5 49.5t66.5 129.5z" />
    <glyph glyph-name="acute" unicode="&#xb4;" horiz-adv-x="1135" 
d="M997 1569v-23q-51 -66 -157.5 -158.5t-192.5 -146.5h-67v21q66 51 150.5 142t129.5 165h137z" />
    <glyph glyph-name="mu" unicode="&#xb5;" horiz-adv-x="1171" 
d="M403 -16q-168 0 -215 122h-6q-18 -132 -51 -284l-63 -314h-97l338 1579h101l-152 -698q-20 -97 -20 -163t49 -111t147 -45t242 95.5t217 436.5l104 485h99l-234 -1087h-78l29 205h-6q-164 -221 -404 -221z" />
    <glyph glyph-name="paragraph" unicode="&#xb6;" horiz-adv-x="1341" 
d="M1208 -260h-100v1722h-227v-1722h-101v819q-64 -18 -145 -18q-216 0 -318 124.5t-102 380.5t109 383t342 127h542v-1816z" />
    <glyph glyph-name="periodcentered" unicode="&#xb7;" horiz-adv-x="485" 
d="M207 698q0 56 25 88t69 33q66 0 66 -72q0 -53 -25 -87t-67 -35q-68 0 -68 73z" />
    <glyph glyph-name="cedilla" unicode="&#xb8;" horiz-adv-x="420" 
d="M197 -289q0 -94 -75.5 -148.5t-217.5 -54.5q-46 0 -78 7v79q30 -6 72 -6q198 0 198 115q0 97 -151 107l110 190h80l-78 -137q140 -30 140 -152z" />
    <glyph glyph-name="onesuperior" unicode="&#xb9;" horiz-adv-x="643" 
d="M512 1462h80l-186 -876h-84l118 569q5 21 19.5 87.5t36.5 131.5q-34 -31 -60 -51.5t-143 -93.5l-39 59z" />
    <glyph glyph-name="ordmasculine" unicode="&#xba;" horiz-adv-x="655" 
d="M662 1225q0 180 -151 180q-73 0 -127 -46.5t-84 -124.5t-30 -167q0 -186 156 -186q73 0 125.5 46.5t81.5 127.5t29 170zM522 1479q100 0 160.5 -63.5t60.5 -179.5t-40 -215t-113.5 -156.5t-181.5 -57.5t-163 67.5t-55 181.5t41.5 212t116 154.5t174.5 56.5z" />
    <glyph glyph-name="guillemotright" unicode="&#xbb;" horiz-adv-x="860" 
d="M90 123l-57 49l313 336l-209 385l64 39l254 -418l-2 -27zM451 123l-58 49l314 336l-209 385l63 39l254 -418l-2 -27z" />
    <glyph glyph-name="onequarter" unicode="&#xbc;" horiz-adv-x="1481" 
d="M1121 302q79 382 108 471q-30 -48 -399 -471h291zM1319 230h-131l-49 -229h-82l49 229h-391l21 76l506 577h86l-125 -581h133zM1323 1462l-1087 -1462h-107l1086 1462h108zM509 1462h80l-186 -876h-84l118 569q5 21 11 51q23 103 45 168q-34 -32 -60 -52t-143 -93l-39 59
z" />
    <glyph glyph-name="onehalf" unicode="&#xbd;" horiz-adv-x="1458" 
d="M1297 672q0 146 -158 146q-81 0 -180 -76l-41 62q108 90 246 90t196 -99q26 -45 27 -100q0 -107 -59 -199t-183 -194l-266 -223h416l-17 -78h-522l16 80l297 258q137 119 183 191t45 142zM431 1462h80l-186 -876h-84l118 569q5 21 11 51q23 103 45 168q-34 -32 -60 -52
t-143 -93l-39 59zM1247 1462l-1087 -1462h-107l1086 1462h108z" />
    <glyph glyph-name="threequarters" unicode="&#xbe;" horiz-adv-x="1458" 
d="M1182 302q79 382 108 471q-30 -48 -399 -471h291zM1380 230h-131l-49 -229h-82l49 229h-391l21 76l506 577h86l-125 -581h133zM580 1262q0 137 -143 137q-100 0 -199 -68l-40 64q109 86 251 86q100 -1 159 -57t59 -144q0 -192 -203 -240v-4q66 -16 106 -68t39 -126
q0 -74 -39 -139q-82 -134 -270 -134q-60 -1 -124 15t-105 41v90q112 -68 222 -68q110 1 170 53t60 142q0 162 -196 162h-84l16 79h86q103 -1 169 49t66 130zM1407 1462l-1087 -1462h-107l1086 1462h108z" />
    <glyph glyph-name="questiondown" unicode="&#xbf;" horiz-adv-x="799" 
d="M713 1020q0 -56 -25.5 -88.5t-69.5 -32.5q-65 0 -65 72q0 56 25 89.5t67 33.5q68 0 68 -74zM350 -403q-167 0 -258.5 84.5t-91.5 222.5t70 246t229 222t194 182t56 163h92l-6 -29q-28 -127 -79 -200.5t-165 -155.5t-200.5 -175.5t-86.5 -236.5q0 -106 65.5 -168.5
t195.5 -62.5t297 100l38 -86q-183 -106 -350 -106z" />
    <glyph glyph-name="Agrave" unicode="&#xc0;" horiz-adv-x="1059" 
d="M793 612l-39 291q-31 242 -39 402q-60 -125 -371 -693h449zM805 520h-512l-287 -520h-117l822 1468h67l201 -1468h-105zM815 1579h-66q-50 53 -114 145t-99 162v21h115q46 -129 164 -303v-25z" />
    <glyph glyph-name="Aacute" unicode="&#xc1;" horiz-adv-x="1059" 
d="M793 612l-39 291q-31 242 -39 402q-60 -125 -371 -693h449zM805 520h-512l-287 -520h-117l822 1468h67l201 -1468h-105zM1085 1907v-23q-51 -66 -157 -158t-193 -147h-67v21q66 51 150 142t130 165h137z" />
    <glyph glyph-name="Acircumflex" unicode="&#xc2;" horiz-adv-x="1059" 
d="M793 612l-39 291q-31 242 -39 402q-60 -125 -371 -693h449zM805 520h-512l-287 -520h-117l822 1468h67l201 -1468h-105zM493 1579v29q67 56 157 148t128 151h64q22 -65 72 -153t93 -146v-29h-49q-70 60 -161 207q-120 -124 -250 -207h-54z" />
    <glyph glyph-name="Atilde" unicode="&#xc3;" horiz-adv-x="1059" 
d="M793 612l-39 291q-31 242 -39 402q-60 -125 -371 -693h449zM805 520h-512l-287 -520h-117l822 1468h67l201 -1468h-105zM916 1684q84 0 118 131h76q-26 -118 -74 -173t-117 -55q-68 0 -161 64q-34 23 -64 41t-72 18t-71 -28t-51 -101h-74q40 225 205 225q41 0 73 -14
t102 -61q68 -47 110 -47z" />
    <glyph glyph-name="Adieresis" unicode="&#xc4;" horiz-adv-x="1059" 
d="M793 612l-39 291q-31 242 -39 402q-60 -125 -371 -693h449zM805 520h-512l-287 -520h-117l822 1468h67l201 -1468h-105zM590 1641q-55 0 -55 56q0 114 77 114q54 0 54 -56t-21 -85t-55 -29zM934 1641q-55 0 -55 56q0 114 77 114q54 0 54 -56t-21 -85t-55 -29z" />
    <glyph glyph-name="Aring" unicode="&#xc5;" horiz-adv-x="1059" 
d="M793 612l-39 291q-31 242 -39 402q-60 -125 -371 -693h449zM539 1590q-1 90 59 146t149 56t143 -50t55 -142q0 -92 -50 -141t-108 -60l192 -1399h-105l-69 520h-512l-287 -520h-117l786 1403q-47 12 -81 44q-55 53 -55 143zM867 1598q1 57 -33 90t-91 33t-91 -36t-33 -93
q0 -57 33 -90q34 -33 90 -33t90 36t35 93z" />
    <glyph glyph-name="AE" unicode="&#xc6;" horiz-adv-x="1640" 
d="M408 627h401l156 741h-88zM1403 0h-727l110 522h-444l-328 -522h-131l946 1462h883l-20 -94h-625l-117 -553h590l-20 -94h-588l-135 -627h626z" />
    <glyph glyph-name="Ccedilla" unicode="&#xc7;" horiz-adv-x="1169" 
d="M961 1389q-197 -1 -351 -105t-246 -304q-90 -200 -90 -433t110 -354t318 -121q140 0 304 51v-94q-156 -49 -316 -49h-11l-67 -117q140 -30 140 -152q0 -95 -76 -149t-217 -54q-46 0 -78 7v79q30 -6 72 -6q198 0 198 115q0 97 -151 107l101 175q-188 22 -297 140
q-134 145 -134 411t104 487q104 222 285 341q179 119 379 119t330 -68l-45 -90q-117 64 -262 64z" />
    <glyph glyph-name="Egrave" unicode="&#xc8;" horiz-adv-x="1067" 
d="M829 0h-727l310 1462h727l-21 -94h-624l-117 -553h590l-21 -94h-588l-135 -627h627zM891 1579h-66q-50 53 -114 145t-99 162v21h115q46 -129 164 -303v-25z" />
    <glyph glyph-name="Eacute" unicode="&#xc9;" horiz-adv-x="1067" 
d="M829 0h-727l310 1462h727l-21 -94h-624l-117 -553h590l-21 -94h-588l-135 -627h627zM1071 1907v-23q-51 -66 -157 -158t-193 -147h-67v21q66 51 150 142t130 165h137z" />
    <glyph glyph-name="Ecircumflex" unicode="&#xca;" horiz-adv-x="1067" 
d="M829 0h-727l310 1462h727l-21 -94h-624l-117 -553h590l-21 -94h-588l-135 -627h627zM522 1579v29q68 56 158 148t127 151h64q23 -65 73 -153t92 -146v-29h-49q-70 60 -161 207q-120 -124 -250 -207h-54z" />
    <glyph glyph-name="Edieresis" unicode="&#xcb;" horiz-adv-x="1067" 
d="M829 0h-727l310 1462h727l-21 -94h-624l-117 -553h590l-21 -94h-588l-135 -627h627zM613 1641q-55 0 -55 56q0 114 77 114q54 0 54 -56t-21 -85t-55 -29zM957 1641q-55 0 -55 56q0 114 77 114q54 0 54 -56t-21 -85t-55 -29z" />
    <glyph glyph-name="Igrave" unicode="&#xcc;" horiz-adv-x="504" 
d="M102 0l310 1462h98l-309 -1462h-99zM525 1579h-66q-50 53 -114 145t-99 162v21h115q46 -129 164 -303v-25z" />
    <glyph glyph-name="Iacute" unicode="&#xcd;" horiz-adv-x="504" 
d="M102 0l310 1462h98l-309 -1462h-99zM836 1907v-23q-52 -66 -158 -158t-192 -147h-67v21q67 51 151 142t129 165h137z" />
    <glyph glyph-name="Icircumflex" unicode="&#xce;" horiz-adv-x="504" 
d="M102 0l310 1462h98l-309 -1462h-99zM224 1579v29q68 56 158 148t127 151h64q23 -65 73 -153t92 -146v-29h-49q-70 60 -161 207q-120 -124 -250 -207h-54z" />
    <glyph glyph-name="Idieresis" unicode="&#xcf;" horiz-adv-x="504" 
d="M102 0l310 1462h98l-309 -1462h-99zM315 1641q-55 0 -55 56q0 114 77 114q54 0 54 -56t-21 -85t-55 -29zM659 1641q-55 0 -55 56q0 114 77 114q54 0 54 -56t-21 -85t-55 -29z" />
    <glyph glyph-name="Eth" unicode="&#xd0;" horiz-adv-x="1352" 
d="M430 90q226 0 394.5 94.5t261 275.5t92.5 412q0 498 -476 498h-206l-129 -598h378l-20 -96h-379l-125 -586h209zM1288 896q0 -270 -109.5 -478.5t-300.5 -313t-446 -104.5h-330l144 676h-156l21 96h155l146 690h305q282 0 426.5 -148t144.5 -418z" />
    <glyph glyph-name="Ntilde" unicode="&#xd1;" horiz-adv-x="1372" 
d="M1069 0h-86l-516 1284h-8q-23 -149 -48 -273t-214 -1011h-95l310 1462h80l522 -1294h8q23 176 74 416l188 878h94zM1067 1684q84 0 118 131h76q-27 -118 -75 -173t-116 -55t-161 64q-35 23 -65 41t-72 18t-70 -28q-29 -28 -51 -101h-74q40 225 205 225q42 0 74 -14
t100 -61t111 -47z" />
    <glyph glyph-name="Ograve" unicode="&#xd2;" horiz-adv-x="1464" 
d="M895 1389q-191 0 -325 -101t-214 -298q-80 -198 -80 -430t110 -360t319 -128q169 0 300 98t210 300t79 436t-104 359q-104 124 -295 124zM1403 921q0 -265 -94 -491t-252 -338t-365 -112q-250 0 -385 149t-135 421t93 486q93 216 255 332t391 115t361 -149t131 -413z
M989 1579h-66q-50 53 -114 145t-99 162v21h115q46 -129 164 -303v-25z" />
    <glyph glyph-name="Oacute" unicode="&#xd3;" horiz-adv-x="1464" 
d="M895 1389q-191 0 -325 -101t-214 -298q-80 -198 -80 -430t110 -360t319 -128q169 0 300 98t210 300t79 436t-104 359q-104 124 -295 124zM1403 921q0 -265 -94 -491t-252 -338t-365 -112q-250 0 -385 149t-135 421t93 486q93 216 255 332t391 115t361 -149t131 -413z
M1261 1907v-23q-51 -66 -157 -158t-193 -147h-67v21q66 51 150 142t130 165h137z" />
    <glyph glyph-name="Ocircumflex" unicode="&#xd4;" horiz-adv-x="1464" 
d="M895 1389q-191 0 -325 -101t-214 -298q-80 -198 -80 -430t110 -360t319 -128q169 0 300 98t210 300t79 436t-104 359q-104 124 -295 124zM1403 921q0 -265 -94 -491t-252 -338t-365 -112q-250 0 -385 149t-135 421t93 486q93 216 255 332t391 115t361 -149t131 -413z
M657 1579v29q67 56 157 148t128 151h64q22 -65 72 -153t93 -146v-29h-49q-70 60 -161 207q-120 -124 -250 -207h-54z" />
    <glyph glyph-name="Otilde" unicode="&#xd5;" horiz-adv-x="1464" 
d="M895 1389q-191 0 -325 -101t-214 -298q-80 -198 -80 -430t110 -360t319 -128q169 0 300 98t210 300t79 436t-104 359q-104 124 -295 124zM1403 921q0 -265 -94 -491t-252 -338t-365 -112q-250 0 -385 149t-135 421t93 486q93 216 255 332t391 115t361 -149t131 -413z
M1082 1684q84 0 118 131h76q-26 -118 -74 -173t-117 -55q-68 0 -161 64q-34 23 -64 41t-72 18t-71 -28t-51 -101h-74q40 225 205 225q41 0 73 -14t102 -61q68 -47 110 -47z" />
    <glyph glyph-name="Odieresis" unicode="&#xd6;" horiz-adv-x="1464" 
d="M895 1389q-191 0 -325 -101t-214 -298q-80 -198 -80 -430t110 -360t319 -128q169 0 300 98t210 300t79 436t-104 359q-104 124 -295 124zM1403 921q0 -265 -94 -491t-252 -338t-365 -112q-250 0 -385 149t-135 421t93 486q93 216 255 332t391 115t361 -149t131 -413z
M742 1641q-55 0 -55 56q0 114 77 114q54 0 54 -56t-21 -85t-55 -29zM1086 1641q-55 0 -55 56q0 114 77 114q54 0 54 -56t-21 -85t-55 -29z" />
    <glyph glyph-name="multiply" unicode="&#xd7;" 
d="M551 723l-330 332l70 69l330 -329l333 329l68 -67l-332 -334l332 -332l-68 -67l-333 329l-330 -327l-68 67z" />
    <glyph glyph-name="Oslash" unicode="&#xd8;" horiz-adv-x="1464" 
d="M1294 901q0 85 -17.5 172t-43.5 129l-821 -1030q107 -100 285 -100t309 100t209.5 296.5t78.5 432.5zM879 1389q-269 0 -390 -170t-167 -326.5t-46 -290.5q0 -242 78 -358l826 1032q-107 113 -301 113zM1403 874q0 -150 -52 -328.5t-194 -372t-465 -193.5
q-215 0 -348 112l-139 -170l-66 64l146 172q-113 148 -113 406t94 474.5t256 330.5t376 114t347 -121l133 168l70 -53l-145 -183q45 -51 72.5 -160.5t27.5 -259.5z" />
    <glyph glyph-name="Ugrave" unicode="&#xd9;" horiz-adv-x="1370" 
d="M616 -20q-440 0 -440 401q0 83 27 201l186 880h103l-193 -899q-20 -89 -20 -184q0 -309 342 -309q195 0 307 96t159 319l207 977h101l-207 -977q-58 -269 -197 -387t-375 -118zM946 1579h-66q-50 53 -114 145t-99 162v21h115q46 -129 164 -303v-25z" />
    <glyph glyph-name="Uacute" unicode="&#xda;" horiz-adv-x="1370" 
d="M616 -20q-440 0 -440 401q0 83 27 201l186 880h103l-193 -899q-20 -89 -20 -184q0 -309 342 -309q195 0 307 96t159 319l207 977h101l-207 -977q-58 -269 -197 -387t-375 -118zM1255 1907v-23q-51 -66 -157 -158t-193 -147h-67v21q66 51 150 142t130 165h137z" />
    <glyph glyph-name="Ucircumflex" unicode="&#xdb;" horiz-adv-x="1370" 
d="M616 -20q-440 0 -440 401q0 83 27 201l186 880h103l-193 -899q-20 -89 -20 -184q0 -309 342 -309q195 0 307 96t159 319l207 977h101l-207 -977q-58 -269 -197 -387t-375 -118zM634 1579v29q68 56 158 148t127 151h64q23 -65 73 -153t92 -146v-29h-49q-70 60 -161 207
q-120 -124 -250 -207h-54z" />
    <glyph glyph-name="Udieresis" unicode="&#xdc;" horiz-adv-x="1370" 
d="M616 -20q-440 0 -440 401q0 83 27 201l186 880h103l-193 -899q-20 -89 -20 -184q0 -309 342 -309q195 0 307 96t159 319l207 977h101l-207 -977q-58 -269 -197 -387t-375 -118zM733 1641q-55 0 -55 56q0 114 77 114q54 0 54 -56t-21 -85t-55 -29zM1077 1641q-55 0 -55 56
q0 114 77 114q54 0 54 -56t-21 -85t-55 -29z" />
    <glyph glyph-name="Yacute" unicode="&#xdd;" horiz-adv-x="965" 
d="M494 645l544 817h117l-631 -932l-108 -530h-105l119 545l-237 917h100zM980 1907v-23q-52 -66 -158 -158t-192 -147h-67v21q67 51 151 142t129 165h137z" />
    <glyph glyph-name="Thorn" unicode="&#xde;" horiz-adv-x="1145" 
d="M483 428q256 0 376 98.5t120 302.5q0 275 -330 275h-211l-145 -676h190zM1087 836q0 -247 -153 -373.5t-457 -126.5h-201l-71 -336h-103l310 1462h102l-57 -266h213q200 0 308.5 -92.5t108.5 -267.5z" />
    <glyph glyph-name="germandbls" unicode="&#xdf;" horiz-adv-x="1094" 
d="M-144 -492q-91 0 -137 23v90q53 -24 123 -24q137 0 181 204l305 1409q80 357 405 357q137 0 215 -61.5t78 -174.5q0 -75 -45 -140t-159 -145t-148.5 -129t-34.5 -103t33.5 -92t111.5 -88q162 -105 162 -280q0 -176 -106 -275t-268 -99t-253 65v109q45 -36 112.5 -59
t129.5 -23q132 0 208.5 71t76.5 195q0 75 -31.5 129t-111.5 110t-117 108.5t-37 115.5t21 109t60.5 89t139.5 113t130 116t30 108t-55 102.5t-167 40.5t-188 -76t-108 -229l-291 -1377q-33 -152 -103.5 -220.5t-161.5 -68.5z" />
    <glyph glyph-name="agrave" unicode="&#xe0;" horiz-adv-x="1133" 
d="M205 365q0 -295 201 -295q90 0 178 62t158 166t108 230q37 126 37 209t-26 145q-56 136 -204 136q-124 0 -224 -82t-164 -246t-64 -325zM102 354q0 197 75 376q75 178 201 276t277 98q232 0 279 -219h6l59 202h80l-229 -1087h-82l45 274h-6q-174 -294 -424 -294
q-281 0 -281 374zM809 1241h-66q-50 53 -114 145t-99 162v21h115q46 -129 164 -303v-25z" />
    <glyph glyph-name="aacute" unicode="&#xe1;" horiz-adv-x="1133" 
d="M205 365q0 -295 201 -295q90 0 178 62t158 166t108 230q37 126 37 209t-26 145q-56 136 -204 136q-124 0 -224 -82t-164 -246t-64 -325zM102 354q0 197 75 376q75 178 201 276t277 98q232 0 279 -219h6l59 202h80l-229 -1087h-82l45 274h-6q-174 -294 -424 -294
q-281 0 -281 374zM1003 1569v-23q-51 -66 -157 -158t-193 -147h-67v21q66 51 150 142t130 165h137z" />
    <glyph glyph-name="acircumflex" unicode="&#xe2;" horiz-adv-x="1133" 
d="M205 365q0 -295 201 -295q90 0 178 62t158 166t108 230q37 126 37 209t-26 145q-56 136 -204 136q-124 0 -224 -82t-164 -246t-64 -325zM102 354q0 197 75 376q75 178 201 276t277 98q232 0 279 -219h6l59 202h80l-229 -1087h-82l45 274h-6q-174 -294 -424 -294
q-281 0 -281 374zM441 1243v29q67 56 157 148t128 151h64q22 -65 72 -153t93 -146v-29h-49q-70 60 -161 207q-120 -124 -250 -207h-54z" />
    <glyph glyph-name="atilde" unicode="&#xe3;" horiz-adv-x="1133" 
d="M205 365q0 -295 201 -295q90 0 178 62t158 166t108 230q37 126 37 209t-26 145q-56 136 -204 136q-124 0 -224 -82t-164 -246t-64 -325zM102 354q0 197 75 376q75 178 201 276t277 98q232 0 279 -219h6l59 202h80l-229 -1087h-82l45 274h-6q-174 -294 -424 -294
q-281 0 -281 374zM863 1346q84 0 118 131h76q-27 -118 -75 -173t-116 -55t-161 64q-35 23 -65 41t-72 18t-70 -28q-29 -28 -51 -101h-74q40 225 205 225q42 0 74 -14t100 -61t111 -47z" />
    <glyph glyph-name="adieresis" unicode="&#xe4;" horiz-adv-x="1133" 
d="M205 365q0 -295 201 -295q90 0 178 62t158 166t108 230q37 126 37 209t-26 145q-56 136 -204 136q-124 0 -224 -82t-164 -246t-64 -325zM102 354q0 197 75 376q75 178 201 276t277 98q232 0 279 -219h6l59 202h80l-229 -1087h-82l45 274h-6q-174 -294 -424 -294
q-281 0 -281 374zM546 1303q-55 0 -55 56q0 114 77 114q54 0 54 -56t-21 -85t-55 -29zM890 1303q-55 0 -55 56q0 114 77 114q54 0 54 -56t-21 -85t-55 -29z" />
    <glyph glyph-name="aring" unicode="&#xe5;" horiz-adv-x="1133" 
d="M205 365q0 -295 201 -295q90 0 178 62t158 166t108 230q37 126 37 209t-26 145q-56 136 -204 136q-124 0 -224 -82t-164 -246t-64 -325zM102 354q0 197 75 376q75 178 201 276t277 98q232 0 279 -219h6l59 202h80l-229 -1087h-82l45 274h-6q-174 -294 -424 -294
q-281 0 -281 374zM849 1446q1 57 -33 90t-91 33t-91 -36t-33 -93q0 -57 33 -90q34 -33 90 -33t90 36t35 93zM927 1448q1 -92 -57 -148t-148 -57q-90 0 -146 52q-55 53 -55 143q-1 90 59 146t149 56t143 -50t55 -142z" />
    <glyph glyph-name="ae" unicode="&#xe6;" horiz-adv-x="1602" 
d="M1317 1018q-119 0 -232 -115.5t-172 -308.5h48q263 0 383 67t120 203q0 71 -38.5 112.5t-108.5 41.5zM831 764q1 254 -205 254q-108 0 -208 -86t-156.5 -240t-56.5 -340q0 -282 164 -282q140 0 270.5 157t161 316.5t30.5 220.5zM342 -20q-116 0 -178 94t-62 285
t70.5 369.5t192.5 277t274 98.5q106 0 166 -56.5t74 -156.5h10l59 192h66l-35 -186q139 207 350 207q112 0 175 -61.5t63 -172.5q0 -179 -158.5 -271.5t-470.5 -92.5h-39q-8 -51 -8 -96q0 -340 287 -340q109 0 264 73v-94q-149 -69 -280 -69q-130 0 -218 60t-117 165
l-39 -205h-77l41 254h-9q-94 -142 -189.5 -208t-211.5 -66z" />
    <glyph glyph-name="ccedilla" unicode="&#xe7;" horiz-adv-x="887" 
d="M488 70q136 0 262 59v-92q-107 -53 -249 -57l-67 -117q140 -30 140 -152q0 -95 -76 -149t-217 -54q-46 0 -78 7v79q30 -6 72 -6q198 0 198 115q0 97 -151 107l100 173q-136 15 -228 117t-92 296t74 362t198 258q124 88 274 88t257 -43l-28 -90q-107 47 -227 47t-224 -77
t-162 -222q-59 -145 -59 -311q-1 -166 73 -252t210 -86z" />
    <glyph glyph-name="egrave" unicode="&#xe8;" horiz-adv-x="928" 
d="M631 1018q-131 0 -243 -116t-163 -308h49q517 0 517 270q1 66 -43 110t-117 44zM462 -20q-166 0 -263 110t-97 298t71 354t195 264t257 98q132 0 200 -61t68 -166q1 -181 -163 -276t-486 -95h-33q-6 -44 -6 -98q0 -166 74 -252q73 -86 209 -86t280 73v-94
q-140 -69 -306 -69zM751 1241h-66q-50 53 -114 145t-99 162v21h115q46 -129 164 -303v-25z" />
    <glyph glyph-name="eacute" unicode="&#xe9;" horiz-adv-x="928" 
d="M631 1018q-131 0 -243 -116t-163 -308h49q517 0 517 270q1 66 -43 110t-117 44zM462 -20q-166 0 -263 110t-97 298t71 354t195 264t257 98q132 0 200 -61t68 -166q1 -181 -163 -276t-486 -95h-33q-6 -44 -6 -98q0 -166 74 -252q73 -86 209 -86t280 73v-94
q-140 -69 -306 -69zM949 1569v-23q-51 -66 -157 -158t-193 -147h-67v21q66 51 150 142t130 165h137z" />
    <glyph glyph-name="ecircumflex" unicode="&#xea;" horiz-adv-x="928" 
d="M631 1018q-131 0 -243 -116t-163 -308h49q517 0 517 270q1 66 -43 110t-117 44zM462 -20q-166 0 -263 110t-97 298t71 354t195 264t257 98q132 0 200 -61t68 -166q1 -181 -163 -276t-486 -95h-33q-6 -44 -6 -98q0 -166 74 -252q73 -86 209 -86t280 73v-94
q-140 -69 -306 -69zM390 1241v29q68 56 158 148t127 151h64q23 -65 73 -153t92 -146v-29h-49q-70 60 -161 207q-120 -124 -250 -207h-54z" />
    <glyph glyph-name="edieresis" unicode="&#xeb;" horiz-adv-x="928" 
d="M631 1018q-131 0 -243 -116t-163 -308h49q517 0 517 270q1 66 -43 110t-117 44zM462 -20q-166 0 -263 110t-97 298t71 354t195 264t257 98q132 0 200 -61t68 -166q1 -181 -163 -276t-486 -95h-33q-6 -44 -6 -98q0 -166 74 -252q73 -86 209 -86t280 73v-94
q-140 -69 -306 -69zM491 1303q-55 0 -55 56q0 114 77 114q54 0 54 -56t-21 -85t-55 -29zM835 1303q-55 0 -55 56q0 114 77 114q54 0 54 -56t-21 -85t-55 -29z" />
    <glyph glyph-name="igrave" unicode="&#xec;" horiz-adv-x="475" 
d="M174 0h-98l231 1087h96zM454 1241h-66q-50 53 -114 145t-99 162v21h115q46 -129 164 -303v-25z" />
    <glyph glyph-name="iacute" unicode="&#xed;" horiz-adv-x="475" 
d="M174 0h-98l231 1087h96zM701 1569v-23q-51 -66 -157 -158t-193 -147h-67v21q66 51 150 142t130 165h137z" />
    <glyph glyph-name="icircumflex" unicode="&#xee;" horiz-adv-x="475" 
d="M174 0h-98l231 1087h96zM128 1241v29q68 56 158 148t127 151h64q23 -65 73 -153t92 -146v-29h-49q-70 60 -161 207q-120 -124 -250 -207h-54z" />
    <glyph glyph-name="idieresis" unicode="&#xef;" horiz-adv-x="475" 
d="M174 0h-98l231 1087h96zM226 1303q-55 0 -55 56q0 114 77 114q54 0 54 -56t-21 -85t-55 -29zM570 1303q-55 0 -55 56q0 114 77 114q54 0 54 -56t-21 -85t-55 -29z" />
    <glyph glyph-name="eth" unicode="&#xf0;" horiz-adv-x="1124" 
d="M480 70q128 0 218 61t143.5 186.5t53.5 270.5q0 77 -54.5 178.5t-236.5 101.5q-124 0 -213.5 -61.5t-137.5 -170t-48 -254.5t73.5 -229t201.5 -83zM1020 735q0 -355 -141.5 -555t-399.5 -200q-177 0 -277 106.5t-100 285.5t63 310.5t178.5 203.5t242.5 72q246 0 329 -192
h5q0 139 -43 289t-115 243l-295 -163l-39 73l285 156q-54 60 -158 139l59 68q128 -104 181 -160l266 150l39 -74l-256 -141q87 -116 131.5 -276t44.5 -335z" />
    <glyph glyph-name="ntilde" unicode="&#xf1;" horiz-adv-x="1143" 
d="M934 856q0 72 -44 117t-144 45q-102 0 -200 -67q-196 -133 -270 -474l-102 -477h-98l231 1087h82l-37 -221h6q164 238 416 238q130 0 195 -64t65 -184q0 -70 -24 -182l-148 -674h-98l149 692q21 92 21 164zM879 1346q84 0 118 131h76q-27 -118 -75 -173t-116 -55t-161 64
q-35 23 -65 41t-72 18t-70 -28q-29 -28 -51 -101h-74q40 225 205 225q42 0 74 -14t100 -61t111 -47z" />
    <glyph glyph-name="ograve" unicode="&#xf2;" horiz-adv-x="1124" 
d="M648 1022q-130 0 -230 -78q-99 -78 -158 -226q-59 -146 -59 -310q0 -342 282 -342q127 0 225 78t158 228q58 150 58 317t-73 250t-203 83zM660 1108q168 0 268 -108q98 -108 98 -303q0 -193 -72 -365t-195 -262q-124 -90 -297 -90q-172 0 -268 110t-96 306q0 198 73 365
t197 257t292 90zM744 1241h-66q-50 53 -114 145t-99 162v21h115q46 -129 164 -303v-25z" />
    <glyph glyph-name="oacute" unicode="&#xf3;" horiz-adv-x="1124" 
d="M648 1022q-130 0 -230 -78q-99 -78 -158 -226q-59 -146 -59 -310q0 -342 282 -342q127 0 225 78t158 228q58 150 58 317t-73 250t-203 83zM660 1108q168 0 268 -108q98 -108 98 -303q0 -193 -72 -365t-195 -262q-124 -90 -297 -90q-172 0 -268 110t-96 306q0 198 73 365
t197 257t292 90zM990 1569v-23q-52 -66 -158 -158t-192 -147h-67v21q67 51 151 142t129 165h137z" />
    <glyph glyph-name="ocircumflex" unicode="&#xf4;" horiz-adv-x="1124" 
d="M648 1022q-130 0 -230 -78q-99 -78 -158 -226q-59 -146 -59 -310q0 -342 282 -342q127 0 225 78t158 228q58 150 58 317t-73 250t-203 83zM660 1108q168 0 268 -108q98 -108 98 -303q0 -193 -72 -365t-195 -262q-124 -90 -297 -90q-172 0 -268 110t-96 306q0 198 73 365
t197 257t292 90zM427 1241v29q67 56 157 148t128 151h64q22 -65 72 -153t93 -146v-29h-49q-70 60 -161 207q-120 -124 -250 -207h-54z" />
    <glyph glyph-name="otilde" unicode="&#xf5;" horiz-adv-x="1124" 
d="M648 1022q-130 0 -230 -78q-99 -78 -158 -226q-59 -146 -59 -310q0 -342 282 -342q127 0 225 78t158 228q58 150 58 317t-73 250t-203 83zM660 1108q168 0 268 -108q98 -108 98 -303q0 -193 -72 -365t-195 -262q-124 -90 -297 -90q-172 0 -268 110t-96 306q0 198 73 365
t197 257t292 90zM844 1346q84 0 118 131h76q-26 -118 -74 -173t-117 -55q-68 0 -161 64q-34 23 -64 41t-72 18t-71 -28t-51 -101h-74q40 225 205 225q41 0 73 -14t102 -61q68 -47 110 -47z" />
    <glyph glyph-name="odieresis" unicode="&#xf6;" horiz-adv-x="1124" 
d="M648 1022q-130 0 -230 -78q-99 -78 -158 -226q-59 -146 -59 -310q0 -342 282 -342q127 0 225 78t158 228q58 150 58 317t-73 250t-203 83zM660 1108q168 0 268 -108q98 -108 98 -303q0 -193 -72 -365t-195 -262q-124 -90 -297 -90q-172 0 -268 110t-96 306q0 198 73 365
t197 257t292 90zM523 1303q-55 0 -55 56q0 114 77 114q54 0 54 -56t-21 -85t-55 -29zM867 1303q-55 0 -55 56q0 114 77 114q54 0 54 -56t-21 -85t-55 -29z" />
    <glyph glyph-name="divide" unicode="&#xf7;" 
d="M618 965q-96 1 -96 107t96 106q46 0 72.5 -28t26.5 -82t-29 -78.5t-70 -24.5zM618 266q-96 0 -96 106t98 107q98 0 97 -106q0 -57 -29 -82t-70 -25zM168 672v100h903v-100h-903z" />
    <glyph glyph-name="oslash" unicode="&#xf8;" horiz-adv-x="1124" 
d="M640 1022q-124 0 -222.5 -78.5t-157.5 -225t-59 -290.5t32 -217l605 739q-74 72 -198 72zM924 702q0 101 -35 179l-608 -742q67 -73 198 -73t229.5 77.5t157 228t58.5 330.5zM98 414q0 180 73 347t197 257t278 90t253 -82l109 133l65 -53l-117 -143q70 -105 70 -283
t-71.5 -349t-196 -261t-286.5 -90t-253 83l-110 -135l-64 54l119 145q-66 107 -66 287z" />
    <glyph glyph-name="ugrave" unicode="&#xf9;" horiz-adv-x="1143" 
d="M207 220q-1 -62 47 -106t148 -44t198 66q193 130 264 466l105 485h98l-231 -1087h-80l28 205h-6q-167 -221 -403 -221q-131 0 -199 62t-67 181q0 60 22 170l150 690h100l-152 -698q-22 -106 -22 -169zM774 1241h-66q-50 53 -114 145t-99 162v21h115q46 -129 164 -303v-25
z" />
    <glyph glyph-name="uacute" unicode="&#xfa;" horiz-adv-x="1143" 
d="M207 220q-1 -62 47 -106t148 -44t198 66q193 130 264 466l105 485h98l-231 -1087h-80l28 205h-6q-167 -221 -403 -221q-131 0 -199 62t-67 181q0 60 22 170l150 690h100l-152 -698q-22 -106 -22 -169zM1044 1569v-23q-52 -66 -158 -158t-192 -147h-67v21q67 51 151 142
t129 165h137z" />
    <glyph glyph-name="ucircumflex" unicode="&#xfb;" horiz-adv-x="1143" 
d="M207 220q-1 -62 47 -106t148 -44t198 66q193 130 264 466l105 485h98l-231 -1087h-80l28 205h-6q-167 -221 -403 -221q-131 0 -199 62t-67 181q0 60 22 170l150 690h100l-152 -698q-22 -106 -22 -169zM443 1241v29q67 56 157 148t128 151h64q22 -65 72 -153t93 -146v-29
h-49q-70 60 -161 207q-120 -124 -250 -207h-54z" />
    <glyph glyph-name="udieresis" unicode="&#xfc;" horiz-adv-x="1143" 
d="M207 220q-1 -62 47 -106t148 -44t198 66q193 130 264 466l105 485h98l-231 -1087h-80l28 205h-6q-167 -221 -403 -221q-131 0 -199 62t-67 181q0 60 22 170l150 690h100l-152 -698q-22 -106 -22 -169zM538 1303q-55 0 -55 56q0 114 77 114q54 0 54 -56t-21 -85t-55 -29z
M882 1303q-55 0 -55 56q0 114 77 114q54 0 54 -56t-21 -85t-55 -29z" />
    <glyph glyph-name="yacute" unicode="&#xfd;" horiz-adv-x="920" 
d="M-80 -492q-76 0 -137 21v92q71 -27 144 -27t140 50t130 164q63 115 100 184l-174 1095h100l82 -548q51 -351 55 -449h11q43 105 186 367l348 630h103l-713 -1290q-73 -127 -123 -178t-114 -81q-62 -30 -138 -30zM922 1569v-23q-52 -66 -158 -158t-192 -147h-67v21
q67 51 151 142t129 165h137z" />
    <glyph glyph-name="thorn" unicode="&#xfe;" horiz-adv-x="1163" 
d="M748 1018q-181 0 -296 -169.5t-150.5 -295.5t-35.5 -229t61 -178.5t177 -75.5t217 84t164 243.5t63 325.5q0 295 -200 295zM772 1108q133 0 206 -93t73 -285t-72 -368t-197.5 -277t-283.5 -101q-230 0 -279 219h-4q-13 -72 -149 -695h-99l434 2048h99
q-114 -535 -164 -751h6q181 303 430 303z" />
    <glyph glyph-name="ydieresis" unicode="&#xff;" horiz-adv-x="920" 
d="M-80 -492q-76 0 -137 21v92q71 -27 144 -27t140 50t130 164q63 115 100 184l-174 1095h100l82 -548q51 -351 55 -449h11q43 105 186 367l348 630h103l-713 -1290q-73 -127 -123 -178t-114 -81q-62 -30 -138 -30zM409 1303q-55 0 -55 56q0 114 77 114q54 0 54 -56t-21 -85
t-55 -29zM753 1303q-55 0 -55 56q0 114 77 114q54 0 54 -56t-21 -85t-55 -29z" />
    <glyph glyph-name="Amacron" unicode="&#x100;" horiz-adv-x="1059" 
d="M793 612l-39 291q-31 242 -39 402q-60 -125 -371 -693h449zM805 520h-512l-287 -520h-117l822 1468h67l201 -1468h-105zM512 1671h508l-18 -88h-508z" />
    <glyph glyph-name="amacron" unicode="&#x101;" horiz-adv-x="1133" 
d="M205 365q0 -295 201 -295q90 0 178 62t158 166t108 230q37 126 37 209t-26 145q-56 136 -204 136q-124 0 -224 -82t-164 -246t-64 -325zM102 354q0 197 75 376q75 178 201 276t277 98q232 0 279 -219h6l59 202h80l-229 -1087h-82l45 274h-6q-174 -294 -424 -294
q-281 0 -281 374zM469 1333h508l-18 -88h-508z" />
    <glyph glyph-name="Abreve" unicode="&#x102;" horiz-adv-x="1059" 
d="M793 612l-39 291q-31 242 -39 402q-60 -125 -371 -693h449zM805 520h-512l-287 -520h-117l822 1468h67l201 -1468h-105zM529 1778v21l2 20h69q0 -68 36 -103t122 -35q86 1 136 31q52 30 77 107h72q-57 -234 -293 -234q-105 1 -163 51t-58 142z" />
    <glyph glyph-name="abreve" unicode="&#x103;" horiz-adv-x="1133" 
d="M205 365q0 -295 201 -295q90 0 178 62t158 166t108 230q37 126 37 209t-26 145q-56 136 -204 136q-124 0 -224 -82t-164 -246t-64 -325zM102 354q0 197 75 376q75 178 201 276t277 98q232 0 279 -219h6l59 202h80l-229 -1087h-82l45 274h-6q-174 -294 -424 -294
q-281 0 -281 374zM506 1440v21l2 20h69q0 -68 36 -103q35 -35 121 -35q86 1 138 31t76 107h72q-57 -234 -293 -234q-105 1 -163 51t-58 142z" />
    <glyph glyph-name="Aogonek" unicode="&#x104;" horiz-adv-x="1059" 
d="M793 612l-39 291q-31 242 -39 402q-60 -125 -371 -693h449zM750 -256q0 -82 88 -82q33 0 76 10v-71q-41 -15 -107 -15q-65 0 -107 38t-42 108t48 132q48 64 169 136h-1l-69 520h-512l-287 -520h-117l822 1468h67l201 -1468h-32l-75 -60q-122 -94 -122 -196z" />
    <glyph glyph-name="aogonek" unicode="&#x105;" horiz-adv-x="1133" 
d="M205 365q0 -295 201 -295q90 0 178 62t158 166t108 230q37 126 37 209t-26 145q-56 136 -204 136q-124 0 -224 -82t-164 -246t-64 -325zM102 354q0 197 75 376q75 178 201 276t277 98q232 0 279 -219h6l59 202h80l-229 -1087h-10l-75 -60q-122 -94 -122 -196
q0 -82 88 -82q33 0 76 10v-71q-41 -15 -107 -15t-108 38t-41 108q0 70 48 132q48 64 169 136l45 274h-6q-174 -294 -424 -294q-281 0 -281 374z" />
    <glyph glyph-name="Cacute" unicode="&#x106;" horiz-adv-x="1169" 
d="M961 1389q-197 -1 -351 -105t-246 -304q-90 -200 -90 -433t110 -354t318 -121q140 0 304 51v-94q-156 -49 -316 -49q-252 0 -386 145t-134 411t104 487q104 222 285 341q179 119 379 119t330 -68l-45 -90q-117 64 -262 64zM1273 1907v-23q-51 -66 -157 -158t-193 -147
h-67v21q66 51 150 142t130 165h137z" />
    <glyph glyph-name="cacute" unicode="&#x107;" horiz-adv-x="887" 
d="M488 70q136 0 262 59v-92q-116 -57 -282 -57t-266 110t-100 306q0 194 74 362t198 258q124 88 274 88t257 -43l-28 -90q-107 47 -227 47t-224 -77t-162 -222q-59 -145 -59 -311q-1 -166 73 -252t210 -86zM994 1569v-23q-52 -66 -158 -158t-192 -147h-67v21q67 51 151 142
t129 165h137z" />
    <glyph glyph-name="Ccircumflex" unicode="&#x108;" horiz-adv-x="1169" 
d="M961 1389q-197 -1 -351 -105t-246 -304q-90 -200 -90 -433t110 -354t318 -121q140 0 304 51v-94q-156 -49 -316 -49q-252 0 -386 145t-134 411t104 487q104 222 285 341q179 119 379 119t330 -68l-45 -90q-117 64 -262 64zM657 1579v29q67 56 157 148t128 151h64
q22 -65 72 -153t93 -146v-29h-49q-70 60 -161 207q-120 -124 -250 -207h-54z" />
    <glyph glyph-name="ccircumflex" unicode="&#x109;" horiz-adv-x="887" 
d="M488 70q136 0 262 59v-92q-116 -57 -282 -57t-266 110t-100 306q0 194 74 362t198 258q124 88 274 88t257 -43l-28 -90q-107 47 -227 47t-224 -77t-162 -222q-59 -145 -59 -311q-1 -166 73 -252t210 -86zM394 1241v29q68 56 158 148t127 151h64q23 -65 73 -153t92 -146
v-29h-49q-70 60 -161 207q-120 -124 -250 -207h-54z" />
    <glyph glyph-name="Cdot" unicode="&#x10a;" horiz-adv-x="1169" 
d="M961 1389q-197 -1 -351 -105t-246 -304q-90 -200 -90 -433t110 -354t318 -121q140 0 304 51v-94q-156 -49 -316 -49q-252 0 -386 145t-134 411t104 487q104 222 285 341q179 119 379 119t330 -68l-45 -90q-117 64 -262 64zM907 1630q-59 0 -59 65q0 130 82 130
q57 0 57 -65q-1 -66 -23 -98t-57 -32z" />
    <glyph glyph-name="cdot" unicode="&#x10b;" horiz-adv-x="887" 
d="M488 70q136 0 262 59v-92q-116 -57 -282 -57t-266 110t-100 306q0 194 74 362t198 258q124 88 274 88t257 -43l-28 -90q-107 47 -227 47t-224 -77t-162 -222q-59 -145 -59 -311q-1 -166 73 -252t210 -86zM702 1292q-59 0 -59 65q0 130 82 130q57 0 57 -65q0 -66 -22 -98
t-58 -32z" />
    <glyph glyph-name="Ccaron" unicode="&#x10c;" horiz-adv-x="1169" 
d="M961 1389q-197 -1 -351 -105t-246 -304q-90 -200 -90 -433t110 -354t318 -121q140 0 304 51v-94q-156 -49 -316 -49q-252 0 -386 145t-134 411t104 487q104 222 285 341q179 119 379 119t330 -68l-45 -90q-117 64 -262 64zM680 1907h49q72 -61 162 -207q120 124 250 207
h53v-29q-68 -55 -156 -146t-129 -153h-63q-62 157 -166 299v29z" />
    <glyph glyph-name="ccaron" unicode="&#x10d;" horiz-adv-x="887" 
d="M488 70q136 0 262 59v-92q-116 -57 -282 -57t-266 110t-100 306q0 194 74 362t198 258q124 88 274 88t257 -43l-28 -90q-107 47 -227 47t-224 -77t-162 -222q-59 -145 -59 -311q-1 -166 73 -252t210 -86zM449 1569h49q72 -61 162 -207q120 124 250 207h53v-29
q-67 -55 -155 -146t-130 -153h-63q-62 157 -166 299v29z" />
    <glyph glyph-name="Dcaron" unicode="&#x10e;" horiz-adv-x="1350" 
d="M430 90q226 0 394 94t262 276q92 181 92 412q0 498 -476 498h-206l-275 -1280h209zM1288 896q0 -270 -110 -478t-300 -314q-191 -104 -446 -104h-330l310 1462h305q283 0 427 -148t144 -418zM608 1907h49q72 -61 162 -207q120 124 250 207h53v-29q-68 -55 -156 -146
t-129 -153h-63q-62 157 -166 299v29z" />
    <glyph glyph-name="dcaron" unicode="&#x10f;" horiz-adv-x="1133" 
d="M406 70q88 0 178 62t160 168t107 232q36 126 36 230q1 104 -61 180t-178 76t-215 -83q-100 -83 -164 -243t-64 -327q0 -295 201 -295zM655 1104q230 0 279 -219h4q12 66 143 671h99l-330 -1556h-82l45 274h-6q-173 -294 -424 -294q-281 0 -281 374q0 193 72 370
q72 176 197 278q126 102 284 102zM1513 1556v-20q-9 -39 -79 -146t-129 -161h-48v26q36 47 88 147t72 154h96z" />
    <glyph glyph-name="Dcroat" unicode="&#x110;" horiz-adv-x="1352" 
d="M430 90q226 0 394 94t262 276q92 181 92 412q0 498 -476 498h-206l-129 -598h378l-20 -96h-379l-125 -586h209zM1288 896q0 -270 -110 -478t-300 -314q-191 -104 -446 -104h-330l144 676h-156l21 96h155l146 690h305q283 0 427 -148t144 -418z" />
    <glyph glyph-name="dcroat" unicode="&#x111;" horiz-adv-x="1163" 
d="M406 70q89 0 178.5 62.5t160 168t106.5 231t36 230.5t-61.5 180.5t-177.5 75.5t-215.5 -83t-163.5 -242.5t-64 -327.5q0 -295 201 -295zM655 1104q227 0 279 -219h4q7 42 82 387h-404l21 84h401l43 200h99l-43 -200h157l-20 -84h-154l-270 -1272h-82l45 274h-6
q-173 -294 -424 -294q-281 0 -281 374q0 193 71.5 370t197.5 278.5t284 101.5z" />
    <glyph glyph-name="Emacron" unicode="&#x112;" horiz-adv-x="1067" 
d="M829 0h-727l310 1462h727l-21 -94h-624l-117 -553h590l-21 -94h-588l-135 -627h627zM543 1671h508l-18 -88h-508z" />
    <glyph glyph-name="emacron" unicode="&#x113;" horiz-adv-x="928" 
d="M631 1018q-131 0 -243 -116t-163 -308h49q517 0 517 270q1 66 -43 110t-117 44zM462 -20q-166 0 -263 110t-97 298t71 354t195 264t257 98q132 0 200 -61t68 -166q1 -181 -163 -276t-486 -95h-33q-6 -44 -6 -98q0 -166 74 -252q73 -86 209 -86t280 73v-94
q-140 -69 -306 -69zM419 1333h508l-18 -88h-508z" />
    <glyph glyph-name="Ebreve" unicode="&#x114;" horiz-adv-x="1067" 
d="M829 0h-727l310 1462h727l-21 -94h-624l-117 -553h590l-21 -94h-588l-135 -627h627zM574 1778v21l2 20h69q0 -68 36 -103q35 -35 121 -35q86 1 138 31t76 107h72q-57 -234 -293 -234q-105 1 -163 51t-58 142z" />
    <glyph glyph-name="ebreve" unicode="&#x115;" horiz-adv-x="928" 
d="M631 1018q-131 0 -243 -116t-163 -308h49q517 0 517 270q1 66 -43 110t-117 44zM462 -20q-166 0 -263 110t-97 298t71 354t195 264t257 98q132 0 200 -61t68 -166q1 -181 -163 -276t-486 -95h-33q-6 -44 -6 -98q0 -166 74 -252q73 -86 209 -86t280 73v-94
q-140 -69 -306 -69zM432 1440v21l2 20h69q0 -68 36 -103q35 -35 121 -35q86 1 138 31t76 107h72q-57 -234 -293 -234q-105 1 -163 51t-58 142z" />
    <glyph glyph-name="Edotaccent" unicode="&#x116;" horiz-adv-x="1067" 
d="M829 0h-727l310 1462h727l-21 -94h-624l-117 -553h590l-21 -94h-588l-135 -627h627zM793 1601q-59 0 -59 65q0 130 82 130q57 0 57 -65q-1 -65 -23 -97t-57 -33z" />
    <glyph glyph-name="edotaccent" unicode="&#x117;" horiz-adv-x="928" 
d="M631 1018q-131 0 -243 -116t-163 -308h49q517 0 517 270q1 66 -43 110t-117 44zM462 -20q-166 0 -263 110t-97 298t71 354t195 264t257 98q132 0 200 -61t68 -166q1 -181 -163 -276t-486 -95h-33q-6 -44 -6 -98q0 -166 74 -252q73 -86 209 -86t280 73v-94
q-140 -69 -306 -69zM633 1292q-59 0 -59 65q0 130 82 130q57 0 57 -65q-1 -66 -23 -98t-57 -32z" />
    <glyph glyph-name="Eogonek" unicode="&#x118;" horiz-adv-x="1067" 
d="M545 -256q0 -82 88 -82q33 0 76 10v-71q-41 -15 -107 -15t-108 38t-41 108q0 70 48 132q48 64 169 136h-568l310 1462h727l-21 -94h-624l-117 -553h590l-21 -94h-588l-135 -627h627l-21 -94h-87l-75 -60q-122 -94 -122 -196z" />
    <glyph glyph-name="eogonek" unicode="&#x119;" horiz-adv-x="928" 
d="M631 1018q-131 0 -243 -116t-163 -308h49q517 0 517 270q1 66 -43 110t-117 44zM102 388q0 188 71 354t195 264t257 98q132 0 200 -61t68 -166q1 -181 -163 -276t-486 -95h-33q-6 -44 -6 -98q0 -166 74 -252q73 -86 209 -86t280 73v-94q-46 -23 -94 -38l-50 -40
q-122 -94 -122 -196q0 -82 88 -82q33 0 76 10v-71q-41 -15 -107 -15q-65 0 -107 38q-42 37 -42 107t40 123t106 100q-43 -5 -87 -5q-173 0 -270 110t-97 298z" />
    <glyph glyph-name="Ecaron" unicode="&#x11a;" horiz-adv-x="1067" 
d="M829 0h-727l310 1462h727l-21 -94h-624l-117 -553h590l-21 -94h-588l-135 -627h627zM582 1907h49q72 -61 162 -207q120 124 250 207h53v-29q-68 -55 -156 -146t-129 -153h-63q-62 157 -166 299v29z" />
    <glyph glyph-name="ecaron" unicode="&#x11b;" horiz-adv-x="928" 
d="M631 1018q-131 0 -243 -116t-163 -308h49q517 0 517 270q1 66 -43 110t-117 44zM462 -20q-166 0 -263 110t-97 298t71 354t195 264t257 98q132 0 200 -61t68 -166q1 -181 -163 -276t-486 -95h-33q-6 -44 -6 -98q0 -166 74 -252q73 -86 209 -86t280 73v-94
q-140 -69 -306 -69zM445 1569h49q72 -61 162 -207q120 124 250 207h53v-29q-67 -55 -155 -146t-130 -153h-63q-62 157 -166 299v29z" />
    <glyph glyph-name="Gcircumflex" unicode="&#x11c;" horiz-adv-x="1374" 
d="M707 -20q-257 0 -397 146t-140 416t105 488t283 336q178 117 389 117q210 0 394 -78l-38 -94q-109 46 -189 62t-168 16q-184 1 -339 -107t-244 -302t-89 -428t114 -357t327 -123q155 0 309 47l117 526h-303l18 90h406l-150 -682q-211 -73 -405 -73zM663 1579v29
q67 56 157 148t128 151h64q22 -65 72 -153t93 -146v-29h-49q-70 60 -161 207q-120 -124 -250 -207h-54z" />
    <glyph glyph-name="gcircumflex" unicode="&#x11d;" horiz-adv-x="1040" 
d="M285 694q1 -96 59 -153q58 -58 155 -58t163 37t102 114t37 175q0 97 -56 155t-153 58t-165 -43t-105 -116t-37 -169zM14 -208q0 -100 81 -149t254 -49t287 74t114 205q0 85 -62 131t-219 57l-160 15q-157 -44 -226 -114t-69 -170zM334 442q-150 76 -150 274q0 100 54 193
t148 146t184 53t169 -21h361l-17 -79l-243 -11q26 -28 44 -84t17 -114q-1 -109 -55 -207q-108 -194 -361 -193q-63 0 -77 9q-168 -69 -168 -154q0 -40 32 -64t113 -32l121 -11q346 -31 346 -264q0 -111 -65 -197q-135 -177 -478 -178q-185 0 -291 72t-106 203q0 236 309 334
q-78 42 -78 123q0 123 191 202zM384 1241v29q68 56 158 148t127 151h64q23 -65 73 -153t92 -146v-29h-49q-70 60 -161 207q-120 -124 -250 -207h-54z" />
    <glyph glyph-name="Gbreve" unicode="&#x11e;" horiz-adv-x="1374" 
d="M707 -20q-257 0 -397 146t-140 416t105 488t283 336q178 117 389 117q210 0 394 -78l-38 -94q-109 46 -189 62t-168 16q-184 1 -339 -107t-244 -302t-89 -428t114 -357t327 -123q155 0 309 47l117 526h-303l18 90h406l-150 -682q-211 -73 -405 -73zM703 1778v21l2 20h69
q0 -68 36 -103t122 -35q86 1 136 31q52 30 77 107h72q-57 -234 -293 -234q-105 1 -163 51t-58 142z" />
    <glyph glyph-name="gbreve" unicode="&#x11f;" horiz-adv-x="1040" 
d="M285 694q1 -96 59 -153q58 -58 155 -58t163 37t102 114t37 175q0 97 -56 155t-153 58t-165 -43t-105 -116t-37 -169zM14 -208q0 -100 81 -149t254 -49t287 74t114 205q0 85 -62 131t-219 57l-160 15q-157 -44 -226 -114t-69 -170zM334 442q-150 76 -150 274q0 100 54 193
t148 146t184 53t169 -21h361l-17 -79l-243 -11q26 -28 44 -84t17 -114q-1 -109 -55 -207q-108 -194 -361 -193q-63 0 -77 9q-168 -69 -168 -154q0 -40 32 -64t113 -32l121 -11q346 -31 346 -264q0 -111 -65 -197q-135 -177 -478 -178q-185 0 -291 72t-106 203q0 236 309 334
q-78 42 -78 123q0 123 191 202zM407 1440v21l2 20h69q0 -68 36 -103t122 -35q86 1 136 31q52 30 77 107h72q-57 -234 -293 -234q-105 1 -163 51t-58 142z" />
    <glyph glyph-name="Gdot" unicode="&#x120;" horiz-adv-x="1374" 
d="M707 -20q-257 0 -397 146t-140 416t105 488t283 336q178 117 389 117q210 0 394 -78l-38 -94q-109 46 -189 62t-168 16q-184 1 -339 -107t-244 -302t-89 -428t114 -357t327 -123q155 0 309 47l117 526h-303l18 90h406l-150 -682q-211 -73 -405 -73zM928 1630
q-59 0 -59 65q0 130 82 130q57 0 57 -65q0 -66 -22 -98t-58 -32z" />
    <glyph glyph-name="gdot" unicode="&#x121;" horiz-adv-x="1040" 
d="M285 694q1 -96 59 -153q58 -58 155 -58t163 37t102 114t37 175q0 97 -56 155t-153 58t-165 -43t-105 -116t-37 -169zM14 -208q0 -100 81 -149t254 -49t287 74t114 205q0 85 -62 131t-219 57l-160 15q-157 -44 -226 -114t-69 -170zM334 442q-150 76 -150 274q0 100 54 193
t148 146t184 53t169 -21h361l-17 -79l-243 -11q26 -28 44 -84t17 -114q-1 -109 -55 -207q-108 -194 -361 -193q-63 0 -77 9q-168 -69 -168 -154q0 -40 32 -64t113 -32l121 -11q346 -31 346 -264q0 -111 -65 -197q-135 -177 -478 -178q-185 0 -291 72t-106 203q0 236 309 334
q-78 42 -78 123q0 123 191 202zM664 1292q-59 0 -59 65q0 130 82 130q57 0 57 -65q0 -66 -22 -98t-58 -32z" />
    <glyph glyph-name="Gcommaaccent" unicode="&#x122;" horiz-adv-x="1374" 
d="M707 -20q-257 0 -397 146t-140 416t105 488t283 336q178 117 389 117q210 0 394 -78l-38 -94q-109 46 -189 62t-168 16q-184 1 -339 -107t-244 -302t-89 -428t114 -357t327 -123q155 0 309 47l117 526h-303l18 90h406l-150 -682q-211 -73 -405 -73zM717 -125v-20
q-9 -39 -79 -145t-130 -163h-47v27q33 44 85 142t75 159h96z" />
    <glyph glyph-name="gcommaaccent" unicode="&#x123;" horiz-adv-x="1040" 
d="M285 694q1 -96 59 -153q58 -58 155 -58t163 37t102 114t37 175q0 97 -56 155t-153 58t-165 -43t-105 -116t-37 -169zM14 -208q0 -100 81 -149t254 -49t287 74t114 205q0 85 -62 131t-219 57l-160 15q-157 -44 -226 -114t-69 -170zM334 442q-150 76 -150 274q0 100 54 193
t148 146t184 53t169 -21h361l-17 -79l-243 -11q26 -28 44 -84t17 -114q-1 -109 -55 -207q-108 -194 -361 -193q-63 0 -77 9q-168 -69 -168 -154q0 -40 32 -64t113 -32l121 -11q346 -31 346 -264q0 -111 -65 -197q-135 -177 -478 -178q-185 0 -291 72t-106 203q0 236 309 334
q-78 42 -78 123q0 123 191 202zM579 1241v21q8 38 77 143t132 164h47v-27q-33 -44 -85 -142t-75 -159h-96z" />
    <glyph glyph-name="Hcircumflex" unicode="&#x124;" horiz-adv-x="1366" 
d="M1063 0h-100l151 719h-760l-149 -719h-103l310 1462h102l-139 -649h760l137 649h100zM634 1579v29q68 56 158 148t127 151h64q23 -65 73 -153t92 -146v-29h-49q-70 60 -161 207q-120 -124 -250 -207h-54z" />
    <glyph glyph-name="hcircumflex" unicode="&#x125;" horiz-adv-x="1143" 
d="M934 856q0 72 -44 117t-144 45q-102 0 -200 -67q-195 -133 -270 -474l-102 -477h-98l332 1556h96l-86 -411q-44 -200 -66 -279h6q78 114 186 176t232 62q122 0 190 -65t68 -183q0 -70 -24 -182l-148 -674h-98l149 692q21 92 21 164zM485 1634v29q67 57 157 149t128 150
h64q22 -64 72 -152t93 -147v-29h-49q-70 60 -161 207q-120 -124 -250 -207h-54z" />
    <glyph glyph-name="Hbar" unicode="&#x126;" horiz-adv-x="1366" 
d="M1135 813l59 281h-760l-59 -281h760zM1313 1184h198l-20 -90h-197l-231 -1094h-100l151 719h-760l-149 -719h-103l232 1094h-193l21 90h190l60 278h102l-59 -278h757l60 278h100z" />
    <glyph glyph-name="hbar" unicode="&#x127;" horiz-adv-x="1153" 
d="M934 867q0 68 -48 109.5t-134 41.5q-171 0 -298.5 -141.5t-179.5 -395.5l-100 -481h-98l272 1282h-143l16 78h144l41 196h98l-41 -196h373l-17 -78h-373q-68 -315 -94 -408h10q93 124 191 177t221 53t191.5 -62t68.5 -182q0 -62 -22 -170l-150 -690h-102l153 698
q21 101 21 169z" />
    <glyph glyph-name="Itilde" unicode="&#x128;" horiz-adv-x="504" 
d="M102 0l310 1462h98l-309 -1462h-99zM644 1684q84 0 118 131h76q-26 -118 -74 -173t-117 -55q-68 0 -161 64q-34 23 -64 41t-72 18t-71 -28t-51 -101h-74q40 225 205 225q41 0 73 -14t102 -61q68 -47 110 -47z" />
    <glyph glyph-name="itilde" unicode="&#x129;" horiz-adv-x="475" 
d="M174 0h-98l231 1087h96zM556 1346q84 0 118 131h76q-26 -118 -74 -173t-117 -55q-68 0 -161 64q-34 23 -64 41t-72 18t-71 -28t-51 -101h-74q40 225 205 225q41 0 73 -14t102 -61q68 -47 110 -47z" />
    <glyph glyph-name="Imacron" unicode="&#x12a;" horiz-adv-x="504" 
d="M102 0l310 1462h98l-309 -1462h-99zM232 1671h508l-18 -88h-508z" />
    <glyph glyph-name="imacron" unicode="&#x12b;" horiz-adv-x="475" 
d="M174 0h-98l231 1087h96zM150 1333h508l-18 -88h-508z" />
    <glyph glyph-name="Ibreve" unicode="&#x12c;" horiz-adv-x="504" 
d="M102 0l310 1462h98l-309 -1462h-99zM255 1778v21l2 20h69q0 -68 36 -103t122 -35q86 1 136 31q52 30 77 107h72q-57 -234 -293 -234q-105 1 -163 51t-58 142z" />
    <glyph glyph-name="ibreve" unicode="&#x12d;" horiz-adv-x="475" 
d="M174 0h-98l231 1087h96zM159 1440v21l2 20h69q0 -68 36 -103t122 -35q86 1 136 31q52 30 77 107h72q-57 -234 -293 -234q-105 1 -163 51t-58 142z" />
    <glyph glyph-name="Iogonek" unicode="&#x12e;" horiz-adv-x="504" 
d="M4 -256q0 -82 88 -82q33 0 76 10v-71q-41 -15 -107 -15q-65 0 -107 38t-42 108t48 132q48 64 169 136h-27l310 1462h98l-309 -1462l-75 -60q-122 -94 -122 -196z" />
    <glyph glyph-name="iogonek" unicode="&#x12f;" horiz-adv-x="475" 
d="M410 1292q-60 0 -60 74q0 55 22 88t60 33q57 -1 57 -65t-22 -97t-57 -33zM-23 -256q0 -82 88 -82q33 0 76 10v-71q-41 -15 -107 -15t-108 38t-41 108q0 70 48 132q48 64 169 136h-26l231 1087h96l-229 -1087l-75 -60q-122 -94 -122 -196z" />
    <glyph glyph-name="Idotaccent" unicode="&#x130;" horiz-adv-x="504" 
d="M102 0l310 1462h98l-309 -1462h-99zM498 1630q-59 0 -59 65q0 130 82 130q57 0 57 -65q0 -66 -22 -98t-58 -32z" />
    <glyph glyph-name="dotlessi" unicode="&#x131;" horiz-adv-x="475" 
d="M174 0h-98l231 1087h96z" />
    <glyph glyph-name="IJ" unicode="&#x132;" horiz-adv-x="997" 
d="M102 0l310 1462h98l-309 -1462h-99zM324 -360q-96 0 -144 24l11 92q57 -20 137 -20q213 0 262 241l309 1485h105l-314 -1491q-35 -171 -125 -251t-241 -80z" />
    <glyph glyph-name="ij" unicode="&#x133;" horiz-adv-x="950" 
d="M407 1292q-60 0 -60 74q0 55 22 88t60 33q57 -1 57 -65t-22 -97t-57 -33zM171 0h-98l231 1087h96zM881 1292q-60 0 -60 74q0 55 22 88t60 33q57 -1 57 -65t-22 -97t-57 -33zM305 -492q-62 0 -113 19v92q47 -22 121 -22q75 -1 121 51t72 178l266 1261h96l-268 -1271
q-34 -164 -106 -236t-189 -72z" />
    <glyph glyph-name="Jcircumflex" unicode="&#x134;" horiz-adv-x="477" 
d="M-180 -360q-96 0 -144 24l11 92q57 -20 137 -20q213 0 262 241l309 1485h105l-314 -1491q-35 -171 -125 -251t-241 -80zM212 1579v29q68 56 158 148t127 151h64q23 -65 73 -153t92 -146v-29h-49q-70 60 -161 207q-120 -124 -250 -207h-54z" />
    <glyph glyph-name="jcircumflex" unicode="&#x135;" horiz-adv-x="475" 
d="M-166 -492q-62 0 -113 19v92q47 -22 121 -22q74 -1 120 51t73 178l266 1261h96l-268 -1271q-35 -164 -107 -236t-188 -72zM111 1241v29q67 56 157 148t128 151h64q22 -65 72 -153t93 -146v-29h-49q-70 60 -161 207q-120 -124 -250 -207h-54z" />
    <glyph glyph-name="Kcommaaccent" unicode="&#x136;" horiz-adv-x="1122" 
d="M979 0h-111l-342 788l-190 -153l-131 -635h-103l310 1462h102l-158 -723l133 121l680 602h138l-699 -610zM553 -125v-20q-9 -39 -79 -145t-130 -163h-47v27q33 44 85 142t75 159h96z" />
    <glyph glyph-name="kcommaaccent" unicode="&#x137;" horiz-adv-x="944" 
d="M270 477l609 610h125l-474 -469l297 -618h-106l-264 559l-205 -188l-80 -371h-96l330 1556h96l-166 -780l-70 -299h4zM473 -125v-20q-9 -39 -79 -145t-130 -163h-47v27q33 44 85 142t75 159h96z" />
    <glyph glyph-name="kgreenlandic" unicode="&#x138;" horiz-adv-x="944" 
d="M270 477l609 610h125l-474 -469l297 -618h-106l-264 559l-205 -188l-80 -371h-96l229 1087h96l-65 -311l-70 -299h4z" />
    <glyph glyph-name="Lacute" unicode="&#x139;" horiz-adv-x="938" 
d="M102 0l310 1462h102l-289 -1366h621l-23 -96h-721zM832 1907v-23q-52 -66 -158 -158t-192 -147h-67v21q67 51 151 142t129 165h137z" />
    <glyph glyph-name="lacute" unicode="&#x13a;" horiz-adv-x="475" 
d="M170 0h-94l334 1556h94zM820 1964v-23q-52 -67 -158 -159t-192 -146h-67v21q67 51 151 142t129 165h137z" />
    <glyph glyph-name="Lcommaaccent" unicode="&#x13b;" horiz-adv-x="938" 
d="M102 0l310 1462h102l-289 -1366h621l-23 -96h-721zM547 -125v-20q-9 -39 -79 -145t-130 -163h-47v27q33 44 85 142t75 159h96z" />
    <glyph glyph-name="lcommaaccent" unicode="&#x13c;" horiz-adv-x="475" 
d="M170 0h-94l334 1556h94zM175 -125v-20q-9 -39 -79 -145t-130 -163h-47v27q33 44 85 142t75 159h96z" />
    <glyph glyph-name="Lcaron" unicode="&#x13d;" horiz-adv-x="938" 
d="M102 0l310 1462h102l-289 -1366h621l-23 -96h-721zM1021 1463v-20q-9 -39 -79 -146t-129 -161h-48v26q36 46 88 146t72 155h96z" />
    <glyph glyph-name="lcaron" unicode="&#x13e;" horiz-adv-x="475" 
d="M170 0h-94l334 1556h94zM851 1556v-20q-9 -39 -79 -146t-129 -161h-48v26q36 47 88 147t72 154h96z" />
    <glyph glyph-name="Ldot" unicode="&#x13f;" horiz-adv-x="938" 
d="M102 0l310 1462h102l-289 -1366h621l-23 -96h-721zM743 644q-59 0 -59 65q0 130 82 130q57 0 57 -65q-1 -66 -23 -98t-57 -32z" />
    <glyph glyph-name="ldot" unicode="&#x140;" horiz-adv-x="418" 
d="M163 0h-94l334 1556h94zM502 687q-59 0 -59 65q0 130 82 130q57 0 57 -65t-22 -97t-58 -33z" />
    <glyph glyph-name="Lslash" unicode="&#x141;" horiz-adv-x="922" 
d="M100 0l113 524l-135 -80l-39 78l199 119l174 821h102l-160 -755l285 170l43 -76l-354 -213l-103 -492h621l-23 -96h-723z" />
    <glyph glyph-name="lslash" unicode="&#x142;" horiz-adv-x="430" 
d="M350 836l182 104l41 -72l-247 -141l-156 -727h-94l141 664l-170 -99l-37 72l230 135l170 784h94z" />
    <glyph glyph-name="Nacute" unicode="&#x143;" horiz-adv-x="1372" 
d="M1069 0h-86l-516 1284h-8q-23 -149 -48 -273t-214 -1011h-95l310 1462h80l522 -1294h8q23 176 74 416l188 878h94zM1261 1907v-23q-51 -66 -157 -158t-193 -147h-67v21q66 51 150 142t130 165h137z" />
    <glyph glyph-name="nacute" unicode="&#x144;" horiz-adv-x="1143" 
d="M934 856q0 72 -44 117t-144 45q-102 0 -200 -67q-196 -133 -270 -474l-102 -477h-98l231 1087h82l-37 -221h6q164 238 416 238q130 0 195 -64t65 -184q0 -70 -24 -182l-148 -674h-98l149 692q21 92 21 164zM1083 1569v-23q-51 -66 -157 -158t-193 -147h-67v21
q66 51 150 142t130 165h137z" />
    <glyph glyph-name="Ncommaaccent" unicode="&#x145;" horiz-adv-x="1372" 
d="M1069 0h-86l-516 1284h-8q-23 -149 -48 -273t-214 -1011h-95l310 1462h80l522 -1294h8q23 176 74 416l188 878h94zM643 -125v-20q-9 -39 -79 -145t-130 -163h-47v27q33 44 85 142t75 159h96z" />
    <glyph glyph-name="ncommaaccent" unicode="&#x146;" horiz-adv-x="1143" 
d="M934 856q0 72 -44 117t-144 45q-102 0 -200 -67q-196 -133 -270 -474l-102 -477h-98l231 1087h82l-37 -221h6q164 238 416 238q130 0 195 -64t65 -184q0 -70 -24 -182l-148 -674h-98l149 692q21 92 21 164zM514 -125v-20q-8 -39 -78 -145t-131 -163h-47v27q34 44 86 142
t74 159h96z" />
    <glyph glyph-name="Ncaron" unicode="&#x147;" horiz-adv-x="1372" 
d="M1069 0h-86l-516 1284h-8q-23 -149 -48 -273t-214 -1011h-95l310 1462h80l522 -1294h8q23 176 74 416l188 878h94zM711 1907h49q72 -61 162 -207q120 124 250 207h53v-29q-67 -55 -155 -146t-130 -153h-63q-62 157 -166 299v29z" />
    <glyph glyph-name="ncaron" unicode="&#x148;" horiz-adv-x="1143" 
d="M934 856q0 72 -44 117t-144 45q-102 0 -200 -67q-196 -133 -270 -474l-102 -477h-98l231 1087h82l-37 -221h6q164 238 416 238q130 0 195 -64t65 -184q0 -70 -24 -182l-148 -674h-98l149 692q21 92 21 164zM507 1569h49q72 -61 162 -207q120 124 250 207h53v-29
q-67 -55 -155 -146t-130 -153h-63q-62 157 -166 299v29z" />
    <glyph glyph-name="napostrophe" unicode="&#x149;" horiz-adv-x="1282" 
d="M135 961q145 233 233 501h113l4 -22q-98 -240 -276 -479h-74zM1059 856q1 72 -43 117t-146 45t-200 -67q-196 -133 -269 -474l-102 -477h-98l231 1087h82l-37 -221h6q164 238 416 238q130 0 195 -64t65 -184q0 -70 -24 -182l-148 -674h-98l149 692q21 92 21 164z" />
    <glyph glyph-name="Eng" unicode="&#x14a;" horiz-adv-x="1380" 
d="M696 -360q-37 0 -83 8.5t-60 15.5l10 92q58 -20 154 -20t158.5 65t97.5 222l-506 1261h-8q-23 -149 -48 -273t-214 -1011h-95l310 1462h80l522 -1294h8q23 176 74 416l188 878h94l-305 -1444q-41 -196 -130.5 -287t-246.5 -91z" />
    <glyph glyph-name="eng" unicode="&#x14b;" horiz-adv-x="1153" 
d="M528 -492q-65 0 -112 19v92q46 -22 120 -22t119.5 51t71.5 178l186 866q21 92 21 164t-43 117t-145 45t-249 -100t-221 -441l-102 -477h-98l231 1087h82l-37 -221h6q164 238 416 238q130 0 195 -64t65 -184q0 -70 -24 -182l-187 -858q-35 -165 -106.5 -236.5
t-188.5 -71.5z" />
    <glyph glyph-name="Omacron" unicode="&#x14c;" horiz-adv-x="1464" 
d="M895 1389q-191 0 -325 -101t-214 -298q-80 -198 -80 -430t110 -360t319 -128q169 0 300 98t210 300t79 436t-104 359q-104 124 -295 124zM1403 921q0 -265 -94 -491t-252 -338t-365 -112q-250 0 -385 149t-135 421t93 486q93 216 255 332t391 115t361 -149t131 -413z
M665 1671h508l-18 -88h-508z" />
    <glyph glyph-name="omacron" unicode="&#x14d;" horiz-adv-x="1124" 
d="M648 1022q-130 0 -230 -78q-99 -78 -158 -226q-59 -146 -59 -310q0 -342 282 -342q127 0 225 78t158 228q58 150 58 317t-73 250t-203 83zM660 1108q168 0 268 -108q98 -108 98 -303q0 -193 -72 -365t-195 -262q-124 -90 -297 -90q-172 0 -268 110t-96 306q0 198 73 365
t197 257t292 90zM436 1333h508l-18 -88h-508z" />
    <glyph glyph-name="Obreve" unicode="&#x14e;" horiz-adv-x="1464" 
d="M895 1389q-191 0 -325 -101t-214 -298q-80 -198 -80 -430t110 -360t319 -128q169 0 300 98t210 300t79 436t-104 359q-104 124 -295 124zM1403 921q0 -265 -94 -491t-252 -338t-365 -112q-250 0 -385 149t-135 421t93 486q93 216 255 332t391 115t361 -149t131 -413z
M670 1778v21l2 20h69q0 -68 36 -103q35 -35 121 -35q86 1 138 31t76 107h72q-57 -234 -293 -234q-105 1 -163 51t-58 142z" />
    <glyph glyph-name="obreve" unicode="&#x14f;" horiz-adv-x="1124" 
d="M648 1022q-130 0 -230 -78q-99 -78 -158 -226q-59 -146 -59 -310q0 -342 282 -342q127 0 225 78t158 228q58 150 58 317t-73 250t-203 83zM660 1108q168 0 268 -108q98 -108 98 -303q0 -193 -72 -365t-195 -262q-124 -90 -297 -90q-172 0 -268 110t-96 306q0 198 73 365
t197 257t292 90zM444 1440v21l2 20h69q0 -68 36 -103q35 -35 121 -35q86 1 138 31t76 107h72q-57 -234 -293 -234q-105 1 -163 51t-58 142z" />
    <glyph glyph-name="Ohungarumlaut" unicode="&#x150;" horiz-adv-x="1464" 
d="M895 1389q-191 0 -325 -101t-214 -298q-80 -198 -80 -430t110 -360t319 -128q169 0 300 98t210 300t79 436t-104 359q-104 124 -295 124zM1403 921q0 -265 -94 -491t-252 -338t-365 -112q-250 0 -385 149t-135 421t93 486q93 216 255 332t391 115t361 -149t131 -413z
M1399 1907v-23q-61 -82 -147 -172t-146 -133h-37v29q119 127 227 299h103zM1086 1907v-23q-59 -80 -145 -170t-146 -135h-39v29q120 122 227 299h103z" />
    <glyph glyph-name="ohungarumlaut" unicode="&#x151;" horiz-adv-x="1124" 
d="M648 1022q-130 0 -230 -78q-99 -78 -158 -226q-59 -146 -59 -310q0 -342 282 -342q127 0 225 78t158 228q58 150 58 317t-73 250t-203 83zM660 1108q168 0 268 -108q98 -108 98 -303q0 -193 -72 -365t-195 -262q-124 -90 -297 -90q-172 0 -268 110t-96 306q0 198 73 365
t197 257t292 90zM1127 1569v-23q-61 -82 -147 -172t-146 -133h-37v29q119 127 227 299h103zM814 1569v-23q-59 -80 -145 -170t-146 -135h-39v29q120 122 227 299h103z" />
    <glyph glyph-name="OE" unicode="&#x152;" horiz-adv-x="1767" 
d="M705 72q68 0 116 12l271 1290q-110 15 -189 15q-182 0 -321.5 -98.5t-222.5 -293.5t-83 -432t109 -365t320 -128zM172 550q0 272 96 491t262 330.5t381 111.5q130 0 240 -21h688l-20 -94h-625l-117 -553h590l-20 -94h-588l-135 -627h626l-20 -94h-666q-83 -20 -172 -20
q-251 0 -385.5 149t-134.5 421z" />
    <glyph glyph-name="oe" unicode="&#x153;" horiz-adv-x="1720" 
d="M1423 1018q-131 0 -243 -115t-162 -309h49q516 0 516 270q0 70 -44.5 112t-115.5 42zM648 1022q-130 0 -229.5 -78.5t-158.5 -225t-59 -310.5q0 -342 282 -342q127 0 225.5 77.5t157 228t58.5 317.5t-73 250t-203 83zM1274 -20q-147 0 -240 69t-125 201
q-65 -127 -179 -198.5t-257 -71.5q-184 0 -279.5 109t-95.5 307t73 365t197 257t273 90t245 -74.5t126 -212.5q70 132 182 207.5t234 75.5t190 -61t68 -166q0 -181 -163.5 -276t-486.5 -95h-32q-7 -38 -7 -98q0 -165 74 -251.5t210 -86.5t280 73v-94q-140 -69 -287 -69z" />
    <glyph glyph-name="Racute" unicode="&#x154;" horiz-adv-x="1145" 
d="M610 725q208 -1 317 95t109 282q0 268 -329 268h-211l-138 -645h252zM715 1462q430 0 430 -360q1 -182 -103 -303t-282 -152q201 -591 221 -647h-111l-211 633h-323l-131 -633h-103l310 1462h303zM1142 1907v-23q-52 -66 -158 -158t-192 -147h-67v21q67 51 151 142
t129 165h137z" />
    <glyph glyph-name="racute" unicode="&#x155;" horiz-adv-x="752" 
d="M714 1106q68 0 122 -14l-21 -93q-47 15 -127 15t-165 -64t-153 -192t-100 -277l-100 -481h-98l231 1087h80l-29 -204h6q73 93 123 135q51 42 107 65t124 23zM883 1569v-23q-51 -66 -157 -158t-193 -147h-67v21q66 51 150 142t130 165h137z" />
    <glyph glyph-name="Rcommaaccent" unicode="&#x156;" horiz-adv-x="1145" 
d="M610 725q208 -1 317 95t109 282q0 268 -329 268h-211l-138 -645h252zM715 1462q430 0 430 -360q1 -182 -103 -303t-282 -152q201 -591 221 -647h-111l-211 633h-323l-131 -633h-103l310 1462h303zM571 -125v-20q-9 -39 -79 -145t-130 -163h-47v27q33 44 85 142t75 159h96
z" />
    <glyph glyph-name="rcommaaccent" unicode="&#x157;" horiz-adv-x="752" 
d="M714 1106q68 0 122 -14l-21 -93q-47 15 -127 15t-165 -64t-153 -192t-100 -277l-100 -481h-98l231 1087h80l-29 -204h6q73 93 123 135q51 42 107 65t124 23zM169 -125v-20q-9 -39 -79 -145t-130 -163h-47v27q33 44 85 142t75 159h96z" />
    <glyph glyph-name="Rcaron" unicode="&#x158;" horiz-adv-x="1145" 
d="M610 725q208 -1 317 95t109 282q0 268 -329 268h-211l-138 -645h252zM715 1462q430 0 430 -360q1 -182 -103 -303t-282 -152q201 -591 221 -647h-111l-211 633h-323l-131 -633h-103l310 1462h303zM565 1907h49q72 -61 162 -207q120 124 250 207h53v-29q-67 -55 -155 -146
t-130 -153h-63q-62 157 -166 299v29z" />
    <glyph glyph-name="rcaron" unicode="&#x159;" horiz-adv-x="752" 
d="M714 1106q68 0 122 -14l-21 -93q-47 15 -127 15t-165 -64t-153 -192t-100 -277l-100 -481h-98l231 1087h80l-29 -204h6q73 93 123 135q51 42 107 65t124 23zM378 1569h49q72 -61 162 -207q120 124 250 207h53v-29q-68 -55 -156 -146t-129 -153h-63q-62 157 -166 299v29z
" />
    <glyph glyph-name="Sacute" unicode="&#x15a;" horiz-adv-x="1020" 
d="M694 1397q-170 -1 -266 -83t-96 -218q0 -103 49 -170q49 -68 193 -140t202 -123q118 -102 119 -260q1 -127 -65 -225q-132 -198 -449 -198q-185 0 -344 75v109q163 -92 349 -92t294 86t108 233q0 114 -70 183q-36 35 -90 68q-56 33 -132 75q-150 76 -210 164t-59 206
q0 117 59 207t165 140t221 49q115 1 196 -17t168 -61l-32 -94q-141 86 -310 86zM1060 1907v-23q-52 -66 -158 -158t-192 -147h-67v21q67 51 151 142t129 165h137z" />
    <glyph glyph-name="sacute" unicode="&#x15b;" horiz-adv-x="827" 
d="M322 66q142 0 215 58t73 150t-66 148q-34 30 -132 86q-148 80 -200 146t-52 159q0 127 98 209t260 82q74 0 158 -18t141 -46l-35 -88q-136 64 -258 64t-192 -53t-70 -138q0 -55 17 -88q34 -66 164 -137q129 -72 177 -112q92 -79 93 -208q0 -128 -103 -214t-278 -86
t-307 75v107q155 -96 297 -96zM869 1569v-23q-51 -66 -157 -158t-193 -147h-67v21q66 51 150 142t130 165h137z" />
    <glyph glyph-name="Scircumflex" unicode="&#x15c;" horiz-adv-x="1020" 
d="M694 1397q-170 -1 -266 -83t-96 -218q0 -103 49 -170q49 -68 193 -140t202 -123q118 -102 119 -260q1 -127 -65 -225q-132 -198 -449 -198q-185 0 -344 75v109q163 -92 349 -92t294 86t108 233q0 114 -70 183q-36 35 -90 68q-56 33 -132 75q-150 76 -210 164t-59 206
q0 117 59 207t165 140t221 49q115 1 196 -17t168 -61l-32 -94q-141 86 -310 86zM444 1579v29q68 56 158 148t127 151h64q23 -65 73 -153t92 -146v-29h-49q-70 60 -161 207q-120 -124 -250 -207h-54z" />
    <glyph glyph-name="scircumflex" unicode="&#x15d;" horiz-adv-x="827" 
d="M322 66q142 0 215 58t73 150t-66 148q-34 30 -132 86q-148 80 -200 146t-52 159q0 127 98 209t260 82q74 0 158 -18t141 -46l-35 -88q-136 64 -258 64t-192 -53t-70 -138q0 -55 17 -88q34 -66 164 -137q129 -72 177 -112q92 -79 93 -208q0 -128 -103 -214t-278 -86
t-307 75v107q155 -96 297 -96zM283 1241v29q67 56 157 148t128 151h64q22 -65 72 -153t93 -146v-29h-49q-70 60 -161 207q-120 -124 -250 -207h-54z" />
    <glyph glyph-name="Scedilla" unicode="&#x15e;" horiz-adv-x="1020" 
d="M694 1397q-170 -1 -266 -83t-96 -218q0 -103 49 -170q49 -68 193 -140t202 -123q118 -102 119 -260q1 -127 -65 -225q-120 -180 -394 -196l-68 -119q140 -30 140 -152q0 -95 -76 -149t-217 -54q-46 0 -78 7v79q30 -6 72 -6q198 0 198 115q0 97 -151 107l99 170
q-170 5 -318 75v109q163 -92 349 -92t294 86t108 233q0 114 -70 183q-36 35 -90 68q-56 33 -132 75q-150 76 -210 164t-59 206q0 117 59 207t165 140t221 49q115 1 196 -17t168 -61l-32 -94q-141 86 -310 86z" />
    <glyph glyph-name="scedilla" unicode="&#x15f;" horiz-adv-x="827" 
d="M322 66q142 0 215 58t73 150t-66 148q-34 30 -132 86q-148 80 -200 146t-52 159q0 127 98 209t260 82q74 0 158 -18t141 -46l-35 -88q-136 64 -258 64t-192 -53t-70 -138q0 -55 17 -88q34 -66 164 -137q129 -72 177 -112q92 -79 93 -208q0 -129 -96 -209t-240 -89
l-68 -119q140 -30 140 -152q1 -95 -75 -149t-218 -54q-46 0 -78 7v79q30 -6 72 -6q198 0 198 115q0 97 -151 107l99 171q-152 7 -271 74v107q155 -96 297 -96z" />
    <glyph glyph-name="Scaron" unicode="&#x160;" horiz-adv-x="1020" 
d="M694 1397q-170 -1 -266 -83t-96 -218q0 -103 49 -170q49 -68 193 -140t202 -123q118 -102 119 -260q1 -127 -65 -225q-132 -198 -449 -198q-185 0 -344 75v109q163 -92 349 -92t294 86t108 233q0 114 -70 183q-36 35 -90 68q-56 33 -132 75q-150 76 -210 164t-59 206
q0 117 59 207t165 140t221 49q115 1 196 -17t168 -61l-32 -94q-141 86 -310 86zM468 1907h49q72 -61 162 -207q120 124 250 207h53v-29q-68 -55 -156 -146t-129 -153h-63q-62 157 -166 299v29z" />
    <glyph glyph-name="scaron" unicode="&#x161;" horiz-adv-x="827" 
d="M322 66q142 0 215 58t73 150t-66 148q-34 30 -132 86q-148 80 -200 146t-52 159q0 127 98 209t260 82q74 0 158 -18t141 -46l-35 -88q-136 64 -258 64t-192 -53t-70 -138q0 -55 17 -88q34 -66 164 -137q129 -72 177 -112q92 -79 93 -208q0 -128 -103 -214t-278 -86
t-307 75v107q155 -96 297 -96zM331 1569h49q72 -61 162 -207q120 124 250 207h53v-29q-67 -55 -155 -146t-130 -153h-63q-62 157 -166 299v29z" />
    <glyph glyph-name="Tcedilla" unicode="&#x162;" horiz-adv-x="985" 
d="M492 -289q0 -95 -76 -149t-217 -54q-46 0 -78 7v79q30 -6 72 -6q198 0 198 115q0 97 -151 107l110 190h-14l289 1368h-432l20 94h973l-19 -94h-440l-289 -1368h-8l-78 -137q140 -30 140 -152z" />
    <glyph glyph-name="tcedilla" unicode="&#x163;" horiz-adv-x="616" 
d="M137 193q0 73 29 206l129 607h-182l14 67l184 17l97 253h55l-55 -256h286l-18 -81h-283l-135 -635q-22 -99 -22 -164q0 -139 126 -139q68 0 152 26v-86q-95 -26 -161 -28l-67 -117q140 -30 140 -152q0 -95 -76 -149t-217 -54q-46 0 -78 7v79q30 -6 72 -6q198 0 198 115
q0 97 -151 107l103 177q-140 35 -140 206z" />
    <glyph glyph-name="Tcaron" unicode="&#x164;" horiz-adv-x="985" 
d="M438 0h-102l289 1368h-432l20 94h973l-19 -94h-440zM516 1907h49q72 -61 162 -207q120 124 250 207h53v-29q-68 -55 -156 -146t-129 -153h-63q-62 157 -166 299v29z" />
    <glyph glyph-name="tcaron" unicode="&#x165;" horiz-adv-x="616" 
d="M236 207q0 -139 126 -139q68 0 152 26v-86q-101 -28 -185 -28t-138 54t-54 144q0 88 29 221l129 607h-182l14 67l184 17l97 253h55l-55 -256h286l-18 -81h-283l-135 -635q-22 -99 -22 -164zM892 1555v-20q-10 -39 -80 -146t-128 -161h-48v26q36 46 88 146t72 155h96z" />
    <glyph glyph-name="Tbar" unicode="&#x166;" horiz-adv-x="985" 
d="M182 803h324l119 565h-432l20 94h973l-19 -94h-440l-121 -565h332l-18 -82h-330l-152 -721h-102l151 721h-323z" />
    <glyph glyph-name="tbar" unicode="&#x167;" horiz-adv-x="573" 
d="M236 208q0 -140 126 -140q68 0 152 26v-86q-25 -10 -78.5 -19t-87.5 -9q-98 0 -154.5 59t-56.5 146t25 196l45 217h-162l18 82h162l70 326h-182l14 67l184 17l97 253h55l-55 -256h286l-18 -81h-283l-69 -326h249l-18 -82h-250l-47 -227q-22 -99 -22 -163z" />
    <glyph glyph-name="Utilde" unicode="&#x168;" horiz-adv-x="1370" 
d="M616 -20q-440 0 -440 401q0 83 27 201l186 880h103l-193 -899q-20 -89 -20 -184q0 -309 342 -309q195 0 307 96t159 319l207 977h101l-207 -977q-58 -269 -197 -387t-375 -118zM1074 1684q84 0 118 131h76q-26 -118 -74 -173t-117 -55q-68 0 -161 64q-34 23 -64 41
t-72 18t-71 -28t-51 -101h-74q40 225 205 225q41 0 73 -14t102 -61q68 -47 110 -47z" />
    <glyph glyph-name="utilde" unicode="&#x169;" horiz-adv-x="1143" 
d="M207 220q-1 -62 47 -106t148 -44t198 66q193 130 264 466l105 485h98l-231 -1087h-80l28 205h-6q-167 -221 -403 -221q-131 0 -199 62t-67 181q0 60 22 170l150 690h100l-152 -698q-22 -106 -22 -169zM875 1346q84 0 118 131h76q-27 -118 -75 -173t-116 -55t-161 64
q-35 23 -65 41t-72 18t-70 -28q-29 -28 -51 -101h-74q40 225 205 225q42 0 74 -14t100 -61t111 -47z" />
    <glyph glyph-name="Umacron" unicode="&#x16a;" horiz-adv-x="1370" 
d="M616 -20q-440 0 -440 401q0 83 27 201l186 880h103l-193 -899q-20 -89 -20 -184q0 -309 342 -309q195 0 307 96t159 319l207 977h101l-207 -977q-58 -269 -197 -387t-375 -118zM663 1671h508l-18 -88h-508z" />
    <glyph glyph-name="umacron" unicode="&#x16b;" horiz-adv-x="1143" 
d="M207 220q-1 -62 47 -106t148 -44t198 66q193 130 264 466l105 485h98l-231 -1087h-80l28 205h-6q-167 -221 -403 -221q-131 0 -199 62t-67 181q0 60 22 170l150 690h100l-152 -698q-22 -106 -22 -169zM471 1333h508l-18 -88h-508z" />
    <glyph glyph-name="Ubreve" unicode="&#x16c;" horiz-adv-x="1370" 
d="M616 -20q-440 0 -440 401q0 83 27 201l186 880h103l-193 -899q-20 -89 -20 -184q0 -309 342 -309q195 0 307 96t159 319l207 977h101l-207 -977q-58 -269 -197 -387t-375 -118zM674 1778v21l2 20h69q0 -68 36 -103q35 -35 121 -35q86 1 138 31t76 107h72
q-57 -234 -293 -234q-105 1 -163 51t-58 142z" />
    <glyph glyph-name="ubreve" unicode="&#x16d;" horiz-adv-x="1143" 
d="M207 220q-1 -62 47 -106t148 -44t198 66q193 130 264 466l105 485h98l-231 -1087h-80l28 205h-6q-167 -221 -403 -221q-131 0 -199 62t-67 181q0 60 22 170l150 690h100l-152 -698q-22 -106 -22 -169zM470 1440v21l2 20h69q0 -68 36 -103q35 -35 121 -35q86 1 138 31
t76 107h72q-57 -234 -293 -234q-105 1 -163 51t-58 142z" />
    <glyph glyph-name="Uring" unicode="&#x16e;" horiz-adv-x="1370" 
d="M616 -20q-440 0 -440 401q0 83 27 201l186 880h103l-193 -899q-20 -89 -20 -184q0 -309 342 -309q195 0 307 96t159 319l207 977h101l-207 -977q-58 -269 -197 -387t-375 -118zM1032 1784q0 57 -34 90t-90 33t-90 -36t-34 -93t33 -90t89 -33t92 36q34 36 34 93z
M1110 1786q0 -92 -58 -148t-148 -57q-90 0 -145 52q-55 53 -55 143t60 146t148 56q90 0 144 -50t54 -142z" />
    <glyph glyph-name="uring" unicode="&#x16f;" horiz-adv-x="1143" 
d="M207 220q-1 -62 47 -106t148 -44t198 66q193 130 264 466l105 485h98l-231 -1087h-80l28 205h-6q-167 -221 -403 -221q-131 0 -199 62t-67 181q0 60 22 170l150 690h100l-152 -698q-22 -106 -22 -169zM851 1446q1 57 -33 90t-91 33t-91 -36t-33 -93q0 -57 33 -90
q34 -33 90 -33t90 36t35 93zM929 1448q1 -92 -57 -148t-148 -57q-90 0 -146 52q-55 53 -55 143q-1 90 59 146t149 56t143 -50t55 -142z" />
    <glyph glyph-name="Uhungarumlaut" unicode="&#x170;" horiz-adv-x="1370" 
d="M616 -20q-440 0 -440 401q0 83 27 201l186 880h103l-193 -899q-20 -89 -20 -184q0 -309 342 -309q195 0 307 96t159 319l207 977h101l-207 -977q-58 -269 -197 -387t-375 -118zM1356 1907v-23q-60 -82 -146 -172t-147 -133h-37v29q119 127 227 299h103zM1043 1907v-23
q-59 -80 -145 -170t-146 -135h-39v29q120 122 227 299h103z" />
    <glyph glyph-name="uhungarumlaut" unicode="&#x171;" horiz-adv-x="1143" 
d="M207 220q-1 -62 47 -106t148 -44t198 66q193 130 264 466l105 485h98l-231 -1087h-80l28 205h-6q-167 -221 -403 -221q-131 0 -199 62t-67 181q0 60 22 170l150 690h100l-152 -698q-22 -106 -22 -169zM1122 1569v-23q-60 -82 -146 -172t-147 -133h-37v29q119 127 227 299
h103zM809 1569v-23q-59 -80 -145 -170t-146 -135h-39v29q120 122 227 299h103z" />
    <glyph glyph-name="Uogonek" unicode="&#x172;" horiz-adv-x="1370" 
d="M588 -256q0 -82 88 -82q33 0 76 10v-71q-41 -15 -107 -15q-65 0 -107 38t-42 108t45 129q45 60 144 122q-33 -3 -69 -3q-440 0 -440 401q0 83 27 201l186 880h103l-193 -899q-20 -89 -20 -184q0 -309 342 -309q195 0 307 96t159 319l207 977h101l-207 -977
q-58 -269 -197 -387q-86 -73 -210 -101l-71 -57q-122 -94 -122 -196z" />
    <glyph glyph-name="uogonek" unicode="&#x173;" horiz-adv-x="1143" 
d="M207 220q-1 -62 47 -106t148 -44t198 66q193 130 264 466l105 485h98l-231 -1087h-8l-75 -60q-122 -94 -122 -196q0 -82 88 -82q33 0 76 10v-71q-41 -15 -107 -15t-108 38t-41 108q0 70 48 132q48 64 169 136l28 205h-6q-167 -221 -403 -221q-131 0 -199 62t-67 181
q0 60 22 170l150 690h100l-152 -698q-22 -106 -22 -169z" />
    <glyph glyph-name="Wcircumflex" unicode="&#x174;" horiz-adv-x="1702" 
d="M1182 174h6q30 86 62 163t493 1125h108q-169 -365 -331 -731t-328 -731h-78l-78 1075q-11 142 -11 219l1 47h-8q-27 -75 -62 -153t-563 -1188h-82l-73 1462h100l47 -1031l4 -165l-2 -86h6q85 226 170 398l434 884h105l61 -878q19 -266 19 -410zM796 1579v29
q68 56 158 148t127 151h64q23 -65 73 -153t92 -146v-29h-49q-70 60 -161 207q-120 -124 -250 -207h-54z" />
    <glyph glyph-name="wcircumflex" unicode="&#x175;" horiz-adv-x="1393" 
d="M764 952h-6q-34 -92 -144 -290l-356 -662h-117l-20 1087h92l13 -821l-3 -157h6q61 134 150 297l373 681h77l64 -681q14 -147 14 -297h6l125 297l320 681h96l-508 -1087h-108l-60 686q-14 224 -14 266zM557 1241v29q67 56 157 148t128 151h64q22 -65 72 -153t93 -146v-29
h-49q-70 60 -161 207q-120 -124 -250 -207h-54z" />
    <glyph glyph-name="Ycircumflex" unicode="&#x176;" horiz-adv-x="965" 
d="M494 645l544 817h117l-631 -932l-108 -530h-105l119 545l-237 917h100zM414 1579v29q68 56 158 148t127 151h64q23 -65 73 -153t92 -146v-29h-49q-70 60 -161 207q-120 -124 -250 -207h-54z" />
    <glyph glyph-name="ycircumflex" unicode="&#x177;" horiz-adv-x="920" 
d="M-80 -492q-76 0 -137 21v92q71 -27 144 -27t140 50t130 164q63 115 100 184l-174 1095h100l82 -548q51 -351 55 -449h11q43 105 186 367l348 630h103l-713 -1290q-73 -127 -123 -178t-114 -81q-62 -30 -138 -30zM316 1241v29q68 56 158 148t127 151h64q23 -65 73 -153
t92 -146v-29h-49q-70 60 -161 207q-120 -124 -250 -207h-54z" />
    <glyph glyph-name="Ydieresis" unicode="&#x178;" horiz-adv-x="965" 
d="M494 645l544 817h117l-631 -932l-108 -530h-105l119 545l-237 917h100zM509 1641q-55 0 -55 56q0 114 77 114q54 0 54 -56t-21 -85t-55 -29zM853 1641q-55 0 -55 56q0 114 77 114q54 0 54 -56t-21 -85t-55 -29z" />
    <glyph glyph-name="Zacute" unicode="&#x179;" 
d="M913 0h-925l22 92l1069 1276h-764l23 94h887l-19 -88l-1069 -1280h799zM1085 1907v-23q-51 -66 -157 -158t-193 -147h-67v21q66 51 150 142t130 165h137z" />
    <glyph glyph-name="zacute" unicode="&#x17a;" horiz-adv-x="887" 
d="M700 0h-729l15 72l776 932h-543l17 83h659l-18 -83l-762 -920h602zM906 1569v-23q-52 -66 -158 -158t-192 -147h-67v21q67 51 151 142t129 165h137z" />
    <glyph glyph-name="Zdotaccent" unicode="&#x17b;" 
d="M913 0h-925l22 92l1069 1276h-764l23 94h887l-19 -88l-1069 -1280h799zM778 1630q-59 0 -59 65q0 130 82 130q57 0 57 -65q0 -66 -22 -98t-58 -32z" />
    <glyph glyph-name="zdotaccent" unicode="&#x17c;" horiz-adv-x="887" 
d="M700 0h-729l15 72l776 932h-543l17 83h659l-18 -83l-762 -920h602zM586 1292q-59 0 -59 65q0 130 82 130q57 0 57 -65q0 -66 -22 -98t-58 -32z" />
    <glyph glyph-name="Zcaron" unicode="&#x17d;" 
d="M913 0h-925l22 92l1069 1276h-764l23 94h887l-19 -88l-1069 -1280h799zM567 1907h49q72 -61 162 -207q120 124 250 207h53v-29q-67 -55 -155 -146t-130 -153h-63q-62 157 -166 299v29z" />
    <glyph glyph-name="zcaron" unicode="&#x17e;" horiz-adv-x="887" 
d="M700 0h-729l15 72l776 932h-543l17 83h659l-18 -83l-762 -920h602zM382 1569h49q72 -61 162 -207q120 124 250 207h53v-29q-68 -55 -156 -146t-129 -153h-63q-62 157 -166 299v29z" />
    <glyph glyph-name="longs" unicode="&#x17f;" horiz-adv-x="473" 
d="M-184 -492q-49 0 -103 19v90q53 -16 101 -16q88 0 134 53t75 186l294 1407q38 169 118.5 244.5t226.5 75.5q79 0 165 -31l-24 -80q-87 27 -165 27q-168 0 -220 -232l-303 -1435q-33 -161 -104 -234.5t-195 -73.5z" />
    <glyph glyph-name="florin" unicode="&#x192;" 
d="M104 -492q-48 0 -102 19v90q53 -16 100 -16q88 0 134 53t75 186l215 1018h-204l14 68l205 14l47 223q35 168 116.5 244t227.5 76q73 0 166 -31l-25 -80q-87 27 -165 27q-170 0 -220 -232l-47 -227h248l-17 -82h-247l-222 -1042q-34 -165 -105.5 -236.5t-193.5 -71.5z" />
    <glyph glyph-name="Ohorn" unicode="&#x1a0;" horiz-adv-x="1464" 
d="M895 1389q-190 0 -324.5 -101t-214.5 -298.5t-80 -429.5t109.5 -360t319.5 -128q169 0 300 98.5t210 300t79 435.5t-104.5 358.5t-294.5 124.5zM893 1483q297 0 428 -217q102 41 154 109t71 181h105l12 -18q-53 -246 -305 -344q45 -121 45 -283q0 -255 -94 -481.5
t-252 -338t-365 -111.5q-250 0 -385 149t-135 421t93 487t255 330.5t373 115.5z" />
    <glyph glyph-name="ohorn" unicode="&#x1a1;" horiz-adv-x="1155" 
d="M648 1022q-130 0 -229.5 -78.5t-158.5 -225t-59 -310.5q0 -342 282 -342q127 0 225.5 77.5t157 228t58.5 317.5t-73 250t-203 83zM649 1108q203 0 301 -137q87 35 135.5 101.5t67.5 178.5h104l13 -18q-52 -240 -281 -334q37 -87 37 -199q0 -197 -71.5 -368.5
t-195.5 -261.5t-297 -90t-268.5 109t-95.5 307t73 365t197 257t281 90z" />
    <glyph glyph-name="Uhorn" unicode="&#x1af;" horiz-adv-x="1489" 
d="M616 -20q-440 0 -440 401q0 83 27 201l186 880h103l-193 -899q-20 -89 -20 -184q0 -309 342 -309q195 0 307.5 96.5t158.5 318.5l207 977h101l-45 -211q101 29 160.5 99t82.5 206h105l12 -18q-35 -160 -129.5 -248.5t-249.5 -126.5l-143 -678q-58 -270 -197 -387.5
t-375 -117.5z" />
    <glyph glyph-name="uhorn" unicode="&#x1b0;" horiz-adv-x="1284" 
d="M207 220q0 -63 47.5 -106.5t147.5 -43.5t246 97.5t216 434.5l105 485h98l-31 -145q103 28 163 99t83 212h104l13 -18q-35 -162 -130 -254t-251 -127l-182 -854h-80l28 205h-6q-167 -221 -403 -221q-131 0 -198.5 62t-67.5 181q0 60 22 170l150 690h100l-152 -698
q-22 -106 -22 -169z" />
    <glyph glyph-name="uni01F0" unicode="&#x1f0;" horiz-adv-x="475" 
d="M-166 -492q-62 0 -113 19v92q47 -22 121 -22q74 -1 120 51t73 178l266 1261h96l-268 -1271q-35 -164 -107 -236t-188 -72zM181 1569h49q72 -61 162 -207q120 124 250 207h53v-29q-67 -55 -155 -146t-130 -153h-63q-62 157 -166 299v29z" />
    <glyph glyph-name="Aringacute" unicode="&#x1fa;" horiz-adv-x="1059" 
d="M1094 2036v-23q-58 -71 -161 -161t-190 -144h-67v21q66 51 150.5 142t129.5 165h138zM852 1443q0 58 -32.5 92t-89.5 34t-92.5 -34t-35.5 -92t32.5 -91t90.5 -33t92.5 33t34.5 91zM793 612l-39 291q-22 155 -35 342h-33q-68 -133 -342 -633h449zM522 1431q0 99 59 155
t150 56t144 -52.5t53 -129.5q0 -157 -121 -200l172 -1260h-105l-69 520h-512l-287 -520h-117l713 1276q-80 56 -80 155z" />
    <glyph glyph-name="aringacute" unicode="&#x1fb;" horiz-adv-x="1133" 
d="M205 365q0 -295 201 -295q90 0 178 62t158 166t108 230q37 126 37 209t-26 145q-56 136 -204 136q-124 0 -224 -82t-164 -246t-64 -325zM102 354q0 197 75 376q75 178 201 276t277 98q232 0 279 -219h6l59 202h80l-229 -1087h-82l45 274h-6q-174 -294 -424 -294
q-281 0 -281 374zM853 1396q1 57 -33 90t-91 33t-91 -36t-33 -93q0 -57 33 -90q34 -33 90 -33t90 36t35 93zM931 1398q1 -92 -57 -148t-148 -57q-90 0 -146 52q-55 53 -55 143q-1 90 59 146t149 56t143 -50t55 -142zM1073 1991v-23q-51 -66 -157 -158t-193 -147h-67v21
q66 51 150 142t130 165h137z" />
    <glyph glyph-name="AEacute" unicode="&#x1fc;" horiz-adv-x="1640" 
d="M408 627h401l156 741h-88zM1403 0h-727l110 522h-444l-328 -522h-131l946 1462h883l-20 -94h-625l-117 -553h590l-20 -94h-588l-135 -627h626zM1517 1907v-23q-51 -66 -157 -158t-193 -147h-67v21q66 51 150 142t130 165h137z" />
    <glyph glyph-name="aeacute" unicode="&#x1fd;" horiz-adv-x="1602" 
d="M1317 1018q-119 0 -232 -116t-172 -308h48q263 0 383 67t120 203q0 70 -38 112t-109 42zM831 764q1 254 -205 254q-108 0 -208 -86t-156 -240t-57 -340q0 -282 164 -282q140 0 271 157q130 157 171 372q20 104 20 165zM342 -20q-116 0 -178 94t-62 285t70 369t193 278
q122 98 274 98q106 0 166 -56t74 -157h10l59 192h66l-35 -186q139 207 350 207q112 0 175 -62t63 -172q-1 -180 -159 -272t-470 -92h-39q-8 -51 -8 -96q0 -340 287 -340q109 0 264 73v-94q-149 -69 -280 -69q-130 0 -218 60t-117 165l-39 -205h-77l41 254h-9
q-94 -142 -189 -208q-96 -66 -212 -66zM1386 1569v-23q-52 -66 -158 -158t-192 -147h-67v21q67 51 151 142t129 165h137z" />
    <glyph glyph-name="Oslashacute" unicode="&#x1fe;" horiz-adv-x="1464" 
d="M1294 901q0 85 -18 172t-43 129l-821 -1030q107 -100 285 -100t309 100q132 100 210 296t78 433zM879 1389q-269 1 -433 -229q-78 -110 -124 -268q-46 -156 -46 -290q0 -242 78 -358l826 1032q-107 113 -301 113zM1403 874q0 -150 -52 -328q-53 -178 -145 -305
q-192 -261 -514 -261q-215 0 -348 112l-139 -170l-66 64l146 172q-113 148 -113 406t94 474t256 331q162 114 376 114t347 -121l133 168l70 -53l-145 -183q45 -51 73 -161q28 -109 27 -259zM1230 1907v-23q-52 -66 -158 -158t-192 -147h-67v21q67 51 151 142t129 165h137z
" />
    <glyph glyph-name="oslashacute" unicode="&#x1ff;" horiz-adv-x="1124" 
d="M640 1022q-124 0 -222 -78q-99 -78 -158 -226q-59 -146 -59 -290t32 -217l605 739q-74 72 -198 72zM924 702q0 101 -35 179l-608 -742q67 -73 198 -73t229 78t158 228q58 150 58 330zM98 414q0 180 73 347t197 257t278 90t253 -82l109 133l65 -53l-117 -143
q70 -105 70 -283t-72 -348q-72 -172 -195 -262q-125 -90 -287 -90t-253 83l-110 -135l-64 54l119 145q-66 107 -66 287zM997 1569v-23q-51 -66 -157 -158t-193 -147h-67v21q66 51 150 142t130 165h137z" />
    <glyph glyph-name="Scommaaccent" unicode="&#x218;" horiz-adv-x="1020" 
d="M694 1397q-170 -1 -266 -83t-96 -218q0 -103 49 -170q49 -68 193 -140t202 -123q118 -102 119 -260q1 -127 -65 -225q-132 -198 -449 -198q-185 0 -344 75v109q163 -92 349 -92t294 86t108 233q0 114 -70 183q-36 35 -90 68q-56 33 -132 75q-150 76 -210 164t-59 206
q0 117 59 207t165 140t221 49q115 1 196 -17t168 -61l-32 -94q-141 86 -310 86zM455 -125v-20q-9 -39 -79 -145t-130 -163h-47v27q33 44 85 142t75 159h96z" />
    <glyph glyph-name="scommaaccent" unicode="&#x219;" horiz-adv-x="827" 
d="M322 66q142 0 215 58t73 150t-66 148q-34 30 -132 86q-148 80 -200 146t-52 159q0 127 98 209t260 82q74 0 158 -18t141 -46l-35 -88q-136 64 -258 64t-192 -53t-70 -138q0 -55 17 -88q34 -66 164 -137q129 -72 177 -112q92 -79 93 -208q0 -128 -103 -214t-278 -86
t-307 75v107q155 -96 297 -96zM368 -125v-20q-8 -39 -78 -145t-131 -163h-47v27q34 44 86 142t74 159h96z" />
    <glyph glyph-name="Tcommaaccent" unicode="&#x21a;" horiz-adv-x="985" 
d="M438 0h-102l289 1368h-432l20 94h973l-19 -94h-440zM417 -125v-20q-9 -39 -79 -145t-130 -163h-47v27q33 44 85 142t75 159h96z" />
    <glyph glyph-name="tcommaaccent" unicode="&#x21b;" horiz-adv-x="616" 
d="M236 207q0 -139 126 -139q68 0 152 26v-86q-101 -28 -185 -28t-138 54t-54 144q0 88 29 221l129 607h-182l14 67l184 17l97 253h55l-55 -256h286l-18 -81h-283l-135 -635q-22 -99 -22 -164zM331 -125v-20q-9 -39 -79 -145t-130 -163h-47v27q33 44 85 142t75 159h96z" />
    <glyph glyph-name="dotlessj" unicode="&#x237;" horiz-adv-x="475" 
d="M-166 -492q-62 0 -113 19v92q47 -22 121 -22t120.5 51.5t72.5 177.5l266 1261h96l-268 -1271q-35 -165 -106.5 -236.5t-188.5 -71.5z" />
    <glyph glyph-name="uni02BC" unicode="&#x2bc;" horiz-adv-x="299" 
d="M129 961q145 233 233 501h113l4 -22q-98 -240 -276 -479h-74z" />
    <glyph glyph-name="circumflex" unicode="&#x2c6;" horiz-adv-x="1135" 
d="M444 1241v29q68 56 157.5 148.5t127.5 150.5h64q23 -64 72.5 -152.5t92.5 -146.5v-29h-49q-70 60 -161 207q-120 -124 -250 -207h-54z" />
    <glyph glyph-name="caron" unicode="&#x2c7;" horiz-adv-x="1135" 
d="M514 1569h49q72 -61 162 -207q120 124 250 207h53v-29q-68 -55 -155.5 -146t-129.5 -153h-63q-62 157 -166 299v29z" />
    <glyph glyph-name="macron" unicode="&#x2c9;" horiz-adv-x="1096" 
d="M434 1333h508l-18 -88h-508z" />
    <glyph glyph-name="breve" unicode="&#x2d8;" horiz-adv-x="1135" 
d="M494 1440v21l2 20h69q0 -68 35.5 -103t121.5 -35t137.5 30.5t76.5 107.5h72q-57 -234 -293 -234q-105 0 -163 50.5t-58 142.5z" />
    <glyph glyph-name="dotaccent" unicode="&#x2d9;" horiz-adv-x="440" 
d="M385 1292q-59 0 -59 65q0 130 82 130q57 0 57 -65t-22.5 -97.5t-57.5 -32.5z" />
    <glyph glyph-name="ring" unicode="&#x2da;" horiz-adv-x="1182" 
d="M889 1446q0 57 -33.5 90t-90.5 33t-90.5 -36t-33.5 -93t33.5 -90t89.5 -33t90.5 36t34.5 93zM967 1448q0 -92 -57.5 -148.5t-147.5 -56.5t-145.5 52.5t-55.5 142.5t59.5 146t148.5 56t143.5 -50t54.5 -142z" />
    <glyph glyph-name="ogonek" unicode="&#x2db;" horiz-adv-x="348" 
d="M-43 -256q0 -82 88 -82q33 0 76 10v-71q-41 -15 -107 -15t-107.5 38t-41.5 108t48 133t169 135h72l-75 -60q-122 -94 -122 -196z" />
    <glyph glyph-name="tilde" unicode="&#x2dc;" horiz-adv-x="1135" 
d="M836 1346q84 0 118 131h76q-26 -118 -74.5 -173t-116.5 -55t-161 64q-34 23 -64 41t-72 18t-71 -28.5t-51 -100.5h-74q40 225 205 225q41 0 74 -14t101 -61t110 -47z" />
    <glyph glyph-name="hungarumlaut" unicode="&#x2dd;" horiz-adv-x="1135" 
d="M1104 1569v-23q-61 -82 -146.5 -171.5t-146.5 -133.5h-37v29q119 127 227 299h103zM791 1569v-23q-59 -80 -145 -170.5t-146 -134.5h-39v29q120 122 227 299h103z" />
    <glyph glyph-name="uni02F3" unicode="&#x2f3;" horiz-adv-x="682" 
d="M276 -324q0 58 -35 91.5t-89 33.5t-88.5 -33.5t-34.5 -91.5t31.5 -91.5t89.5 -33.5t92 33.5t34 91.5zM365 -324q0 -90 -58.5 -144t-154.5 -54t-150.5 53t-54.5 145t54.5 145.5t150.5 53.5t154.5 -54.5t58.5 -144.5z" />
    <glyph glyph-name="uni0300" unicode="&#x300;" horiz-adv-x="0" 
d="M-411 1241h-66q-50 53 -114 145t-99 162v21h115q46 -129 164 -303v-25z" />
    <glyph glyph-name="uni0301" unicode="&#x301;" horiz-adv-x="0" 
d="M-124 1569v-23q-52 -66 -158 -158t-192 -147h-67v21q67 51 151 142t129 165h137z" />
    <glyph glyph-name="uni0303" unicode="&#x303;" horiz-adv-x="0" 
d="M-326 1346q84 0 118 131h76q-26 -118 -74 -173t-117 -55q-68 0 -161 64q-34 23 -64 41t-72 18t-71 -28t-51 -101h-74q40 225 205 225q41 0 73 -14t102 -61q68 -47 110 -47z" />
    <glyph glyph-name="hook" unicode="&#x309;" horiz-adv-x="0" 
d="M-338 1516q0 79 -131 79q-48 0 -98 -10v70q46 10 98 10q221 0 221 -139q0 -152 -227 -193l-33 -125h-78l33 178q123 19 169 48t46 82z" />
    <glyph glyph-name="uni030F" unicode="&#x30f;" horiz-adv-x="0" 
d="M-449 1241h-73q-47 47 -116 147t-99 160v21h125q47 -132 163 -303v-25zM-780 1241h-74q-47 47 -116 147t-99 160v21h125q49 -137 164 -303v-25z" />
    <glyph glyph-name="dotbelow" unicode="&#x323;" horiz-adv-x="0" 
d="M-751 -313q-59 0 -59 65q0 130 82 130q57 0 57 -65t-22.5 -97.5t-57.5 -32.5z" />
    <glyph glyph-name="tonos" unicode="&#x384;" horiz-adv-x="1163" 
d="M973 1663v-31q-29 -70 -108.5 -191.5t-147.5 -199.5h-66v25q136 193 211 397h111z" />
    <glyph glyph-name="dieresistonos" unicode="&#x385;" horiz-adv-x="1163" 
d="M791 1716v-18q-26 -60 -82 -151.5t-111 -157.5h-57v16q94 174 133 311h117zM373 1300q-54 0 -54 60q0 119 76 119q51 0 51 -59q0 -120 -73 -120zM786 1300q-53 0 -53 60q0 119 76 119q51 0 51 -59q0 -120 -74 -120z" />
    <glyph glyph-name="Alphatonos" unicode="&#x386;" horiz-adv-x="1059" 
d="M793 612l-39 291q-31 242 -39 402q-60 -125 -371 -693h449zM805 520h-512l-287 -520h-117l822 1468h67l201 -1468h-105zM491 1558v-31q-29 -69 -109 -191t-147 -200h-66v25q136 193 211 397h111z" />
    <glyph glyph-name="anoteleia" unicode="&#x387;" horiz-adv-x="485" 
d="M207 698q0 56 25 88t69 33q66 0 66 -72q0 -53 -25 -87t-67 -35q-68 0 -68 73z" />
    <glyph glyph-name="Epsilontonos" unicode="&#x388;" horiz-adv-x="1098" 
d="M411 1558v-31q-29 -69 -109 -191t-147 -200h-66v25q136 193 211 397h111zM976 0h-727l310 1462h727l-21 -94h-624l-117 -553h590l-21 -94h-588l-135 -627h627z" />
    <glyph glyph-name="Etatonos" unicode="&#x389;" horiz-adv-x="1526" 
d="M411 1558v-31q-29 -69 -109 -191t-147 -200h-66v25q136 193 211 397h111zM1221 0h-100l151 719h-760l-149 -719h-103l310 1462h102l-139 -649h760l137 649h100z" />
    <glyph glyph-name="Iotatonos" unicode="&#x38a;" horiz-adv-x="659" 
d="M258 0l310 1462h98l-309 -1462h-99zM431 1558v-31q-29 -69 -109 -191t-147 -200h-66v25q136 193 211 397h111z" />
    <glyph glyph-name="Omicrontonos" unicode="&#x38c;" horiz-adv-x="1520" 
d="M425 1558v-31q-29 -69 -109 -191t-147 -200h-66v25q136 193 211 397h111zM948 1389q-190 0 -324 -101t-215 -298q-80 -198 -80 -430q-1 -232 109 -360t320 -128q169 0 300 98t210 300t79 436q-1 234 -105 359q-104 124 -294 124zM1456 921q0 -265 -94 -491t-252 -338
t-365 -112q-250 0 -385 149t-135 421t93 486q93 216 255 332t391 115q228 -1 360 -149t132 -413z" />
    <glyph glyph-name="Upsilontonos" unicode="&#x38e;" horiz-adv-x="1231" 
d="M813 645l544 817h117l-631 -932l-108 -530h-105l119 545l-237 917h100zM411 1558v-31q-29 -69 -109 -191t-147 -200h-66v25q136 193 211 397h111z" />
    <glyph glyph-name="Omegatonos" unicode="&#x38f;" horiz-adv-x="1583" 
d="M953 1389q-271 0 -433 -202q-78 -97 -124 -237t-46 -275t28 -237t76 -186q50 -84 157 -195l-11 -57h-499l18 94h346q-84 94 -126 174q-93 178 -93 406q0 227 94 421t254 291q158 97 363 97q251 1 385 -145t135 -413q0 -267 -123 -486t-334 -345h377l-18 -94h-560l11 57
q266 145 402 367t136 471t-108 371t-307 123zM452 1558v-31q-28 -69 -108 -191t-148 -200h-66v25q136 193 211 397h111z" />
    <glyph glyph-name="iotadieresistonos" unicode="&#x390;" horiz-adv-x="559" 
d="M346 68q55 0 131 20v-84q-85 -24 -167 -24t-136 58t-53 148q0 90 29 213l147 688h98l-153 -716q-23 -103 -23 -164q0 -139 127 -139zM597 1716v-18q-26 -60 -82 -152t-111 -157h-57v16q94 174 133 311h117zM179 1300q-54 0 -54 60q0 119 76 119q51 0 51 -59
q0 -120 -73 -120zM592 1300q-53 0 -53 60q0 119 76 119q51 0 51 -59q0 -120 -74 -120z" />
    <glyph glyph-name="Alpha" unicode="&#x391;" horiz-adv-x="1059" 
d="M793 612l-39 291q-31 242 -39 402q-60 -125 -371 -693h449zM805 520h-512l-287 -520h-117l822 1468h67l201 -1468h-105z" />
    <glyph glyph-name="Beta" unicode="&#x392;" horiz-adv-x="1202" 
d="M983 434q0 287 -365 287h-260l-135 -631h342q201 0 309 88t109 256zM655 811q206 0 313 81t107 238q0 118 -78 180t-229 62h-272l-119 -561h278zM791 1462q191 0 291 -84t100 -239t-90 -251t-254 -124v-4q124 -32 188 -114t64 -204q0 -206 -140 -324t-391 -118h-457
l310 1462h379z" />
    <glyph glyph-name="Gamma" unicode="&#x393;" horiz-adv-x="981" 
d="M205 0h-103l310 1462h708l-20 -94h-604z" />
    <glyph glyph-name="uni0394" unicode="&#x394;" horiz-adv-x="1092" 
d="M754 1305q-42 -90 -94 -188t-560 -1021h801q-70 531 -107 812t-40 397zM752 1468h67l193 -1402l-11 -66h-1046l14 70z" />
    <glyph glyph-name="Epsilon" unicode="&#x395;" horiz-adv-x="1067" 
d="M829 0h-727l310 1462h727l-21 -94h-624l-117 -553h590l-21 -94h-588l-135 -627h627z" />
    <glyph glyph-name="Zeta" unicode="&#x396;" 
d="M913 0h-925l22 92l1069 1276h-764l23 94h887l-19 -88l-1069 -1280h799z" />
    <glyph glyph-name="Eta" unicode="&#x397;" horiz-adv-x="1366" 
d="M1063 0h-100l151 719h-760l-149 -719h-103l310 1462h102l-139 -649h760l137 649h100z" />
    <glyph glyph-name="Theta" unicode="&#x398;" horiz-adv-x="1464" 
d="M895 1389q-190 0 -324.5 -101t-214.5 -298.5t-80 -429.5t109.5 -360t319.5 -128q169 0 300 98.5t210 300t79 435.5t-104.5 358.5t-294.5 124.5zM1403 921q0 -265 -94 -491.5t-252 -338t-365 -111.5q-250 0 -385 149t-135 421t93 487t255 330.5t391 115.5t360.5 -148.5
t131.5 -413.5zM1087 793l-18 -97h-600l18 97h600z" />
    <glyph glyph-name="Iota" unicode="&#x399;" horiz-adv-x="504" 
d="M102 0l310 1462h98l-309 -1462h-99z" />
    <glyph glyph-name="Kappa" unicode="&#x39a;" horiz-adv-x="1122" 
d="M979 0h-111l-342 788l-190 -153l-131 -635h-103l310 1462h102l-158 -723l133 121l680 602h138l-699 -610z" />
    <glyph glyph-name="Lambda" unicode="&#x39b;" horiz-adv-x="1100" 
d="M737 1331q-67 -148 -205 -391l-526 -940h-119l830 1462h92l207 -1462h-101l-139 985q-29 206 -35 346h-4z" />
    <glyph glyph-name="Mu" unicode="&#x39c;" horiz-adv-x="1669" 
d="M772 205l733 1257h150l-301 -1462h-101l191 901q79 369 100 447h-6l-780 -1348h-51l-222 1348h-6q-20 -154 -78 -426l-196 -922h-96l309 1462h143l205 -1257h6z" />
    <glyph glyph-name="Nu" unicode="&#x39d;" horiz-adv-x="1372" 
d="M1069 0h-86l-516 1284h-8q-23 -149 -48 -273t-214 -1011h-95l310 1462h80l522 -1294h8q23 176 74 416l188 878h94z" />
    <glyph glyph-name="Xi" unicode="&#x39e;" horiz-adv-x="1057" 
d="M889 94l-21 -94h-886l18 94h889zM330 1462h809l-19 -94h-811zM285 815h626l-18 -94h-627z" />
    <glyph glyph-name="Omicron" unicode="&#x39f;" horiz-adv-x="1464" 
d="M895 1389q-191 0 -325 -101t-214 -298q-80 -198 -80 -430t110 -360t319 -128q169 0 300 98t210 300t79 436t-104 359q-104 124 -295 124zM1403 921q0 -265 -94 -491t-252 -338t-365 -112q-250 0 -385 149t-135 421t93 486q93 216 255 332t391 115t361 -149t131 -413z" />
    <glyph glyph-name="Pi" unicode="&#x3a0;" horiz-adv-x="1374" 
d="M1063 0h-100l288 1366h-757l-289 -1366h-103l310 1462h960z" />
    <glyph glyph-name="Rho" unicode="&#x3a1;" horiz-adv-x="1145" 
d="M541 694q251 0 373 96t122 306q0 274 -329 274h-211l-146 -676h191zM1145 1102q0 -500 -610 -500h-201l-129 -602h-103l310 1462h315q202 0 310 -92t108 -268z" />
    <glyph glyph-name="Sigma" unicode="&#x3a3;" horiz-adv-x="1044" 
d="M-23 0l15 88l626 655l-337 635l16 84h840l-19 -94h-530l-197 4l336 -641l-612 -641l151 4h639l-20 -94h-908z" />
    <glyph glyph-name="Tau" unicode="&#x3a4;" horiz-adv-x="985" 
d="M438 0h-102l289 1368h-432l20 94h973l-19 -94h-440z" />
    <glyph glyph-name="Upsilon" unicode="&#x3a5;" horiz-adv-x="965" 
d="M494 645l544 817h117l-631 -932l-108 -530h-105l119 545l-237 917h100z" />
    <glyph glyph-name="Phi" unicode="&#x3a6;" horiz-adv-x="1446" 
d="M258 672q0 -164 100 -263.5t273 -103.5l188 893q-351 -6 -456 -184t-105 -342zM1288 840q0 163 -92 257.5t-274 100.5l-189 -893q264 8 409.5 147t145.5 388zM156 698q0 154 125 368t559 226l41 191h100l-39 -191q218 -14 334.5 -129.5t116.5 -309.5t-84 -337.5
t-237 -219.5t-357 -83l-51 -233h-103l49 233q-144 8 -245.5 69.5t-155 161.5t-53.5 254z" />
    <glyph glyph-name="Chi" unicode="&#x3a7;" horiz-adv-x="971" 
d="M879 0h-107l-254 678l-526 -678h-127l608 766l-272 696h106l240 -626l483 626h119l-555 -719z" />
    <glyph glyph-name="Psi" unicode="&#x3a8;" horiz-adv-x="1419" 
d="M770 455h-12l-96 -455h-103l96 455h-8q-212 0 -325 100.5t-113 292.5q0 102 29 239l79 375h103q-55 -258 -85.5 -399.5t-25.5 -206.5q0 -160 86 -236.5t267 -76.5h12l194 919h103l-195 -919h10q235 0 360.5 105t178.5 351l100 463h101l-105 -485q-56 -275 -214.5 -398.5
t-436.5 -123.5z" />
    <glyph glyph-name="uni03A9" unicode="&#x3a9;" horiz-adv-x="1511" 
d="M879 1389q-271 0 -391 -149.5t-166 -289t-46 -275.5t27.5 -237.5t77 -186t156.5 -194.5l-11 -57h-499l18 94h346q-84 94 -151.5 223.5t-67.5 356.5t94.5 421t253 291t363.5 97q251 0 385.5 -145.5t134.5 -412.5t-123 -486t-334 -345h377l-18 -94h-560l11 57
q265 146 401.5 367.5t136.5 470.5t-108 371.5t-307 122.5z" />
    <glyph glyph-name="Iotadieresis" unicode="&#x3aa;" horiz-adv-x="504" 
d="M102 0l310 1462h98l-309 -1462h-99zM315 1641q-55 0 -55 56q0 114 77 114q54 0 54 -56t-21 -85t-55 -29zM659 1641q-55 0 -55 56q0 114 77 114q54 0 54 -56t-21 -85t-55 -29z" />
    <glyph glyph-name="Upsilondieresis" unicode="&#x3ab;" horiz-adv-x="965" 
d="M494 645l544 817h117l-631 -932l-108 -530h-105l119 545l-237 917h100zM507 1641q-55 0 -55 56q0 114 77 114q54 0 54 -56t-21 -85t-55 -29zM851 1641q-55 0 -55 56q0 114 77 114q54 0 54 -56t-21 -85t-55 -29z" />
    <glyph glyph-name="alphatonos" unicode="&#x3ac;" horiz-adv-x="1137" 
d="M205 365q0 -295 201 -295q92 0 182 62t158 165q68 104 104 227q36 124 37 210q0 86 -26 148q-56 136 -204 136q-124 0 -224 -82t-164 -246t-64 -325zM655 1104q231 0 285 -230h6q52 143 105 213h82q-81 -138 -153 -472q-72 -335 -78 -381t-7 -70q0 -98 76 -98q39 0 94 22
v-78q-60 -30 -130 -30t-105 44t-35 108t12 142h-6q-164 -294 -418 -294q-281 0 -281 374q0 197 75 376q75 178 201 276t277 98zM956 1663v-31q-28 -70 -108 -192t-148 -199h-66v25q136 193 211 397h111z" />
    <glyph glyph-name="epsilontonos" unicode="&#x3ad;" horiz-adv-x="840" 
d="M589 1016q-136 0 -207 -56t-71 -152q0 -192 242 -192h86l-18 -92h-113q-168 0 -257 -66t-89 -177q0 -215 241 -215q81 0 175 24t163 64v-93q-157 -81 -330 -81t-263 74t-89 205q0 131 82 217t228 106v4q-72 26 -116 80t-44 135q0 139 103 221q102 82 270 82t295 -66
l-39 -86q-113 64 -249 64zM880 1663v-31q-28 -70 -108 -192t-148 -199h-66v25q136 193 211 397h111z" />
    <glyph glyph-name="etatonos" unicode="&#x3ae;" horiz-adv-x="1153" 
d="M934 856q0 72 -44 117t-144 45q-102 0 -200 -67q-196 -133 -270 -474l-102 -477h-98l231 1087h82l-37 -221h6q164 238 416 238q130 0 195 -64t65 -184q0 -70 -24 -182l-256 -1166h-97l256 1184q21 92 21 164zM975 1663v-31q-29 -70 -109 -192t-147 -199h-66v25
q136 193 211 397h111z" />
    <glyph glyph-name="iotatonos" unicode="&#x3af;" horiz-adv-x="559" 
d="M337 68q55 0 131 20v-84q-84 -24 -166 -24t-136 58t-54 148t29 213l147 688h98l-153 -716q-23 -103 -23 -164q0 -139 127 -139zM634 1663v-31q-28 -70 -108 -192t-148 -199h-66v25q136 193 211 397h111z" />
    <glyph glyph-name="upsilondieresistonos" unicode="&#x3b0;" horiz-adv-x="1139" 
d="M496 66q462 0 462 1021h103q0 -1107 -578 -1107q-162 0 -252 92t-90 254q0 105 37 270l105 491h102l-102 -479q-39 -190 -39 -274q0 -132 64 -200t188 -68zM914 1716v-18q-26 -60 -82 -152t-111 -157h-57v16q94 174 133 311h117zM496 1300q-54 0 -54 60q0 119 76 119
q51 0 51 -59q0 -120 -73 -120zM909 1300q-53 0 -53 60q0 119 76 119q51 0 51 -59q0 -120 -74 -120z" />
    <glyph glyph-name="alpha" unicode="&#x3b1;" horiz-adv-x="1137" 
d="M205 365q0 -295 201 -295q92 0 181.5 61.5t158 165.5t105 227.5t36.5 209.5t-41 185t-189 99q-124 0 -224 -82t-164 -245.5t-64 -325.5zM655 1104q231 0 285 -230h6q52 143 105 213h82q-81 -138 -153 -472t-78.5 -380.5t-6.5 -70.5q0 -98 76 -98q39 0 94 22v-78
q-60 -30 -130 -30t-105 44t-35 108t12 142h-6q-164 -294 -418 -294q-281 0 -281 374q0 197 75 376t200.5 276.5t277.5 97.5z" />
    <glyph glyph-name="beta" unicode="&#x3b2;" horiz-adv-x="1151" 
d="M768 1481q-108 0 -176 -40.5t-111.5 -117t-72.5 -215.5l-197 -920q70 -56 158 -89t174 -33q170 0 271 101.5t101 274.5q0 334 -362 334h-53l16 82h59q211 0 322 95.5t111 279.5q0 118 -66 183t-174 65zM757 1567q168 0 260.5 -87.5t92.5 -221.5t-68.5 -271t-285.5 -172
q125 -31 193.5 -127.5t68.5 -235.5t-57.5 -246t-164 -166.5t-241.5 -59.5t-214 36.5t-148 87.5l-130 -596h-94l348 1618q50 233 161 337t279 104z" />
    <glyph glyph-name="gamma" unicode="&#x3b3;" horiz-adv-x="883" 
d="M221 -492h-102q27 206 188 506l-184 1073h100l103 -636q19 -113 45 -342h4q69 151 168 329l352 649h100l-567 -1042q-177 -321 -207 -537z" />
    <glyph glyph-name="delta" unicode="&#x3b4;" horiz-adv-x="1096" 
d="M468 66q130 0 219 58.5t137 161.5t48 225t-40.5 214t-137.5 172q-273 -68 -393.5 -195.5t-120.5 -322.5q0 -147 79 -230t209 -83zM422 1280q0 129 92 208t248 79t328 -115l-46 -78q-160 107 -282 107t-180 -55.5t-58 -142.5t50 -147t148 -141t175.5 -186.5t77.5 -272.5
q0 -166 -65.5 -294t-180 -195t-277.5 -67t-268.5 107t-105.5 282q0 456 549 589q-205 155 -205 322z" />
    <glyph glyph-name="epsilon" unicode="&#x3b5;" horiz-adv-x="840" 
d="M589 1016q-136 0 -207 -56t-71 -152q0 -192 242 -192h86l-18 -92h-113q-168 0 -257 -66.5t-89 -176.5q0 -215 241 -215q82 0 175.5 24.5t162.5 63.5v-93q-157 -81 -330 -81t-262.5 74t-89.5 205t82 216.5t228 106.5v4q-72 25 -116 79.5t-44 135.5q0 138 102.5 220.5
t270.5 82.5t295 -66l-39 -86q-113 64 -249 64z" />
    <glyph glyph-name="zeta" unicode="&#x3b6;" horiz-adv-x="905" 
d="M117 385q0 227 186 480.5t627 613.5q-96 -6 -230 -6h-268l19 83h602l-19 -83l-191 -172q-226 -200 -424 -422.5t-198 -481.5q0 -160 69.5 -219t175.5 -102t171 -89t65 -147q0 -64 -35 -128t-124 -150h-117q90 83 135 144.5t45 115.5t-36.5 90.5t-176.5 88.5t-208 143.5
t-68 240.5z" />
    <glyph glyph-name="eta" unicode="&#x3b7;" horiz-adv-x="1153" 
d="M934 856q0 72 -43 117t-145 45t-249 -100t-221 -441l-102 -477h-98l231 1087h82l-37 -221h6q164 238 416 238q130 0 195 -64t65 -184q0 -70 -24 -182l-256 -1166h-97l256 1184q21 92 21 164z" />
    <glyph glyph-name="theta" unicode="&#x3b8;" horiz-adv-x="1079" 
d="M123 434q0 316 113 651.5t256.5 414.5t261.5 79q331 0 331 -432q0 -133 -28 -311t-84.5 -351.5t-167 -339t-344.5 -165.5q-338 0 -338 454zM741 1495q-331 0 -469 -635h693q26 150 26 308q0 328 -250 327zM471 66q169 0 284.5 168t194.5 536h-696q-12 -55 -23.5 -158
t-11.5 -172q0 -190 61.5 -282t190.5 -92z" />
    <glyph glyph-name="iota" unicode="&#x3b9;" horiz-adv-x="559" 
d="M346 68q55 0 131 20v-84q-85 -24 -167 -24t-135.5 58t-53.5 148t29 213l147 688h98l-153 -716q-23 -103 -23 -164q0 -139 127 -139z" />
    <glyph glyph-name="kappa" unicode="&#x3ba;" horiz-adv-x="944" 
d="M270 477l609 610h125l-474 -469l297 -618h-106l-264 559l-205 -188l-80 -371h-96l229 1087h96l-65 -311l-70 -299h4z" />
    <glyph glyph-name="lambda" unicode="&#x3bb;" horiz-adv-x="895" 
d="M315 1485q-39 0 -104 -17l-8 82q51 19 125 19q119 0 180.5 -63t77.5 -212l110 -1112q7 -63 25.5 -93t55.5 -30t73 13v-78q-38 -14 -102 -14q-128 0 -146 182l-47 495q-15 170 -20 308h-7q-49 -107 -125 -240l-415 -725h-103l629 1090l-20 192q-10 105 -50.5 154
t-128.5 49z" />
    <glyph glyph-name="uni03BC" unicode="&#x3bc;" horiz-adv-x="1171" 
d="M403 -16q-168 0 -215 122h-6q-18 -132 -51 -284l-63 -314h-97l338 1579h101l-152 -698q-20 -97 -20 -163t48 -111t148 -45q98 0 195 64q191 127 264 468l104 485h99l-234 -1087h-78l29 205h-6q-164 -221 -404 -221z" />
    <glyph glyph-name="nu" unicode="&#x3bd;" horiz-adv-x="936" 
d="M121 1087h98l70 -571q27 -226 45 -426q202 167 346.5 423.5t208.5 573.5h98q-68 -345 -221 -610.5t-404 -476.5h-100z" />
    <glyph glyph-name="xi" unicode="&#x3be;" horiz-adv-x="874" 
d="M512 829q-240 45 -240 279q0 120 100.5 223t284.5 150q-115 -8 -202 -8h-109l19 83h602l-21 -83h-33q-131 0 -266 -53.5t-206.5 -136t-71.5 -183.5q0 -234 368 -234h78l-20 -84h-72q-164 0 -361.5 -76.5t-197.5 -324.5q0 -103 53 -171t185 -114t201 -92t69 -169.5
t-146 -250.5h-120q161 132 161 260q0 48 -31 80t-129 68q-191 70 -269.5 149t-78.5 243t119.5 283t333.5 158v4z" />
    <glyph glyph-name="omicron" unicode="&#x3bf;" horiz-adv-x="1124" 
d="M648 1022q-130 0 -230 -78q-99 -78 -158 -226q-59 -146 -59 -310q0 -342 282 -342q127 0 225 78t158 228q58 150 58 317t-73 250t-203 83zM660 1108q168 0 268 -108q98 -108 98 -303q0 -193 -72 -365t-195 -262q-124 -90 -297 -90q-172 0 -268 110t-96 306q0 198 73 365
t197 257t292 90z" />
    <glyph glyph-name="pi" unicode="&#x3c0;" horiz-adv-x="1106" 
d="M793 148q0 -88 77 -87q39 0 86 13v-82q-44 -12 -110 -12t-109 43t-43 106t21 154l153 723h-467l-213 -1006h-98l213 1006h-213l14 63l187 18h885l-19 -81h-192l-156 -742q-16 -76 -16 -116z" />
    <glyph glyph-name="rho" unicode="&#x3c1;" horiz-adv-x="1137" 
d="M654 1022q-136 0 -221 -90t-132 -305l-92 -434q127 -127 287 -127q259 0 349.5 229t90.5 395t-73 249t-209 83zM668 1108q173 0 271.5 -107.5t98.5 -304.5t-72 -368.5t-193 -259.5t-275 -88q-89 0 -160 28t-148 98q-28 -152 -124 -598h-99l250 1174q95 426 451 426z" />
    <glyph glyph-name="sigma1" unicode="&#x3c2;" horiz-adv-x="918" 
d="M600 -195q0 61 -37.5 97.5t-144.5 77.5q-175 64 -245.5 163t-70.5 281t75 346.5t201 249t272 84.5t255 -43l-28 -90q-111 47 -229 47t-222 -78.5t-162.5 -219t-58.5 -312.5t75 -236.5t202 -113.5t173.5 -101t46.5 -135q0 -129 -145 -260h-121q164 142 164 243z" />
    <glyph glyph-name="sigma" unicode="&#x3c3;" horiz-adv-x="1137" 
d="M735 1006q-252 0 -390 -145t-138 -406q0 -188 82 -288.5t235 -100.5q119 0 253 101.5t134 471.5q0 83 -18.5 186t-48.5 181h-109zM1014 633q0 -307 -132 -480t-372 -173q-192 0 -299 123t-107 331t116 430.5t511 222.5h461l-18 -81h-240q35 -70 57.5 -173.5t22.5 -199.5z
" />
    <glyph glyph-name="tau" unicode="&#x3c4;" horiz-adv-x="770" 
d="M472 68q62 0 153 26v-86q-17 -7 -72.5 -17.5t-97.5 -10.5q-99 0 -153 55t-54 147t28 217l130 607h-334l14 63l184 18h580l-16 -81h-330l-135 -635q-23 -107 -23 -168t32 -98t94 -37z" />
    <glyph glyph-name="upsilon" unicode="&#x3c5;" horiz-adv-x="1139" 
d="M496 66q462 0 462 1021h103q0 -1107 -578 -1107q-162 0 -252 91.5t-90 254.5q0 105 37 270l105 491h102l-102 -479q-39 -190 -39 -274q0 -132 64 -200t188 -68z" />
    <glyph glyph-name="phi" unicode="&#x3c6;" horiz-adv-x="1274" 
d="M1120 710q0 308 -184 308q-82 0 -133 -56t-76 -176l-156 -723q170 10 294.5 96t189.5 236.5t65 314.5zM59 430q0 193 77 355.5t247 320.5l63 -64q-149 -136 -217.5 -278t-68.5 -317t81.5 -272t235.5 -112l160 742q63 303 311 303q124 0 196.5 -95t72.5 -261
q0 -226 -80 -401t-229.5 -271.5t-354.5 -104.5l-98 -467h-97l101 469q-191 20 -295.5 140t-104.5 313z" />
    <glyph glyph-name="chi" unicode="&#x3c7;" horiz-adv-x="993" 
d="M227 1098q59 0 96 -21.5t58 -61t35 -145.5l55 -452l481 669h107l-567 -788l69 -524q12 -100 44 -139t85 -39t92 14v-82q-53 -21 -112 -21q-177 0 -203 230l-57 471l-506 -701h-119l606 822l-65 512q-11 85 -30 126.5t-85 41.5q-38 0 -78 -17l-18 84q53 21 112 21z" />
    <glyph glyph-name="psi" unicode="&#x3c8;" horiz-adv-x="1364" 
d="M1184 1087h102q0 -391 -74.5 -624t-224 -347.5t-373.5 -123.5l-102 -484h-94l102 484q-180 17 -273 120.5t-93 278.5q0 96 30 238l99 458h102l-98 -454q-31 -139 -31 -232q0 -293 283 -323q282 1307 317 1478h94q-237 -1094 -317 -1478q286 17 418.5 257.5t132.5 751.5z
" />
    <glyph glyph-name="omega" unicode="&#x3c9;" horiz-adv-x="1364" 
d="M1294 728q0 -210 -60 -389.5t-162 -269t-236 -89.5q-88 0 -149.5 47t-78.5 131q-93 -178 -270 -178q-130 0 -200 95t-70 269q0 401 272 743h102q-276 -384 -276 -739q0 -280 186 -280q180 0 246 292l72 332h96l-66 -309q-18 -89 -18 -157t42 -113t120 -45
q157 0 254.5 186.5t97.5 482.5q0 199 -31 350h92q37 -149 37 -359z" />
    <glyph glyph-name="iotadieresis" unicode="&#x3ca;" horiz-adv-x="559" 
d="M346 68q55 0 131 20v-84q-85 -24 -167 -24t-136 58t-53 148q0 90 29 213l147 688h98l-153 -716q-23 -103 -23 -164q0 -139 127 -139zM239 1303q-55 0 -55 56q0 114 77 114q54 0 54 -56t-21 -85t-55 -29zM583 1303q-55 0 -55 56q0 114 77 114q54 0 54 -56t-21 -85t-55 -29
z" />
    <glyph glyph-name="upsilondieresis" unicode="&#x3cb;" horiz-adv-x="1139" 
d="M496 66q462 0 462 1021h103q0 -1107 -578 -1107q-162 0 -252 92t-90 254q0 105 37 270l105 491h102l-102 -479q-39 -190 -39 -274q0 -132 64 -200t188 -68zM540 1303q-55 0 -55 56q0 114 77 114q54 0 54 -56t-21 -85t-55 -29zM884 1303q-55 0 -55 56q0 114 77 114
q54 0 54 -56t-21 -85t-55 -29z" />
    <glyph glyph-name="omicrontonos" unicode="&#x3cc;" horiz-adv-x="1124" 
d="M648 1022q-130 0 -230 -78q-99 -78 -158 -226q-59 -146 -59 -310q0 -342 282 -342q127 0 225 78t158 228q58 150 58 317t-73 250t-203 83zM660 1108q168 0 268 -108q98 -108 98 -303q0 -193 -72 -365t-195 -262q-124 -90 -297 -90q-172 0 -268 110t-96 306q0 198 73 365
t197 257t292 90zM964 1663v-31q-28 -70 -108 -192t-148 -199h-66v25q136 193 211 397h111z" />
    <glyph glyph-name="upsilontonos" unicode="&#x3cd;" horiz-adv-x="1139" 
d="M496 66q462 0 462 1021h103q0 -1107 -578 -1107q-162 0 -252 92t-90 254q0 105 37 270l105 491h102l-102 -479q-39 -190 -39 -274q0 -132 64 -200t188 -68zM949 1663v-31q-29 -70 -109 -192t-147 -199h-66v25q136 193 211 397h111z" />
    <glyph glyph-name="omegatonos" unicode="&#x3ce;" horiz-adv-x="1364" 
d="M1294 728q0 -210 -60 -390t-162 -268q-102 -90 -236 -90q-88 0 -150 47t-78 131q-93 -178 -270 -178q-130 0 -200 95t-70 269q0 401 272 743h102q-276 -384 -276 -739q0 -280 186 -280q180 0 246 292l72 332h96l-66 -309q-18 -89 -18 -157t42 -113t120 -45q156 0 254 186
t98 483q0 199 -31 350h92q37 -149 37 -359zM1114 1663v-31q-28 -70 -108 -192t-148 -199h-66v25q136 193 211 397h111z" />
    <glyph glyph-name="uni03D1" unicode="&#x3d1;" horiz-adv-x="1036" 
d="M852 1071q0 420 -223 420q-96 0 -153.5 -64.5t-57.5 -170.5t41 -168t124 -92.5t236 -30.5h29q4 42 4 106zM299 -20q-126 0 -199 72.5t-73 190.5q0 117 63 269t72.5 185t9.5 61t-18.5 42.5t-54.5 14.5t-87 -31l15 90q54 27 109 27t92.5 -38.5t37.5 -105.5t-49 -178
t-70.5 -183t-21.5 -150t50 -128t140 -50q133 0 244 101t187 295.5t98 418.5h-23q-253 0 -378.5 89.5t-125.5 274.5q0 147 87.5 238.5t235.5 91.5t230 -124.5t82 -362.5l-4 -125h144l-15 -82h-135q-15 -169 -73.5 -349.5t-145.5 -306t-192.5 -186.5t-231.5 -61z" />
    <glyph glyph-name="uni03D2" unicode="&#x3d2;" horiz-adv-x="975" 
d="M1120 1475q44 0 64.5 -5t34.5 -8l-27 -88q-28 10 -59 10q-59 0 -111.5 -52.5t-186 -261t-311.5 -540.5l-108 -530h-105l119 545l-237 917h100l201 -817q290 542 408 686t218 144z" />
    <glyph glyph-name="uni03D6" unicode="&#x3d6;" horiz-adv-x="1464" 
d="M1206 666q0 174 -32 340h-687q-260 -327 -260 -654q0 -284 179 -284q82 0 140 68t93 224l59 275h97l-54 -252q-18 -99 -18 -158t40.5 -108t122.5 -49t156 71.5t119 212t45 314.5zM1307 636q0 -173 -86 -414.5t-353 -241.5q-86 0 -143 47t-76 131q-94 -178 -258 -178
q-266 0 -266 364q0 173 68 344.5t192 317.5h-270l14 63l186 18h1215l-19 -81h-247q43 -197 43 -370z" />
    <glyph glyph-name="uni0400" unicode="&#x400;" horiz-adv-x="1067" 
d="M829 0h-727l310 1462h727l-21 -94h-624l-117 -553h590l-21 -94h-588l-135 -627h627zM891 1579h-66q-50 53 -114 145t-99 162v21h115q46 -129 164 -303v-25z" />
    <glyph glyph-name="afii10023" unicode="&#x401;" horiz-adv-x="1067" 
d="M829 0h-727l310 1462h727l-21 -94h-624l-117 -553h590l-21 -94h-588l-135 -627h627zM613 1641q-55 0 -55 56q0 114 77 114q54 0 54 -56t-21 -85t-55 -29zM957 1641q-55 0 -55 56q0 114 77 114q54 0 54 -56t-21 -85t-55 -29z" />
    <glyph glyph-name="afii10051" unicode="&#x402;" horiz-adv-x="1292" 
d="M731 80q121 0 183.5 60t89.5 210l16 90q12 64 12 133q0 109 -59.5 159t-190.5 50h-301l-164 -782h-102l289 1368h-307l20 94h850l-18 -94h-443l-106 -496h305q167 0 248.5 -76.5t81.5 -211.5q0 -75 -15 -148l-24 -129q-32 -164 -120 -242.5t-245 -78.5q-59 0 -129 14v98
q84 -18 129 -18z" />
    <glyph glyph-name="afii10052" unicode="&#x403;" horiz-adv-x="981" 
d="M205 0h-103l310 1462h708l-20 -94h-604zM1081 1907v-23q-51 -66 -157 -158t-193 -147h-67v21q66 51 150 142t130 165h137z" />
    <glyph glyph-name="afii10053" unicode="&#x404;" horiz-adv-x="1169" 
d="M961 1389q-241 0 -411 -151t-239 -415h676l-18 -94h-678q-17 -85 -17 -190q0 -226 111.5 -346.5t316.5 -120.5q140 0 304 51v-94q-156 -49 -316 -49q-252 0 -386 143t-134 407t101 484.5t280.5 344.5t409.5 124q177 0 307 -68l-45 -90q-113 64 -262 64z" />
    <glyph glyph-name="afii10054" unicode="&#x405;" horiz-adv-x="1020" 
d="M694 1397q-170 -1 -266 -83t-96 -218q0 -103 49 -170q49 -68 193 -140t202 -123q118 -102 119 -260q1 -127 -65 -225q-132 -198 -449 -198q-185 0 -344 75v109q163 -92 349 -92t294 86t108 233q0 114 -70 183q-36 35 -90 68q-56 33 -132 75q-150 76 -210 164t-59 206
q0 117 59 207t165 140t221 49q115 1 196 -17t168 -61l-32 -94q-141 86 -310 86z" />
    <glyph glyph-name="afii10055" unicode="&#x406;" horiz-adv-x="504" 
d="M102 0l310 1462h98l-309 -1462h-99z" />
    <glyph glyph-name="afii10056" unicode="&#x407;" horiz-adv-x="504" 
d="M102 0l310 1462h98l-309 -1462h-99zM315 1641q-55 0 -55 56q0 114 77 114q54 0 54 -56t-21 -85t-55 -29zM659 1641q-55 0 -55 56q0 114 77 114q54 0 54 -56t-21 -85t-55 -29z" />
    <glyph glyph-name="afii10057" unicode="&#x408;" horiz-adv-x="477" 
d="M-180 -360q-96 0 -144 24l11 92q57 -20 137 -20q213 0 262 241l309 1485h105l-314 -1491q-35 -171 -125 -251t-241 -80z" />
    <glyph glyph-name="afii10058" unicode="&#x409;" horiz-adv-x="1817" 
d="M1161 90q205 0 315.5 92t110.5 277q0 134 -74.5 198t-224.5 64h-231l-135 -631h239zM1694 465q0 -223 -140 -344t-391 -121h-362l289 1368h-371l-40 -137q-257 -881 -363 -1067.5t-274 -186.5q-78 0 -126 17v96q44 -16 112 -16t122.5 44t127 190t363.5 1154h573
l-139 -651h232q187 0 287 -89.5t100 -256.5z" />
    <glyph glyph-name="afii10059" unicode="&#x40a;" horiz-adv-x="1894" 
d="M1239 90q204 0 315 92t111 277q0 132 -73.5 196t-225.5 64h-231l-136 -629h240zM1772 465q0 -223 -140 -344t-391 -121h-362l151 719h-676l-149 -719h-103l310 1462h102l-139 -649h676l137 649h104l-139 -649h231q186 0 287 -90.5t101 -257.5z" />
    <glyph glyph-name="afii10060" unicode="&#x40b;" horiz-adv-x="1313" 
d="M1036 563q0 115 -59.5 167t-194.5 52h-301l-164 -782h-102l289 1368h-307l20 94h850l-18 -94h-443l-106 -496h305q332 0 332 -294q0 -41 -6.5 -82.5t-108.5 -495.5h-98l84 379q28 117 28 184z" />
    <glyph glyph-name="afii10061" unicode="&#x40c;" horiz-adv-x="1106" 
d="M1040 0h-129l-555 729l-151 -729h-103l310 1462h102l-158 -727l787 727h143l-809 -733zM1138 1907v-23q-52 -66 -158 -158t-192 -147h-67v21q67 51 151 142t129 165h137z" />
    <glyph glyph-name="uni040D" unicode="&#x40d;" horiz-adv-x="1368" 
d="M412 1462h102l-186 -878q-79 -346 -95 -406l1035 1284h110l-309 -1462h-100q121 569 185 876t99 431l-1050 -1307h-101zM969 1579h-66q-50 53 -114 145t-99 162v21h115q46 -129 164 -303v-25z" />
    <glyph glyph-name="afii10062" unicode="&#x40e;" horiz-adv-x="1145" 
d="M133 -20q-93 0 -156 30v111q67 -37 170 -37t195 72t209 264l-318 1042h105l194 -651q13 -41 89 -319q33 61 89 156t507 814h116l-723 -1140q-112 -180 -224 -261t-253 -81zM779 1579q-145 0 -211 58t-65 155q0 38 13 74h82q-8 -45 -8 -62q0 -68 42 -104t144 -35
q231 0 258 201h94q-16 -137 -110 -212t-239 -75z" />
    <glyph glyph-name="afii10145" unicode="&#x40f;" horiz-adv-x="1374" 
d="M412 1462h100l-289 -1366h758l289 1366h102l-309 -1462h-424l-76 -356h-100l78 356h-439z" />
    <glyph glyph-name="afii10017" unicode="&#x410;" horiz-adv-x="1059" 
d="M793 612l-39 291q-31 242 -39 402q-60 -125 -371 -693h449zM805 520h-512l-287 -520h-117l822 1468h67l201 -1468h-105z" />
    <glyph glyph-name="afii10018" unicode="&#x411;" horiz-adv-x="1112" 
d="M463 90q204 0 315 92t111 277q0 134 -74.5 198t-224.5 64h-232l-135 -631h240zM995 465q0 -222 -139 -343.5t-391 -121.5h-363l310 1462h680l-21 -94h-575l-119 -557h231q187 0 287 -89.5t100 -256.5z" />
    <glyph glyph-name="afii10019" unicode="&#x412;" horiz-adv-x="1202" 
d="M983 434q0 287 -365 287h-260l-135 -631h342q201 0 309 88t109 256zM655 811q206 0 313 81t107 238q0 118 -78 180t-229 62h-272l-119 -561h278zM791 1462q191 0 291 -84t100 -239t-90 -251t-254 -124v-4q124 -32 188 -114t64 -204q0 -206 -140 -324t-391 -118h-457
l310 1462h379z" />
    <glyph glyph-name="afii10020" unicode="&#x413;" horiz-adv-x="981" 
d="M205 0h-103l310 1462h708l-20 -94h-604z" />
    <glyph glyph-name="afii10021" unicode="&#x414;" horiz-adv-x="1165" 
d="M762 1368q-146 -435 -308.5 -765.5t-314.5 -508.5h697l270 1274h-344zM20 94q352 409 670 1368h539l-291 -1368h170l-98 -450h-105l80 356h-967l-81 -356h-101l105 450h79z" />
    <glyph glyph-name="afii10022" unicode="&#x415;" horiz-adv-x="1067" 
d="M829 0h-727l310 1462h727l-21 -94h-624l-117 -553h590l-21 -94h-588l-135 -627h627z" />
    <glyph glyph-name="afii10024" unicode="&#x416;" horiz-adv-x="1491" 
d="M641 760l-424 702h125l414 -704l147 704h103l-152 -706l692 706h140l-717 -725l434 -737h-123l-430 737l-154 -737h-102l158 739l-699 -739h-141z" />
    <glyph glyph-name="afii10025" unicode="&#x417;" horiz-adv-x="1020" 
d="M987 1164q0 -155 -91 -258.5t-267 -145.5v-4q130 -23 199 -110.5t69 -222.5t-101.5 -289t-437.5 -154q-211 0 -389 79v117q183 -106 395 -106t321.5 93.5t109.5 260.5q0 287 -373 287h-182l18 96h178q131 0 289 67t158 285q0 114 -67 176t-191 62q-168 0 -340 -119
l-54 76q190 129 406 129q165 0 257.5 -82t92.5 -237z" />
    <glyph glyph-name="afii10026" unicode="&#x418;" horiz-adv-x="1368" 
d="M412 1462h102l-186 -878q-79 -346 -95 -406l1035 1284h110l-309 -1462h-100q120 569 184.5 876t99.5 431l-1050 -1307h-101z" />
    <glyph glyph-name="afii10027" unicode="&#x419;" horiz-adv-x="1368" 
d="M412 1462h102l-186 -878q-79 -346 -95 -406l1035 1284h110l-309 -1462h-100q121 569 185 876t99 431l-1050 -1307h-101zM904 1579q-144 0 -210 58t-66 155q0 38 13 74h82q-8 -45 -8 -62q1 -68 43 -104t143 -35q231 0 258 201h94q-17 -137 -111 -212t-238 -75z" />
    <glyph glyph-name="afii10028" unicode="&#x41a;" horiz-adv-x="1106" 
d="M1040 0h-129l-555 729l-151 -729h-103l310 1462h102l-158 -727l787 727h143l-809 -733z" />
    <glyph glyph-name="afii10029" unicode="&#x41b;" horiz-adv-x="1266" 
d="M28 74q68 0 122.5 44t127 190t363.5 1154h633l-309 -1462h-101l289 1368h-434l-40 -137q-257 -881 -363 -1067.5t-274 -186.5q-78 0 -126 17v96q44 -16 112 -16z" />
    <glyph glyph-name="afii10030" unicode="&#x41c;" horiz-adv-x="1669" 
d="M772 205l733 1257h150l-301 -1462h-101l191 901q79 369 100 447h-6l-780 -1348h-51l-222 1348h-6q-20 -154 -78 -426l-196 -922h-96l309 1462h143l205 -1257h6z" />
    <glyph glyph-name="afii10031" unicode="&#x41d;" horiz-adv-x="1366" 
d="M1063 0h-100l151 719h-760l-149 -719h-103l310 1462h102l-139 -649h760l137 649h100z" />
    <glyph glyph-name="afii10032" unicode="&#x41e;" horiz-adv-x="1464" 
d="M895 1389q-191 0 -325 -101t-214 -298q-80 -198 -80 -430t110 -360t319 -128q169 0 300 98t210 300t79 436t-104 359q-104 124 -295 124zM1403 921q0 -265 -94 -491t-252 -338t-365 -112q-250 0 -385 149t-135 421t93 486q93 216 255 332t391 115t361 -149t131 -413z" />
    <glyph glyph-name="afii10033" unicode="&#x41f;" horiz-adv-x="1374" 
d="M1063 0h-100l288 1366h-757l-289 -1366h-103l310 1462h960z" />
    <glyph glyph-name="afii10034" unicode="&#x420;" horiz-adv-x="1145" 
d="M541 694q251 0 373 96t122 306q0 274 -329 274h-211l-146 -676h191zM1145 1102q0 -500 -610 -500h-201l-129 -602h-103l310 1462h315q202 0 310 -92t108 -268z" />
    <glyph glyph-name="afii10035" unicode="&#x421;" horiz-adv-x="1169" 
d="M961 1389q-197 -1 -351 -105t-246 -304q-90 -200 -90 -433t110 -354t318 -121q140 0 304 51v-94q-156 -49 -316 -49q-252 0 -386 145t-134 411t104 487q104 222 285 341q179 119 379 119t330 -68l-45 -90q-117 64 -262 64z" />
    <glyph glyph-name="afii10036" unicode="&#x422;" horiz-adv-x="985" 
d="M438 0h-102l289 1368h-432l20 94h973l-19 -94h-440z" />
    <glyph glyph-name="afii10037" unicode="&#x423;" horiz-adv-x="1145" 
d="M133 -20q-93 0 -156 30v111q67 -37 170 -37t195 71.5t209 264.5l-318 1042h105l194 -651q13 -41 89 -319q33 61 88.5 156t507.5 814h116l-723 -1140q-112 -180 -223.5 -261t-253.5 -81z" />
    <glyph glyph-name="afii10038" unicode="&#x424;" horiz-adv-x="1446" 
d="M258 672q0 -164 100 -264t273 -103l188 893q-351 -6 -491 -245q-70 -117 -70 -281zM1288 840q0 164 -92 258t-274 100l-189 -893q263 8 409 147t146 388zM156 698q0 154 82 294q167 287 602 300l41 191h100l-39 -191q218 -14 334 -130t117 -309q0 -193 -84 -337
t-237 -220t-357 -83l-51 -233h-103l49 233q-144 7 -246 69t-154 162q-54 100 -54 254z" />
    <glyph glyph-name="afii10039" unicode="&#x425;" horiz-adv-x="971" 
d="M879 0h-107l-254 678l-526 -678h-127l608 766l-272 696h106l240 -626l483 626h119l-555 -719z" />
    <glyph glyph-name="afii10040" unicode="&#x426;" horiz-adv-x="1423" 
d="M1272 1462h100l-289 -1368h168l-98 -450h-104l79 356h-1026l310 1462h100l-289 -1368h758z" />
    <glyph glyph-name="afii10041" unicode="&#x427;" horiz-adv-x="1192" 
d="M534 530q-328 0 -329 271q0 64 22 164l105 497h102l-102 -483q-25 -116 -25 -172q0 -92 57 -139t162 -47q195 0 412 90l160 751h100l-309 -1462h-101l132 621q-218 -91 -386 -91z" />
    <glyph glyph-name="afii10042" unicode="&#x428;" horiz-adv-x="1905" 
d="M102 0l310 1462h100l-289 -1368h600l291 1368h100l-288 -1368h602l291 1368h100l-309 -1462h-1508z" />
    <glyph glyph-name="afii10043" unicode="&#x429;" horiz-adv-x="1970" 
d="M1798 94l-98 -450h-105l80 356h-1573l310 1462h100l-289 -1368h600l291 1368h100l-288 -1368h602l291 1368h100l-289 -1368h168z" />
    <glyph glyph-name="afii10044" unicode="&#x42a;" horiz-adv-x="1262" 
d="M606 90q205 0 315.5 92t110.5 277q0 134 -74.5 198t-224.5 64h-231l-135 -631h239zM1139 465q0 -223 -140 -344t-391 -121h-362l289 1368h-342l20 94h446l-139 -651h232q187 0 287 -89.5t100 -256.5z" />
    <glyph glyph-name="afii10045" unicode="&#x42b;" horiz-adv-x="1536" 
d="M1243 0h-102l309 1462h102zM463 90q204 0 315 92t111 277q0 134 -74.5 198t-224.5 64h-232l-135 -631h240zM995 465q0 -222 -139 -343.5t-391 -121.5h-363l310 1462h104l-139 -651h231q187 0 287 -89.5t100 -256.5z" />
    <glyph glyph-name="afii10046" unicode="&#x42c;" horiz-adv-x="1118" 
d="M463 90q204 0 315 92t111 277q0 134 -74.5 198t-224.5 64h-232l-135 -631h240zM995 465q0 -222 -139 -343.5t-391 -121.5h-363l310 1462h104l-139 -651h231q187 0 287 -89.5t100 -256.5z" />
    <glyph glyph-name="afii10047" unicode="&#x42d;" horiz-adv-x="1169" 
d="M592 1483q250 0 380 -148.5t130 -422.5t-95.5 -493.5t-259.5 -329t-376 -109.5t-357 75v109q184 -92 351 -92q254 0 410.5 168t205.5 493h-666l17 96h659l2 72q0 239 -105.5 363.5t-309.5 124.5q-128 0 -306 -64l-26 94q192 64 346 64z" />
    <glyph glyph-name="afii10048" unicode="&#x42e;" horiz-adv-x="2025" 
d="M1456 1389q-190 0 -324 -100.5t-214 -298.5t-80 -430t109.5 -360t318.5 -128q169 0 300 98.5t210 300t79 435.5t-104.5 358.5t-294.5 124.5zM1964 926q0 -260 -88 -484.5t-248 -343t-392 -118.5t-367.5 149t-135.5 430q0 96 8 160h-387l-149 -719h-103l310 1462h102
l-139 -649h383q40 203 136.5 354.5t240.5 233.5t319 82q247 0 378.5 -148.5t131.5 -408.5z" />
    <glyph glyph-name="afii10049" unicode="&#x42f;" horiz-adv-x="1118" 
d="M815 1370q-229 0 -343 -91.5t-114 -266.5q0 -133 82 -210t230 -77h204l138 645h-197zM256 1006q0 219 143 337.5t402 118.5h332l-310 -1462h-102l133 635h-266l-514 -635h-125l532 662q-105 40 -165 132.5t-60 211.5z" />
    <glyph glyph-name="afii10065" unicode="&#x430;" horiz-adv-x="1133" 
d="M205 365q0 -295 201 -295q90 0 178 62t158 166t108 230q37 126 37 209t-26 145q-56 136 -204 136q-124 0 -224 -82t-164 -246t-64 -325zM102 354q0 197 75 376q75 178 201 276t277 98q232 0 279 -219h6l59 202h80l-229 -1087h-82l45 274h-6q-174 -294 -424 -294
q-281 0 -281 374z" />
    <glyph glyph-name="afii10066" unicode="&#x431;" horiz-adv-x="1061" 
d="M199 442q1 -376 259 -376q248 0 319 192t71 350t-62.5 234t-167.5 76t-200.5 -58t-200.5 -192q-18 -105 -18 -226zM98 444q0 230 67.5 455.5t178.5 363t252 183.5q93 30 259 63.5t241 44.5l12 -86l-63 -12q-306 -57 -434 -101t-226.5 -188.5t-153.5 -378.5h5
q178 218 397 218q150 0 233.5 -99t83.5 -287t-94.5 -414t-400.5 -226q-172 0 -264.5 117t-92.5 347z" />
    <glyph glyph-name="afii10067" unicode="&#x432;" horiz-adv-x="1065" 
d="M666 1018q-166 0 -290 -121.5t-163 -321.5h240q213 0 321.5 65t108.5 187q0 88 -56 139.5t-161 51.5zM513 70q149 0 229.5 62t80.5 169q0 186 -270 186h-348l-2 -73q0 -169 80.5 -256.5t229.5 -87.5zM666 1104q156 0 237.5 -70.5t81.5 -192.5q0 -239 -280 -300v-4
q104 -17 162.5 -76.5t58.5 -152.5t-50.5 -168t-146 -117.5t-227.5 -42.5q-194 0 -296 114.5t-102 313.5t73 357.5t203 248.5t286 90z" />
    <glyph glyph-name="afii10068" unicode="&#x433;" horiz-adv-x="913" 
d="M569 1016q-124 0 -309 -72l-29 86q167 58 238.5 66t112.5 8q136 0 207 -58t71 -168t-76 -188t-248 -140t-264 -120t-92 -184q0 -87 55 -133.5t191 -46.5t299 73v-90q-175 -69 -331 -69q-155 0 -235.5 68.5t-80.5 193.5q0 158 108.5 233t259.5 135t231.5 109.5t80.5 146.5
q0 150 -189 150z" />
    <glyph glyph-name="afii10069" unicode="&#x434;" horiz-adv-x="1112" 
d="M426 70q161 0 290.5 174t188.5 473q-70 266 -268 266q-116 0 -216.5 -87.5t-158 -231t-57.5 -299.5q0 -295 221 -295zM653 1577q194 0 286.5 -148t92.5 -454q0 -181 -51 -376t-180 -407t-391 -212q-147 0 -227.5 100t-80.5 279t74 350t196 265.5t269 94.5q217 0 283 -209
h6q4 28 4 103q0 524 -291 524q-53 0 -115.5 -19.5t-99.5 -42.5l-39 82q121 70 264 70z" />
    <glyph glyph-name="afii10070" unicode="&#x435;" horiz-adv-x="928" 
d="M631 1018q-131 0 -243 -116t-163 -308h49q517 0 517 270q1 66 -43 110t-117 44zM462 -20q-166 0 -263 110t-97 298t71 354t195 264t257 98q132 0 200 -61t68 -166q1 -181 -163 -276t-486 -95h-33q-6 -44 -6 -98q0 -166 74 -252q73 -86 209 -86t280 73v-94
q-140 -69 -306 -69z" />
    <glyph glyph-name="afii10072" unicode="&#x436;" horiz-adv-x="1581" 
d="M1524 1104q77 0 135 -17l-19 -92q-57 19 -127 19q-113 0 -206.5 -76t-150 -218.5t-56.5 -310.5q0 -339 243 -339q53 0 113 10v-88q-72 -12 -121 -12q-334 0 -334 419q0 46 9 115h-166l-109 -514h-96l109 514h-158q-62 -331 -219 -432.5t-287 -101.5q-75 0 -135 16l18 92
q56 -18 127 -18q116 0 210 79t149 219.5t55 307.5q0 338 -244 338q-52 0 -112 -10v88q72 12 120 12q334 0 334 -420q0 -50 -4 -82h164l104 485h95l-103 -485h162q58 308 213.5 405t286.5 97z" />
    <glyph glyph-name="afii10073" unicode="&#x437;" horiz-adv-x="799" 
d="M492 569q190 -40 190 -244q0 -99 -51 -178.5t-145 -123t-243 -43.5t-261 65v109q139 -86 286 -86t229.5 68.5t82.5 180.5t-64.5 159.5t-206.5 47.5h-84l21 92h90q146 0 226.5 59.5t80.5 170.5q0 78 -52 125t-156 47t-232 -80l-41 80q83 50 153 68t156 18q130 0 202 -65
t72 -179t-66 -188.5t-187 -98.5v-4z" />
    <glyph glyph-name="afii10074" unicode="&#x438;" horiz-adv-x="1143" 
d="M207 220q-1 -62 47 -106t148 -44t198 66q193 130 264 466l105 485h98l-231 -1087h-80l28 205h-6q-167 -221 -403 -221q-131 0 -199 62t-67 181q0 60 22 170l150 690h100l-152 -698q-22 -106 -22 -169z" />
    <glyph glyph-name="afii10075" unicode="&#x439;" horiz-adv-x="1143" 
d="M207 220q-1 -62 47 -106t148 -44t198 66q193 130 264 466l105 485h98l-231 -1087h-80l28 205h-6q-167 -221 -403 -221q-131 0 -199 62t-67 181q0 60 22 170l150 690h100l-152 -698q-22 -106 -22 -169zM710 1241q-144 0 -210 58t-66 155q0 38 13 74h82q-8 -45 -8 -62
q1 -68 43 -104t143 -35q231 0 258 201h94q-17 -137 -111 -212t-238 -75z" />
    <glyph glyph-name="afii10076" unicode="&#x43a;" horiz-adv-x="932" 
d="M858 1087h146l-607 -534l404 -553h-127l-391 549l-113 -549h-98l225 1087h98l-110 -524z" />
    <glyph glyph-name="afii10077" unicode="&#x43b;" horiz-adv-x="1028" 
d="M770 1012q-92 0 -152 -39.5t-112 -134t-130 -328.5t-133.5 -332.5t-121.5 -143t-162 -44.5q-37 0 -61 8v90q29 -8 59 -8q74 0 122 38t94.5 131t126.5 327t141.5 333.5t142.5 143t181 43.5t191 -17l-231 -1079h-96l215 1006q-38 6 -74 6z" />
    <glyph glyph-name="afii10078" unicode="&#x43c;" horiz-adv-x="1305" 
d="M944 0l197 930q-17 -32 -39 -70t-531 -860h-67l-146 723q-28 135 -30 201l-193 -924h-90l231 1087h101l153 -798q27 -158 27 -170q26 55 62.5 117t529.5 851h117l-234 -1087h-88z" />
    <glyph glyph-name="afii10079" unicode="&#x43d;" horiz-adv-x="1208" 
d="M403 1087l-100 -479h625l104 479h101l-232 -1087h-102l110 516h-624l-111 -516h-100l233 1087h96z" />
    <glyph glyph-name="afii10080" unicode="&#x43e;" horiz-adv-x="1124" 
d="M648 1022q-130 0 -230 -78q-99 -78 -158 -226q-59 -146 -59 -310q0 -342 282 -342q127 0 225 78t158 228q58 150 58 317t-73 250t-203 83zM660 1108q168 0 268 -108q98 -108 98 -303q0 -193 -72 -365t-195 -262q-124 -90 -297 -90q-172 0 -268 110t-96 306q0 198 73 365
t197 257t292 90z" />
    <glyph glyph-name="afii10081" unicode="&#x43f;" horiz-adv-x="1143" 
d="M934 856q0 72 -44 117t-144 45q-102 0 -200 -67q-196 -133 -270 -474l-102 -477h-98l231 1087h82l-37 -221h6q164 238 416 238q130 0 195 -64t65 -184q0 -70 -24 -182l-148 -674h-98l149 692q21 92 21 164z" />
    <glyph glyph-name="afii10082" unicode="&#x440;" horiz-adv-x="1163" 
d="M748 1018q-87 0 -174 -58q-88 -58 -162 -168t-110 -238t-36 -230t62 -178t176 -76q116 0 217 84t164 244t63 325q0 295 -200 295zM770 1108q135 0 208 -92t73 -286q0 -192 -72 -368q-71 -176 -197 -277t-284 -101q-230 0 -279 219h-4q-13 -72 -149 -695h-99l336 1579h82
l-45 -274h6q175 295 424 295z" />
    <glyph glyph-name="afii10083" unicode="&#x441;" horiz-adv-x="887" 
d="M488 70q136 0 262 59v-92q-116 -57 -282 -57t-266 110t-100 306q0 194 74 362t198 258q124 88 274 88t257 -43l-28 -90q-107 47 -227 47t-224 -77t-162 -222q-59 -145 -59 -311q-1 -166 73 -252t210 -86z" />
    <glyph glyph-name="afii10084" unicode="&#x442;" horiz-adv-x="1751" 
d="M750 1104q106 0 163 -67t60 -195h6q77 130 181 196t222 66t182 -62q66 -62 66 -176q0 -57 -22 -176l-152 -690h-100l149 680q25 120 25 186t-43 110q-43 42 -119 42q-158 0 -278 -138t-168 -362l-109 -518h-102l147 674q25 125 25 162q0 182 -154 182q-106 0 -200 -68
q-187 -134 -259 -475l-100 -475h-98l231 1087h80l-33 -210h6q161 227 394 227z" />
    <glyph glyph-name="afii10085" unicode="&#x443;" horiz-adv-x="920" 
d="M-80 -492q-76 0 -137 21v92q71 -27 144 -27t140 50t130 164q63 115 100 184l-174 1095h100l82 -548q51 -351 55 -449h11q43 105 186 367l348 630h103l-713 -1290q-73 -127 -123 -178t-114 -81q-62 -30 -138 -30z" />
    <glyph glyph-name="afii10086" unicode="&#x444;" horiz-adv-x="1249" 
d="M1055 650q0 160 -73 251t-214 98l-197 -913q295 0 389.5 202t94.5 362zM201 444q0 -159 70.5 -253t207.5 -105l197 913q-293 -6 -384 -201t-91 -354zM1157 653q0 -185 -77 -339t-212 -234t-315 -80l-107 -492h-90l105 492q-169 14 -266 129t-97 305t72.5 337.5t208 231
t315.5 84.5l99 469h94l-101 -466q371 -39 371 -437z" />
    <glyph glyph-name="afii10087" unicode="&#x445;" horiz-adv-x="922" 
d="M442 483l-393 -483h-121l471 559l-245 528h100l207 -462l373 462h120l-448 -534l258 -553h-98z" />
    <glyph glyph-name="afii10088" unicode="&#x446;" horiz-adv-x="1169" 
d="M109 227q0 60 22 170l150 690h100l-152 -698q-22 -103 -22 -167t47.5 -108t147.5 -44t246 97.5t216 434.5l105 485h98l-164 -765q-22 -104 -22 -170q0 -89 84 -89q23 0 63 7l-100 -435h-101l80 351q-67 13 -94 54.5t-27 119.5l2 51h-6q-169 -227 -405 -227
q-133 0 -200.5 62t-67.5 181z" />
    <glyph glyph-name="afii10089" unicode="&#x447;" horiz-adv-x="1096" 
d="M254 653q0 -74 44.5 -117.5t141.5 -43.5q163 0 290 135.5t175 369.5l19 90h98l-234 -1087h-102q50 229 75 345.5t70 281.5h-8q-161 -221 -401 -221q-128 0 -197 60t-69 177q0 74 22 176l58 268h100q-69 -318 -75.5 -362t-6.5 -72z" />
    <glyph glyph-name="afii10090" unicode="&#x448;" horiz-adv-x="1751" 
d="M1004 -16q-222 0 -228 262h-6q-74 -126 -178 -194t-224 -68t-185.5 61.5t-65.5 175.5q0 58 22 176l152 690h100l-149 -679q-25 -120 -25 -186t42.5 -109t119.5 -43q156 0 278 139t168 364l109 514h102l-147 -673q-25 -125 -25 -162q0 -182 154 -182q105 0 245 100.5
t214 441.5l102 475h96l-231 -1087h-80l33 211h-6q-161 -227 -387 -227z" />
    <glyph glyph-name="afii10091" unicode="&#x449;" horiz-adv-x="1778" 
d="M864 252q0 -182 154 -182q105 0 245 100.5t214 441.5l102 475h96l-164 -765q-22 -104 -22 -170q0 -89 84 -89q23 0 63 7l-100 -435h-100l80 351q-68 13 -95 53.5t-27 115.5l3 56h-6q-161 -227 -387 -227q-222 0 -228 262h-6q-74 -126 -178 -194t-224 -68t-185.5 61.5
t-65.5 175.5q0 58 22 176l152 690h100l-149 -679q-25 -120 -25 -186t42.5 -109t119.5 -43q156 0 278 139t168 364l109 514h102l-147 -673q-25 -125 -25 -162z" />
    <glyph glyph-name="afii10092" unicode="&#x44a;" horiz-adv-x="1139" 
d="M934 330q0 202 -256 202q-90 0 -270 -30q-25 -118 -25 -195q0 -122 57 -179.5t194 -57.5t218.5 69t81.5 191zM696 618q340 0 340 -280q0 -162 -111 -260t-289 -98q-350 0 -351 311q0 98 30 248l101 467h-334l20 81h433l-109 -499l56 10q117 20 214 20z" />
    <glyph glyph-name="afii10093" unicode="&#x44b;" horiz-adv-x="1389" 
d="M791 330q0 202 -256 202q-91 0 -271 -30q-24 -120 -24 -195q0 -122 56 -179.5t194 -57.5t219.5 69t81.5 191zM553 618q340 0 340 -280q0 -162 -111.5 -260t-289.5 -98q-351 0 -351 311q0 93 31 248l119 548h100l-108 -499l56 10q117 20 214 20zM1081 0h-98l234 1087h96z
" />
    <glyph glyph-name="afii10094" unicode="&#x44c;" horiz-adv-x="995" 
d="M791 330q0 202 -256 202q-91 0 -271 -30q-24 -120 -24 -195q0 -122 56 -179.5t194 -57.5t219.5 69t81.5 191zM553 618q340 0 340 -280q0 -162 -111.5 -260t-289.5 -98q-351 0 -351 311q0 93 31 248l119 548h100l-108 -499l56 10q117 20 214 20z" />
    <glyph glyph-name="afii10095" unicode="&#x44d;" horiz-adv-x="905" 
d="M250 70q176 0 287.5 115t152.5 341h-524l18 88h516q5 33 5 70q0 172 -68 255t-207 83q-48 0 -98 -11t-158 -53l-27 84q131 52 189.5 59t103.5 7q178 0 272.5 -106t94.5 -308t-71.5 -371.5t-198 -256t-275.5 -86.5t-252 45v102q112 -57 240 -57z" />
    <glyph glyph-name="afii10096" unicode="&#x44e;" horiz-adv-x="1542" 
d="M657 402q0 -336 267 -336q268 0 352 229t84 397t-69.5 249t-197.5 81t-224.5 -77t-154 -224t-57.5 -319zM1086 1108q184 0 280 -105.5t96 -305.5t-106.5 -458.5t-435.5 -258.5q-182 0 -273.5 108t-91.5 315q0 54 6 113h-276l-111 -516h-100l233 1087h96l-100 -479h275
q51 231 187.5 365.5t320.5 134.5z" />
    <glyph glyph-name="afii10097" unicode="&#x44f;" horiz-adv-x="1038" 
d="M555 1006q-130 0 -204.5 -67.5t-74.5 -184.5q0 -195 277 -195h201l94 447h-293zM594 481q-154 0 -209 -63.5t-109 -183.5t-103 -181t-159 -61q-33 0 -51 6v84q11 -4 55 -4t80.5 34.5t85.5 148.5t95.5 167.5t111.5 77.5q-104 20 -160.5 82t-56.5 164t48 177.5t132 116.5
t189 41h420l-232 -1087h-98l104 481h-143z" />
    <glyph glyph-name="uni0450" unicode="&#x450;" horiz-adv-x="928" 
d="M631 1018q-131 0 -243 -116t-163 -308h49q517 0 517 270q1 66 -43 110t-117 44zM462 -20q-166 0 -263 110t-97 298t71 354t195 264t257 98q132 0 200 -61t68 -166q1 -181 -163 -276t-486 -95h-33q-6 -44 -6 -98q0 -166 74 -252q73 -86 209 -86t280 73v-94
q-140 -69 -306 -69zM738 1241h-66q-50 53 -114 145t-99 162v21h115q46 -129 164 -303v-25z" />
    <glyph glyph-name="afii10071" unicode="&#x451;" horiz-adv-x="928" 
d="M631 1018q-131 0 -243 -116t-163 -308h49q517 0 517 270q1 66 -43 110t-117 44zM462 -20q-166 0 -263 110t-97 298t71 354t195 264t257 98q132 0 200 -61t68 -166q1 -181 -163 -276t-486 -95h-33q-6 -44 -6 -98q0 -166 74 -252q73 -86 209 -86t280 73v-94
q-140 -69 -306 -69zM503 1303q-55 0 -55 56q0 114 77 114q54 0 54 -56t-21 -85t-55 -29zM847 1303q-55 0 -55 56q0 114 77 114q54 0 54 -56t-21 -85t-55 -29z" />
    <glyph glyph-name="afii10099" unicode="&#x452;" horiz-adv-x="1153" 
d="M774 1104q124 0 192 -63.5t68 -184.5q0 -70 -24 -182l-187 -858q-35 -162 -105 -235t-190 -73q-65 0 -112 19v92q58 -22 128 -22t115 54t70 175l184 866q21 92 21 156q0 170 -178 170q-110 0 -258 -100t-222 -441l-102 -477h-98l272 1278h-145l18 82h146l39 196h98
l-41 -196h373l-19 -82h-371q-63 -301 -94 -412h6q171 238 416 238z" />
    <glyph glyph-name="afii10100" unicode="&#x453;" horiz-adv-x="913" 
d="M569 1016q-124 0 -309 -72l-29 86q167 58 238 66q72 8 113 8q136 0 207 -58t71 -168t-76 -188t-248 -140t-234 -102q-122 -76 -122 -202q0 -88 55 -134t191 -46t299 73v-90q-175 -69 -331 -69t-236 68t-80 194q0 158 144 258q73 50 224 110t206 93q106 66 106 163
q0 150 -189 150zM910 1569v-23q-52 -66 -158 -158t-192 -147h-67v21q67 51 151 142t129 165h137z" />
    <glyph glyph-name="afii10101" unicode="&#x454;" horiz-adv-x="895" 
d="M481 70q135 0 264 59v-92q-123 -57 -287 -57t-262 111t-98 307t75 365t200 255t273 86t255 -43l-29 -90q-107 47 -217 47q-153 0 -268 -106.5t-164 -305.5h535l-21 -84h-528q-8 -54 -8 -123q0 -160 72.5 -244.5t207.5 -84.5z" />
    <glyph glyph-name="afii10102" unicode="&#x455;" horiz-adv-x="827" 
d="M322 66q142 0 215 58t73 150t-66 148q-34 30 -132 86q-148 80 -200 146t-52 159q0 127 98 209t260 82q74 0 158 -18t141 -46l-35 -88q-136 64 -258 64t-192 -53t-70 -138q0 -55 17 -88q34 -66 164 -137q129 -72 177 -112q92 -79 93 -208q0 -128 -103 -214t-278 -86
t-307 75v107q155 -96 297 -96z" />
    <glyph glyph-name="afii10103" unicode="&#x456;" horiz-adv-x="475" 
d="M410 1292q-60 0 -60 74q0 55 22 88t60 33q57 -1 57 -65t-22 -97t-57 -33zM174 0h-98l231 1087h96z" />
    <glyph glyph-name="afii10104" unicode="&#x457;" horiz-adv-x="475" 
d="M174 0h-98l231 1087h96zM251 1303q-55 0 -55 56q0 114 77 114q54 0 54 -56t-21 -85t-55 -29zM595 1303q-55 0 -55 56q0 114 77 114q54 0 54 -56t-21 -85t-55 -29z" />
    <glyph glyph-name="afii10105" unicode="&#x458;" horiz-adv-x="475" 
d="M410 1292q-60 0 -60 74q0 55 22 88t60 33q57 -1 57 -65t-22 -97t-57 -33zM-166 -492q-62 0 -113 19v92q47 -22 121 -22q74 -1 120 51t73 178l266 1261h96l-268 -1271q-35 -164 -107 -236t-188 -72z" />
    <glyph glyph-name="afii10106" unicode="&#x459;" horiz-adv-x="1493" 
d="M1288 330q0 202 -241 202q-122 0 -242 -22q-29 -132 -29 -207q0 -233 223 -233q134 0 211.5 70.5t77.5 189.5zM1059 618q167 0 249.5 -68t82.5 -220t-108.5 -251t-276.5 -99t-249 80.5t-81 228.5q0 56 9.5 118.5t115.5 600.5q-21 4 -51 4q-119 0 -198 -104t-166 -367
t-142 -363t-122 -144t-163 -44q-32 0 -61 8v90q32 -8 59 -8q75 0 123.5 38.5t95 133t104.5 262.5t97.5 267.5t120.5 207t276 107.5q65 0 144 -17l-97 -483q149 22 238 22z" />
    <glyph glyph-name="afii10107" unicode="&#x45a;" horiz-adv-x="1595" 
d="M1391 330q0 202 -256 202q-91 0 -271 -30q-24 -120 -24 -195q0 -122 56 -179.5t194 -57.5t219.5 69t81.5 191zM1153 618q340 0 340 -280q0 -162 -111.5 -260t-289.5 -98q-351 0 -351 311q0 98 25 225h-481l-111 -516h-100l233 1087h96l-100 -479h483l105 479h100
l-108 -499l56 10q117 20 214 20z" />
    <glyph glyph-name="afii10108" unicode="&#x45b;" horiz-adv-x="1153" 
d="M934 867q0 67 -48 109t-134 42q-170 0 -298 -142t-180 -395l-100 -481h-98l272 1282h-143l16 78h144l41 196h98l-41 -196h373l-17 -78h-373q-68 -315 -94 -408h10q93 124 191 177t221 53q124 0 192 -62t68 -182q0 -62 -22 -170l-150 -690h-102l153 698q21 101 21 169z
" />
    <glyph glyph-name="afii10109" unicode="&#x45c;" horiz-adv-x="932" 
d="M858 1087h146l-607 -534l404 -553h-127l-391 549l-113 -549h-98l225 1087h98l-110 -524zM1009 1569v-23q-51 -66 -157 -158t-193 -147h-67v21q66 51 150 142t130 165h137z" />
    <glyph glyph-name="uni045D" unicode="&#x45d;" horiz-adv-x="1143" 
d="M207 220q-1 -62 47 -106t148 -44t198 66q193 130 264 466l105 485h98l-231 -1087h-80l28 205h-6q-167 -221 -403 -221q-131 0 -199 62t-67 181q0 60 22 170l150 690h100l-152 -698q-22 -106 -22 -169zM766 1241h-66q-50 53 -114 145t-99 162v21h115q46 -129 164 -303v-25
z" />
    <glyph glyph-name="afii10110" unicode="&#x45e;" horiz-adv-x="920" 
d="M-80 -492q-76 0 -137 21v92q71 -27 144 -27t140 50t130 164q63 115 100 184l-174 1095h100l82 -548q51 -351 55 -449h11q43 105 186 367l348 630h103l-713 -1290q-73 -127 -123 -178t-114 -81q-62 -30 -138 -30zM584 1241q-144 0 -210 58t-66 155q0 38 13 74h82
q-8 -45 -8 -62q1 -68 43 -104t143 -35q231 0 258 201h94q-17 -137 -111 -212t-238 -75z" />
    <glyph glyph-name="afii10193" unicode="&#x45f;" horiz-adv-x="1143" 
d="M207 220q0 -63 47.5 -106.5t147.5 -43.5t246 97.5t216 434.5l105 485h98l-231 -1087h-80l28 205h-6q-167 -221 -403 -221q-131 0 -198.5 62t-67.5 181q0 60 22 170l150 690h100l-152 -698q-22 -106 -22 -169zM500 -86h32l-90 -406h-90l88 390z" />
    <glyph glyph-name="uni0460" unicode="&#x460;" horiz-adv-x="1876" 
d="M1476 1389q-105 0 -212 -58l-45 84q119 68 254 68q335 0 335 -443q0 -189 -54 -396t-186 -435.5t-388 -228.5q-257 0 -303 192q-41 -87 -130.5 -139.5t-195.5 -52.5q-183 0 -282 122.5t-99 375.5t85 497.5t218.5 376t310.5 131.5q134 0 234 -72l-57 -86q-90 64 -185 64
t-184.5 -70t-163 -208.5t-114 -308t-40.5 -321.5q0 -409 283 -409q122 0 193 75t106 234l53 244h109l-41 -201q-19 -89 -19 -143q0 -209 207 -209q226 0 338.5 224t156.5 408t44 347t-61.5 250.5t-166.5 87.5z" />
    <glyph glyph-name="uni0461" unicode="&#x461;" horiz-adv-x="1352" 
d="M242 0l-127 1087h98l76 -677q24 -239 30 -312l340 480l-69 509h98l92 -655q28 -203 37 -334q179 179 293 418t178 571h98q-62 -355 -196.5 -619t-349.5 -468h-99l-61 457h-4l-320 -457h-114z" />
    <glyph glyph-name="uni0462" unicode="&#x462;" horiz-adv-x="1262" 
d="M606 90q205 0 315.5 92t110.5 277q0 134 -74.5 198t-224.5 64h-231l-135 -631h239zM1139 465q0 -223 -140 -344t-391 -121h-362l246 1161h-314l21 94h313l68 301h104l-68 -301h410l-18 -94h-412l-76 -350h232q187 0 287 -89.5t100 -256.5z" />
    <glyph glyph-name="uni0463" unicode="&#x463;" horiz-adv-x="1022" 
d="M817 330q0 202 -256 202q-90 0 -270 -30q-25 -118 -25 -195q0 -122 57 -179.5t195 -57.5t218.5 69.5t80.5 190.5zM580 618q340 0 340 -280q0 -162 -111.5 -260t-289.5 -98q-351 0 -351 311q0 105 31 248l100 467h-227l16 81h227l52 232h100l-51 -232h284l-18 -81h-283
l-90 -418l56 10q117 20 215 20z" />
    <glyph glyph-name="uni0464" unicode="&#x464;" horiz-adv-x="1735" 
d="M840 539q0 -226 111.5 -346.5t316.5 -120.5q139 0 303 51v-94q-156 -49 -316 -49q-252 0 -386 143t-134 412q0 96 15 184h-396l-149 -719h-103l310 1462h102l-139 -649h393q48 202 155 353t262.5 234t336.5 83t311 -68l-45 -90q-111 64 -262 64q-236 0 -408.5 -153.5
t-243.5 -422.5h678l-18 -94h-678q-16 -78 -16 -180z" />
    <glyph glyph-name="uni0465" unicode="&#x465;" horiz-adv-x="1356" 
d="M942 70q135 0 264 59v-92q-122 -57 -286 -57t-262.5 111t-98.5 306q0 74 8 125h-280l-113 -522h-100l233 1087h96l-100 -481h279q52 234 195 366t343 132q135 0 242 -43l-29 -90q-107 47 -217 47q-153 0 -268 -106.5t-164 -305.5h535l-21 -84h-528q-8 -54 -8 -123
q0 -160 72.5 -244.5t207.5 -84.5z" />
    <glyph glyph-name="uni0466" unicode="&#x466;" horiz-adv-x="1159" 
d="M756 1315q-39 -93 -113 -218.5t-168 -283.5h359l-35 209q-36 204 -39 293h-4zM528 0h-94l156 725h-166l-426 -725h-109l863 1462h69l248 -1462h-96l-125 725h-168z" />
    <glyph glyph-name="uni0467" unicode="&#x467;" horiz-adv-x="1001" 
d="M610 989q-72 -144 -225 -399h291q-52 305 -60 399h-6zM680 1087l188 -1087h-98l-82 510h-137l-109 -510h-94l115 510h-125l-309 -510h-99l652 1087h98z" />
    <glyph glyph-name="uni0468" unicode="&#x468;" horiz-adv-x="1647" 
d="M1243 1315q-39 -95 -158 -295l-122 -207h358l-35 209q-36 204 -39 293h-4zM1016 0h-94l155 725h-166l-426 -725h-108l426 725h-447l-151 -725h-103l310 1462h102l-139 -649h481l383 649h70l247 -1462h-96l-125 725h-168z" />
    <glyph glyph-name="uni0469" unicode="&#x469;" horiz-adv-x="1341" 
d="M950 989q-72 -144 -225 -399h291q-52 305 -60 399h-6zM1020 1087l188 -1087h-98l-82 510h-137l-109 -510h-94l115 510h-125l-309 -510h-99l305 510h-296l-109 -510h-94l233 1087h94l-106 -497h326l299 497h98z" />
    <glyph glyph-name="uni046A" unicode="&#x46a;" horiz-adv-x="1315" 
d="M721 836l502 536h-772zM782 750h-16l-166 -750h-98l160 750h-19q-98 0 -157.5 -22.5t-106 -77t-107.5 -181.5l-225 -469h-108l247 512q70 143 150 230.5t280 93.5l-276 536l18 90h1018l-20 -86l-522 -540q206 -13 254.5 -116.5t58.5 -258.5l31 -461h-105l-31 471
q-8 120 -34 174.5t-79 79.5t-147 25z" />
    <glyph glyph-name="uni046B" unicode="&#x46b;" horiz-adv-x="1247" 
d="M623 637l391 369h-637zM-98 0l202 367q57 105 136.5 181t277.5 89l-258 381l10 69h895l-12 -69l-418 -381q188 -21 239.5 -111t69.5 -207l54 -319h-99l-51 311q-23 140 -84.5 191t-208.5 53l-118 -555h-95l119 555q-113 -3 -170.5 -22.5t-103 -63.5t-90.5 -125l-187 -344
h-108z" />
    <glyph glyph-name="uni046C" unicode="&#x46c;" horiz-adv-x="1827" 
d="M1233 836l502 536h-772zM1294 750h-16l-166 -750h-98l160 750h-19q-98 0 -157.5 -22.5t-106 -77t-107.5 -181.5l-225 -469h-108l247 512q41 85 80.5 139.5t93.5 89.5h-512l-155 -741h-103l310 1462h102l-133 -626h745l-274 536l18 90h1018l-20 -86l-522 -540
q206 -13 254.5 -116.5t58.5 -258.5l31 -461h-105l-31 471q-8 120 -34 174.5t-79 79.5t-147 25z" />
    <glyph glyph-name="uni046D" unicode="&#x46d;" horiz-adv-x="1614" 
d="M989 637l391 369h-637zM915 555q-134 0 -210 -45t-142 -166l-186 -344h-109l203 367q35 63 68.5 105t81.5 73h-330l-117 -545h-100l233 1087h96l-94 -450h576l-258 381l10 69h895l-12 -69l-418 -381q185 -21 237 -110t72 -208l53 -319h-98l-51 311q-23 140 -84.5 191
t-208.5 53l-119 -555h-94l119 555h-13z" />
    <glyph glyph-name="uni046E" unicode="&#x46e;" horiz-adv-x="1020" 
d="M453 1731h94q62 -72 137 -205q64 94 116.5 149.5t117.5 55.5q34 0 63 -13v-78q-38 7 -64 7t-75.5 -45t-102.5 -127q117 -23 182.5 -102.5t65.5 -221.5t-91 -245.5t-267 -145.5v-4q128 -23 205 -111t77 -219q0 -206 -147.5 -324t-441.5 -139q-167 -11 -231 -43t-64 -90
t40.5 -87.5t108.5 -29.5l75 3q190 12 305 12t187 -37v-111q-94 47 -249 47l-78 -2q-180 -10 -269 -10t-160 53.5t-71 137.5t39.5 133.5t115 77.5t251.5 43t324.5 77.5t148.5 284.5q0 289 -373 289h-182l18 96h178q131 0 289 67t158 285q0 114 -68 176t-209 62t-321 -119
l-54 76q173 118 379 129q-30 59 -77 127.5t-80 99.5v21z" />
    <glyph glyph-name="uni046F" unicode="&#x46f;" horiz-adv-x="834" 
d="M664 832q0 186 -209 186q-104 0 -232 -80l-41 80q118 73 258 86q-32 64 -79.5 130.5t-79.5 96.5v21h94q61 -69 137 -205q64 94 116.5 149.5t116.5 55.5q35 0 64 -13v-77q-33 6 -62 6t-78 -44.5t-102 -125.5q96 -17 147.5 -82t51.5 -168t-65.5 -177t-188.5 -98v-4
q89 -18 139.5 -76.5t50.5 -156.5t-45.5 -166.5t-137 -111.5t-258.5 -71t-220 -61t-53 -92q0 -94 143 -94q56 0 224 10l69 2q140 0 219 -43v-96q-92 47 -229 47l-66 -2q-155 -10 -251 -10t-153 48t-57 124t34.5 122.5t105.5 77t249 61.5t251 88.5t73 161.5t-65 148.5
t-205 44.5h-84l20 92h90q149 0 228.5 62t79.5 154z" />
    <glyph glyph-name="uni0470" unicode="&#x470;" horiz-adv-x="1419" 
d="M770 455h-12l-96 -455h-103l96 455h-8q-212 1 -325 101t-113 292q0 102 29 239l79 375h103q-56 -258 -86 -400t-25 -206q0 -160 86 -236t267 -77h12l194 919h103l-195 -919h10q234 0 360 105t179 351l100 463h101l-105 -485q-57 -275 -215 -399t-436 -123z" />
    <glyph glyph-name="uni0471" unicode="&#x471;" horiz-adv-x="1364" 
d="M1184 1087h102q0 -391 -74 -624t-224 -347t-374 -124l-102 -484h-94l102 484q-180 16 -273 120t-93 279q0 96 30 238l99 458h102l-98 -454q-31 -139 -31 -232q0 -293 283 -323q282 1307 317 1478h94q-237 -1094 -317 -1478q287 18 419 258t132 751z" />
    <glyph glyph-name="uni0472" unicode="&#x472;" horiz-adv-x="1464" 
d="M869 1389q-211 0 -366 -162t-206 -441h993l4 115q0 488 -425 488zM712 72q216 0 364.5 162.5t199.5 459.5h-993q-7 -65 -7 -121q0 -246 110 -373.5t326 -127.5zM1403 911q0 -189 -53.5 -370t-194.5 -371t-463 -190q-253 0 -386.5 150t-133.5 418t91.5 484t254.5 333.5
t393 117.5t361 -148.5t131 -423.5z" />
    <glyph glyph-name="uni0473" unicode="&#x473;" horiz-adv-x="1124" 
d="M634 1022q-144 0 -256 -114.5t-157 -307.5h697q6 52 6 102q0 154 -73 237t-217 83zM483 66q160 0 271 119.5t151 330.5h-698q-6 -56 -6 -108q0 -342 282 -342zM660 1108q168 0 267 -108.5t99 -302.5t-71.5 -365.5t-195.5 -261.5t-297 -90t-268.5 109t-95.5 307t73 365
t197 257t292 90z" />
    <glyph glyph-name="uni0474" unicode="&#x474;" horiz-adv-x="1096" 
d="M1264 1475q59 0 88 -7v-84q-29 9 -89 9t-115 -52t-130 -206l-547 -1135h-88l-182 1462h100l117 -950q27 -228 35 -365h4q34 88 479 1031q60 126 107.5 184t104.5 85.5t116 27.5z" />
    <glyph glyph-name="uni0475" unicode="&#x475;" horiz-adv-x="877" 
d="M948 1104q58 0 82 -10v-78q-28 10 -80 10t-99 -49.5t-106 -185.5l-356 -791h-113l-172 1087h101l108 -735q26 -178 33 -254h6l63 157l238 556q53 125 94.5 180.5t92 84t108.5 28.5z" />
    <glyph glyph-name="uni0476" unicode="&#x476;" horiz-adv-x="1096" 
d="M1264 1475q59 0 88 -7v-84q-29 9 -89 9t-115 -52t-130 -206l-547 -1135h-88l-182 1462h100l117 -950q27 -228 35 -365h4q34 88 479 1031q60 126 108 184t104 86q57 28 116 27zM933 1579h-73q-47 47 -116 147t-99 160v21h125q47 -132 163 -303v-25zM602 1579h-74
q-47 47 -116 147t-99 160v21h125q49 -137 164 -303v-25z" />
    <glyph glyph-name="uni0477" unicode="&#x477;" horiz-adv-x="877" 
d="M948 1104q58 0 82 -10v-78q-28 10 -80 10t-99 -50t-106 -185l-356 -791h-113l-172 1087h101l108 -735q26 -178 33 -254h6l63 157l238 556q53 125 95 181t92 84t108 28zM731 1241h-73q-47 47 -116 147t-99 160v21h125q47 -132 163 -303v-25zM400 1241h-74q-47 47 -116 147
t-99 160v21h125q49 -137 164 -303v-25z" />
    <glyph glyph-name="uni0478" unicode="&#x478;" horiz-adv-x="2390" 
d="M895 1389q-191 0 -325 -101t-214 -298q-80 -198 -80 -430t110 -360t319 -128q169 0 300 98t210 300t79 436t-104 359q-104 124 -295 124zM1403 921q0 -265 -94 -491t-252 -338t-365 -112q-250 0 -385 149t-135 421t93 486q93 216 255 332t391 115t361 -149t131 -413z
M1390 -492q-76 0 -137 21v92q71 -27 144 -27t140 50t130 164q63 115 100 184l-174 1095h100l82 -548q51 -351 55 -449h11q43 105 186 367l348 630h103l-713 -1290q-73 -127 -123 -178t-114 -81q-62 -30 -138 -30z" />
    <glyph glyph-name="uni0479" unicode="&#x479;" horiz-adv-x="1974" 
d="M974 -492q-76 0 -136 21v92q71 -27 144 -27t140 50t130 164q63 115 100 184l-174 1095h100l82 -548q51 -351 55 -449h11q43 105 186 367l348 630h103l-713 -1290q-72 -127 -122 -178t-114 -81t-140 -30zM650 1022q-130 0 -230 -78q-99 -78 -158 -226q-59 -146 -59 -310
q0 -342 282 -342q127 0 225 78t158 228q58 150 58 317t-73 250t-203 83zM662 1108q168 0 268 -108q98 -108 98 -303q0 -193 -72 -365t-195 -262q-124 -90 -297 -90q-172 0 -268 110t-96 306q0 198 73 365t197 257t292 90z" />
    <glyph glyph-name="uni047A" unicode="&#x47a;" horiz-adv-x="1464" 
d="M1294 901q0 378 -258 465q-28 -63 -104 -63t-98 83q-161 -12 -285 -116t-198.5 -295.5t-74.5 -394.5q0 -407 281 -490q25 70 104 70t101 -86q321 35 426.5 324t105.5 503zM1403 905q0 -235 -84.5 -452t-229.5 -335t-331 -134q-22 -78 -103 -78q-38 0 -66.5 22.5
t-37.5 65.5q-185 38 -282 184t-97 388t84.5 451t234.5 328.5t345 135.5q24 75 102 75q38 0 67.5 -22.5t38.5 -69.5q175 -41 267 -182.5t92 -376.5z" />
    <glyph glyph-name="uni047B" unicode="&#x47b;" horiz-adv-x="1124" 
d="M677 942q-69 0 -85 76q-113 -15 -201 -98.5t-139 -222t-51 -289.5q0 -265 166 -324q24 59 93 59t87 -73q228 40 302.5 257t74.5 349t-38 209t-116 112q-24 -55 -93 -55zM1026 684q0 -170 -62.5 -331.5t-169 -255t-247.5 -111.5q-23 -72 -92 -72q-34 0 -59.5 20t-33.5 58
q-264 61 -264 411q0 178 62.5 334.5t175 253.5t258.5 113q23 67 95 67t89 -81q248 -74 248 -406z" />
    <glyph glyph-name="uni047C" unicode="&#x47c;" horiz-adv-x="1876" 
d="M1202 1894q107 0 107 -116q0 -62 -56 -118.5t-143 -74.5l10 62q43 10 71 34.5t28 46.5t-14 29t-32 17t-33.5 22t-15.5 35q0 63 78 63zM1587 1860q-111 0 -232 59t-188 59q-66 0 -106.5 -30.5t-50.5 -85.5h-99q22 94 86.5 144t160.5 50t206 -48t151 -57t84 -9h21l-16 -82
h-17zM1704 1046q0 168 -61.5 255.5t-166.5 87.5t-212 -58l-45 84q119 68 254 68q335 0 335 -443q0 -278 -98 -545t-239.5 -391t-346.5 -124q-146 0 -274 73q-166 -73 -279 -73q-193 0 -297 125t-104 375t85 495t218.5 376.5t310.5 131.5q134 0 234 -72l-57 -86
q-90 64 -185 64t-184.5 -70t-163 -208.5t-114 -308t-40.5 -321.5q0 -409 306 -409q152 0 276 88q123 -88 262 -88q140 0 241.5 71.5t178 217t121.5 331.5t45 354z" />
    <glyph glyph-name="uni047D" unicode="&#x47d;" horiz-adv-x="1475" 
d="M897 1589q107 -1 107 -117q0 -62 -56 -118t-143 -74l10 61q40 10 69 35.5t29 48.5t-29 36q-8 4 -36.5 17t-28.5 48q0 63 78 63zM1282 1554q-107 0 -231 60t-189 59q-136 0 -157 -117h-99q22 94 86.5 144.5t160.5 50.5t207 -49q110 -49 148 -57.5t86 -8.5h21l-17 -82h-16z
M1276 740q0 272 -166 272q-80 0 -162 -47l-43 82q109 57 207 57q264 0 264 -334q0 -216 -77 -419.5t-189 -287t-242 -83.5t-229 53q-112 -53 -211 -53q-152 0 -235.5 94t-83.5 288t102.5 468t368.5 274q101 0 180 -62l-55 -84q-67 54 -141 54t-154.5 -75t-140.5 -243.5
t-60 -322.5q0 -299 225 -299q115 0 211 65q87 -65 207 -65t207 76t152 261.5t65 330.5z" />
    <glyph glyph-name="uni047E" unicode="&#x47e;" horiz-adv-x="1876" 
d="M1573 1788l-6 -27l-115 -164h-12l-29 117h-203l-80 -117h-12l-31 117h-202l-78 -117h-12l-45 164l6 27h819zM1476 1389q-105 0 -212 -58l-45 84q119 68 254 68q335 0 335 -443q0 -189 -54 -396t-186 -435.5t-388 -228.5q-257 0 -303 192q-41 -87 -130.5 -139.5
t-195.5 -52.5q-183 0 -282 122.5t-99 375.5t85 497.5t218.5 376t310.5 131.5q134 0 234 -72l-57 -86q-90 64 -185 64t-184.5 -70t-163 -208.5t-114 -308t-40.5 -321.5q0 -409 283 -409q122 0 193 75t106 234l53 244h109l-41 -201q-19 -89 -19 -143q0 -209 207 -209
q226 0 338.5 224t156.5 408t44 347t-61.5 250.5t-166.5 87.5z" />
    <glyph glyph-name="uni047F" unicode="&#x47f;" horiz-adv-x="1352" 
d="M1217 1456l-7 -26l-114 -164h-13l-28 116h-203l-80 -116h-12l-31 116h-203l-77 -116h-13l-45 164l6 26h820zM242 0l-127 1087h98l76 -677q24 -239 30 -312l340 480l-69 509h98l92 -655q28 -203 37 -334q179 179 293 418t178 571h98q-62 -355 -196.5 -619t-349.5 -468h-99
l-61 457h-4l-320 -457h-114z" />
    <glyph glyph-name="uni0480" unicode="&#x480;" horiz-adv-x="1169" 
d="M961 1389q-197 0 -351.5 -104.5t-245 -304.5t-90.5 -431t108.5 -354t297.5 -123q54 0 84 8l-125 -572h-102l102 474q-222 9 -345.5 154.5t-123.5 405.5t104.5 481.5t284 340.5t379.5 119t330 -68l-45 -90q-128 64 -262 64z" />
    <glyph glyph-name="uni0481" unicode="&#x481;" horiz-adv-x="887" 
d="M487 70q88 0 164 36l-129 -598h-98l100 469l-31 -1q-189 0 -290 111t-101 307t75.5 366t200 257t272.5 87t255 -43l-28 -90q-107 47 -228 47t-225 -77.5t-161.5 -220.5t-57.5 -309t74 -253.5t208 -87.5z" />
    <glyph glyph-name="uni0482" unicode="&#x482;" horiz-adv-x="1247" 
d="M561 420l285 -166l-39 -66l-285 164l-180 -313l-72 41l181 315l-283 166l39 64l285 -164l231 403l-283 164l37 68l285 -164l182 309l70 -37l-183 -315l287 -164l-41 -66l-282 164z" />
    <glyph glyph-name="uni0483" unicode="&#x483;" horiz-adv-x="1174" 
d="M444 1192q-71 0 -71 72q0 36 29 62t87 26h443q10 86 87 86t77 -68q0 -87 -121 -92h-443q-6 -86 -88 -86z" />
    <glyph glyph-name="uni0484" unicode="&#x484;" horiz-adv-x="1214" 
d="M434 1343q107 -1 267 55t247 56q88 0 140.5 -38t52.5 -105q0 -31 -4 -47h-93q5 13 5 30q0 86 -105 86q-74 0 -240 -59t-280 -59h-21l17 81h14z" />
    <glyph glyph-name="uni0485" unicode="&#x485;" horiz-adv-x="1214" 
d="M655 1454q0 54 24 82.5t62 28.5q80 0 80 -62q0 -39 -37 -51q-43 -17 -43 -37q0 -57 119 -94v-66q-106 34 -155.5 89.5t-49.5 109.5z" />
    <glyph glyph-name="uni0486" unicode="&#x486;" horiz-adv-x="1214" 
d="M891 1448q0 -60 -53 -113t-152 -80v66q119 37 119 94q0 20 -43 37q-37 19 -37 51q0 62 80 62q38 0 62 -28.5t24 -88.5z" />
    <glyph glyph-name="uni0488" unicode="&#x488;" horiz-adv-x="2025" 
d="M245 547q-73 0 -98 -19.5t-30 -68.5h-76q5 90 55 142t148 52t155.5 -51t63.5 -143h-80q-5 45 -35 66.5t-103 21.5zM1767 547q-73 0 -98.5 -20t-30.5 -68h-75q11 194 209 194q92 0 149.5 -52t63.5 -142h-80q-5 44 -35 66t-103 22zM423 1034q-73 0 -98 -19.5t-30 -68.5h-76
q5 90 55 142.5t148 52.5t155.5 -51t63.5 -144h-80q-5 45 -35 66.5t-103 21.5zM1576 1034q-73 0 -98 -19.5t-30 -68.5h-76q5 90 55.5 142.5t148.5 52.5t155 -51t63 -144h-80q-5 45 -35 66.5t-103 21.5zM423 47q-73 0 -98 -19.5t-30 -68.5h-76q5 90 55 142.5t148 52.5
t155.5 -51t63.5 -144h-80q-5 45 -35 66.5t-103 21.5zM1576 47q-73 0 -98 -19.5t-30 -68.5h-76q5 90 55.5 142.5t148.5 52.5t155 -51t63 -144h-80q-5 45 -35 66.5t-103 21.5zM996 -231q-74 0 -98.5 -20.5t-29.5 -67.5h-75q5 89 55 141.5t148 52.5t155 -51t63 -143h-79
q-5 44 -35 66t-104 22zM996 1319q-74 0 -98.5 -20.5t-29.5 -67.5h-75q11 194 208 194q93 0 149.5 -50.5t63.5 -143.5h-79q-5 44 -35 66t-104 22z" />
    <glyph glyph-name="uni0489" unicode="&#x489;" horiz-adv-x="1958" 
d="M377 442q-152 39 -336 123v97q221 -53 350 -70v-139zM1651 1186l69 -68q-177 -110 -297 -198l-98 98l2 16q149 87 324 152zM492 877l-17 2q-82 140 -151 323l67 70q123 -198 199 -297zM633 45l-2 -16q-155 -89 -324 -152l-69 68q177 110 297 198zM1565 -211
q-101 163 -199 297l98 98l17 -2q93 -164 151 -323zM870 1155q48 178 123 336h97q-52 -220 -70 -350h-139zM1581 662q178 -48 336 -123v-97q-221 53 -350 70v139zM1090 -49q-39 -152 -123 -336h-97q53 221 70 350h139z" />
    <glyph glyph-name="uni048A" unicode="&#x48a;" horiz-adv-x="1430" 
d="M906 1579q-278 0 -279 213q0 40 12 74h82q-8 -45 -8 -62q0 -68 42.5 -103.5t143.5 -35.5q231 0 258 201h94q-17 -137 -110 -212t-235 -75zM412 1462h102l-186 -878q-41 -197 -95 -406l1035 1284h110l-291 -1368h164l-217 -450h-114l208 356h-161l184 864q54 261 102 443
l-1050 -1307h-101z" />
    <glyph glyph-name="uni048B" unicode="&#x48b;" horiz-adv-x="1169" 
d="M710 1243q-145 0 -210.5 58t-65.5 155q0 40 12 74h82q-8 -45 -8 -62q0 -68 42.5 -103.5t144.5 -35.5q231 0 258 201h94q-17 -136 -110.5 -211.5t-238.5 -75.5zM207 218q0 -65 47.5 -106.5t147.5 -41.5t246 97.5t216 434.5l105 485h98l-215 -1007h164l-201 -447h-117
l207 367h-149l28 205h-6q-167 -221 -403 -221q-132 0 -199 62t-67 181q0 60 22 170l150 690h100l-152 -698q-22 -106 -22 -171z" />
    <glyph glyph-name="uni048C" unicode="&#x48c;" horiz-adv-x="1118" 
d="M463 90q204 0 315 92t111 277q0 134 -74.5 198t-224.5 64h-232l-135 -631h240zM995 465q0 -222 -139 -343.5t-391 -121.5h-363l246 1169h-162l21 95h162l43 198h104l-43 -198h328l-19 -95h-329l-76 -358h231q187 0 287 -89.5t100 -256.5z" />
    <glyph glyph-name="uni048D" unicode="&#x48d;" horiz-adv-x="995" 
d="M791 330q0 202 -256 202q-91 0 -271 -30q-24 -120 -24 -195q0 -122 56 -179.5t194 -57.5t219.5 69t81.5 191zM553 618q340 0 340 -280q0 -162 -111.5 -260t-289.5 -98q-351 0 -351 311q0 93 31 248l141 663h-166l17 82h166l61 272h101l-62 -272h244l-19 -82h-241
l-131 -614l56 10q117 20 214 20z" />
    <glyph glyph-name="uni048E" unicode="&#x48e;" horiz-adv-x="1145" 
d="M1036 1096q0 274 -329 274h-211l-146 -676h191q123 0 209 21l-95 196l86 41l99 -207q196 90 196 351zM1145 1102q0 -328 -264 -440l98 -201l-84 -41l-104 211q-110 -29 -256 -29h-201l-129 -602h-103l310 1462h315q202 0 310 -92.5t108 -267.5z" />
    <glyph glyph-name="uni048F" unicode="&#x48f;" horiz-adv-x="1149" 
d="M748 1018q-87 0 -174 -58.5t-161.5 -167.5t-110.5 -237.5t-36 -230.5t61.5 -178t168.5 -76q68 0 127 24l-101 205l86 41l97 -201q108 82 175.5 247t67.5 337q0 295 -200 295zM770 1108q281 0 281 -385q0 -200 -83 -386t-225 -280l103 -209l-84 -41l-100 207
q-78 -30 -164 -30q-230 0 -279 219h-4l-149 -695h-99l336 1579h82l-45 -274h6q175 295 424 295z" />
    <glyph glyph-name="afii10050" unicode="&#x490;" horiz-adv-x="946" 
d="M1014 1462l65 293h105l-86 -387h-602l-291 -1368h-103l310 1462h602z" />
    <glyph glyph-name="afii10098" unicode="&#x491;" horiz-adv-x="698" 
d="M784 1006h-403l-211 -1006h-98l227 1087h408l69 326h96z" />
    <glyph glyph-name="uni0492" unicode="&#x492;" horiz-adv-x="932" 
d="M1120 1462l-20 -94h-604l-129 -602h335l-18 -82h-334l-145 -684h-103l146 684h-146l19 82h143l148 696h708z" />
    <glyph glyph-name="uni0493" unicode="&#x493;" horiz-adv-x="698" 
d="M72 0l106 514h-155l18 80h154l104 493h504l-19 -81h-403l-86 -412h274l-18 -80h-275l-106 -514h-98z" />
    <glyph glyph-name="uni0494" unicode="&#x494;" horiz-adv-x="1167" 
d="M485 705q-62 0 -131 -9l-145 -696h-107l310 1462h708l-20 -94h-604l-123 -582q68 11 129 11q236 0 365.5 -134.5t129.5 -374.5t-130 -520t-552 -280q-134 0 -229 41v104q119 -51 238 -51q350 0 459.5 247t109.5 449t-108.5 314.5t-299.5 112.5z" />
    <glyph glyph-name="uni0495" unicode="&#x495;" horiz-adv-x="918" 
d="M287 -498q-102 0 -178 37v99q88 -48 198 -48t203 79.5t144 222.5t51 307t-75 252t-208 88q-79 0 -143 -17l-109 -522h-98l227 1087h504l-19 -81h-403l-82 -390q57 13 151 13t177.5 -47.5t131.5 -141t48 -262.5t-67.5 -337.5t-184.5 -253.5t-268 -85z" />
    <glyph glyph-name="uni0496" unicode="&#x496;" horiz-adv-x="1591" 
d="M641 760l-424 702h125l414 -704l147 704h103l-152 -706l692 706h140l-717 -725l379 -643h149l-98 -450h-105l80 356h-94l-430 737l-154 -737h-102l158 739l-699 -739h-141z" />
    <glyph glyph-name="uni0497" unicode="&#x497;" horiz-adv-x="1634" 
d="M1335 -20q-334 0 -334 419q0 46 9 115h-166l-109 -514h-96l109 514h-158q-62 -331 -219 -432.5t-287 -101.5q-75 0 -135 16l18 92q56 -18 127 -18q116 0 210 79t149 219.5t55 307.5q0 338 -244 338q-52 0 -112 -10v88q72 12 120 12q334 0 334 -420q0 -50 -4 -82h164
l104 485h95l-103 -485h162q58 308 213.5 405t286.5 97q77 0 135 -17l-19 -92q-57 19 -127 19q-113 0 -206.5 -76t-150 -218.5t-56.5 -310.5q0 -339 243 -339q47 0 146 22l-105 -457h-100l78 347l-13 -2h-14z" />
    <glyph glyph-name="uni0498" unicode="&#x498;" horiz-adv-x="1020" 
d="M987 1164q0 -154 -91 -258t-267 -146v-4q130 -22 199 -110t69 -223q1 -135 -67 -237q-116 -177 -385 -202q81 -227 -17 -337q-54 -61 -159 -61q-50 0 -82 15l14 69q27 -10 68 -10q118 0 118 160q0 88 -25 160h-4q-211 0 -389 79v117q183 -106 395 -106t321 94
q110 94 110 260q0 287 -373 287h-182l18 96h178q131 0 237 45q210 89 210 307q0 114 -67 176t-191 62q-168 0 -340 -119l-54 76q190 129 406 129q165 0 257 -82t93 -237z" />
    <glyph glyph-name="uni0499" unicode="&#x499;" horiz-adv-x="799" 
d="M492 569q190 -40 190 -244q0 -99 -51 -179q-86 -134 -277 -160q38 -106 38 -192t-54 -147t-159 -61q-50 0 -82 15l14 69q27 -10 68 -10q118 0 118 160q0 88 -25 160h-8q-171 0 -282 65v109q139 -86 286 -86q148 0 230 68t82 181q0 111 -64 159t-207 48h-84l21 92h90
q146 0 226 60t81 170q0 78 -52 125t-156 47t-232 -80l-41 80q83 50 153 68t156 18q130 0 202 -65t72 -179t-66 -189q-66 -74 -187 -98v-4z" />
    <glyph glyph-name="uni049A" unicode="&#x49a;" horiz-adv-x="1192" 
d="M967 94h161l-98 -450h-104l80 356h-95l-555 729l-151 -729h-103l310 1462h102l-158 -727l787 727h143l-809 -733z" />
    <glyph glyph-name="uni049B" unicode="&#x49b;" horiz-adv-x="969" 
d="M858 1087h146l-607 -534l344 -473h123l-102 -445h-100l81 365h-69l-391 549l-113 -549h-98l225 1087h98l-110 -524z" />
    <glyph glyph-name="uni049C" unicode="&#x49c;" horiz-adv-x="1106" 
d="M504 770l-168 -135l-131 -635h-103l310 1462h102l-156 -712l172 147l54 248h86l-33 -156l532 473h138l-699 -610l371 -852h-111l-297 684l-67 -315h-86z" />
    <glyph glyph-name="uni049D" unicode="&#x49d;" horiz-adv-x="854" 
d="M514 1014h86l-43 -203l301 276h146l-478 -421l-49 -226l324 -440h-127l-223 313l-48 -223h-86l68 316l-102 143l-113 -549h-98l225 1087h98l-110 -524l166 152z" />
    <glyph glyph-name="uni049E" unicode="&#x49e;" horiz-adv-x="1079" 
d="M979 0h-111l-342 788l-190 -153l-131 -635h-103l246 1165h-164l19 82h164l45 215h102l-47 -215h223l-18 -82h-223l-93 -426l133 121l680 602h138l-699 -610z" />
    <glyph glyph-name="uni049F" unicode="&#x49f;" horiz-adv-x="883" 
d="M270 477l609 610h125l-474 -469l297 -618h-106l-264 559l-205 -188l-80 -371h-96l270 1282h-141l16 78h141l44 196h96l-43 -196h377l-17 -78h-377l-106 -506l-70 -299h4z" />
    <glyph glyph-name="uni04A0" unicode="&#x4a0;" horiz-adv-x="1237" 
d="M502 735l786 727h144l-809 -733l563 -729h-129l-555 729l-152 -729h-102l289 1368h-344l20 94h446z" />
    <glyph glyph-name="uni04A1" unicode="&#x4a1;" horiz-adv-x="1071" 
d="M82 1006l20 81h433l-111 -524l573 524h146l-606 -534l403 -553h-127l-391 549l-113 -549h-98l209 1006h-338z" />
    <glyph glyph-name="uni04A2" unicode="&#x4a2;" horiz-adv-x="1423" 
d="M963 0l151 719h-760l-149 -719h-103l310 1462h102l-139 -649h760l137 649h100l-289 -1368h168l-98 -450h-104l79 356h-165z" />
    <glyph glyph-name="uni04A3" unicode="&#x4a3;" horiz-adv-x="1235" 
d="M403 1087l-100 -479h625l104 479h101l-215 -1003h178l-103 -449h-100l84 365h-178l110 516h-624l-111 -516h-100l233 1087h96z" />
    <glyph glyph-name="uni04A4" unicode="&#x4a4;" horiz-adv-x="1532" 
d="M1720 1368h-368l-289 -1368h-100l151 719h-760l-149 -719h-103l310 1462h102l-139 -649h760l137 649h467z" />
    <glyph glyph-name="uni04A5" unicode="&#x4a5;" horiz-adv-x="1386" 
d="M901 0h-102l110 516h-624l-111 -516h-100l233 1087h96l-100 -479h625l104 479h434l-20 -81h-330z" />
    <glyph glyph-name="uni04A6" unicode="&#x4a6;" horiz-adv-x="2001" 
d="M1358 797q236 0 365.5 -134.5t129.5 -374.5t-130 -520t-552 -280q-134 0 -229 41v104q119 -51 238 -51q350 0 459.5 247t109.5 449t-108.5 314.5t-299.5 112.5q-62 0 -131 -9l-147 -696h-100l288 1366h-757l-289 -1366h-103l310 1462h960l-143 -676q68 11 129 11z" />
    <glyph glyph-name="uni04A7" unicode="&#x4a7;" horiz-adv-x="1626" 
d="M1186 629q90 0 173 -47.5t131 -141t48 -262.5t-67.5 -337.5t-184.5 -253.5t-268 -85q-104 0 -178 37v99q88 -48 198 -48t203 79.5t144 222.5t51 307t-75 252t-208 88q-63 0 -145 -17l-109 -522h-104l213 995h-625l-213 -995h-100l231 1087h827l-100 -471q68 13 158 13z
" />
    <glyph glyph-name="uni04A8" unicode="&#x4a8;" horiz-adv-x="1464" 
d="M1280 860q0 266 -158 266q-83 0 -158 -85.5t-117 -233t-42 -303.5t24.5 -242.5t75.5 -150.5q115 70 200 188.5t130 266t45 294.5zM700 459q0 232 56.5 404.5t154 265t225.5 92.5q253 0 253 -367q0 -157 -52 -320.5t-144 -289.5t-208 -197q63 -37 152 -37t141 21v-92
q-60 -21 -137 -21q-165 0 -269 84q-76 -22 -180 -22q-250 0 -385 152t-135 419t90 481t253.5 332.5t377.5 118.5q125 0 246 -47l-43 -95q-105 48 -217 48q-172 0 -307 -100.5t-215.5 -294.5t-80.5 -430t111 -364t318 -128q41 0 94 8q-99 147 -99 379z" />
    <glyph glyph-name="uni04A9" unicode="&#x4a9;" horiz-adv-x="1212" 
d="M872 -55q-104 0 -196 63q-76 -28 -174 -28q-195 0 -297.5 114t-102.5 324t62.5 364.5t180 238t276.5 83.5q93 0 167 -21l-18 -92q-68 27 -172 27t-195.5 -69t-144.5 -209.5t-53 -313.5t76.5 -264.5t222.5 -91.5q54 0 98 10q-74 107 -74 270t44 283.5t123 185t183 64.5
t164 -63.5t60 -211.5t-87 -305t-235 -248q55 -24 120 -24t124 16v-86q-48 -16 -152 -16zM999 618q0 88 -35 130.5t-92 42.5q-108 0 -174.5 -112.5t-66.5 -294.5t74 -275q121 73 207.5 223.5t86.5 285.5z" />
    <glyph glyph-name="uni04AA" unicode="&#x4aa;" horiz-adv-x="1169" 
d="M961 1389q-197 -1 -351 -105t-246 -304q-90 -200 -90 -433t110 -354t318 -121q140 0 304 51v-94q-156 -49 -316 -49q-24 0 -46 1q36 -102 36 -188q0 -85 -54 -146t-159 -61q-50 0 -82 15l14 69q27 -10 68 -10q118 0 118 160q0 95 -29 172q-156 30 -252 133
q-134 145 -134 411t104 487q104 222 285 341q179 119 379 119t330 -68l-45 -90q-117 64 -262 64z" />
    <glyph glyph-name="uni04AB" unicode="&#x4ab;" horiz-adv-x="887" 
d="M488 70q136 0 262 59v-92q-108 -53 -251 -57q79 -224 -19 -333q-54 -61 -158 -61q-50 0 -82 15l14 69q27 -10 68 -10q118 0 118 160q0 90 -26 164q-130 17 -221 117q-91 101 -91 295t74 362t198 258q124 88 274 88t257 -43l-28 -90q-107 47 -227 47t-224 -77t-162 -222
q-59 -145 -59 -311q-1 -166 73 -252t210 -86z" />
    <glyph glyph-name="uni04AC" unicode="&#x4ac;" horiz-adv-x="985" 
d="M336 0l289 1368h-432l20 94h973l-19 -94h-440l-270 -1274h168l-99 -450h-104l80 356h-166z" />
    <glyph glyph-name="uni04AD" unicode="&#x4ad;" horiz-adv-x="1784" 
d="M750 1104q106 0 163 -67t60 -195h6q77 129 181 195.5t222 66.5t183 -61.5t65 -176.5q0 -57 -22 -176l-82 -371q-23 -103 -23 -159q0 -97 84 -97q31 0 64 7l-101 -435h-100l80 351q-61 7 -95 51.5t-34 94.5t7 94.5t97 453.5q25 120 25 186t-43 109t-119 43
q-157 0 -277.5 -137.5t-168.5 -362.5l-109 -518h-102l147 674q25 125 25 162q0 182 -154 182q-106 0 -246.5 -101t-212.5 -442l-100 -475h-98l231 1087h80l-33 -210h6q161 227 394 227z" />
    <glyph glyph-name="uni04AE" unicode="&#x4ae;" horiz-adv-x="965" 
d="M494 645l544 817h117l-631 -932l-108 -530h-105l119 545l-237 917h100z" />
    <glyph glyph-name="uni04AF" unicode="&#x4af;" horiz-adv-x="895" 
d="M360 102q32 67 63 127.5t472 857.5h102l-612 -1103l-102 -476h-93l101 478l-178 1101h100l109 -735q18 -118 32 -250h6z" />
    <glyph glyph-name="uni04B0" unicode="&#x4b0;" horiz-adv-x="965" 
d="M494 645l544 817h117l-631 -932l-10 -45h289l-19 -82h-286l-82 -403h-105l88 403h-268l19 82h266l14 60l-237 917h100z" />
    <glyph glyph-name="uni04B1" unicode="&#x4b1;" horiz-adv-x="895" 
d="M45 0h244l-176 1087h100l109 -735q18 -118 32 -250h6q32 67 63 127.5t472 857.5h102l-604 -1087h244l-19 -82h-247l-88 -410h-93l86 410h-249z" />
    <glyph glyph-name="uni04B2" unicode="&#x4b2;" horiz-adv-x="1014" 
d="M989 94l-98 -450h-105l80 356h-94l-254 678l-526 -678h-127l608 766l-272 696h106l240 -626l483 626h119l-555 -719l248 -649h147z" />
    <glyph glyph-name="uni04B3" unicode="&#x4b3;" horiz-adv-x="942" 
d="M870 80l-102 -445h-100l82 365h-84l-224 479l-393 -479h-121l471 555l-245 528h100l207 -462l373 462h120l-448 -534l221 -469h143z" />
    <glyph glyph-name="uni04B4" unicode="&#x4b4;" horiz-adv-x="1659" 
d="M625 1368h-432l20 94h973l-19 -94h-440l-268 -1274h758l290 1368h101l-289 -1368h168l-98 -450h-105l80 356h-1028z" />
    <glyph glyph-name="uni04B5" unicode="&#x4b5;" horiz-adv-x="1346" 
d="M958 211q-162 -227 -413 -227q-125 0 -192.5 62t-67.5 181q0 60 22 170l131 609h-354l20 81h783l-21 -81h-327l-133 -617q-23 -99 -23 -165t47.5 -110t147.5 -44t244.5 96.5t217.5 435.5l105 485h98l-164 -765q-22 -104 -22 -170q0 -89 84 -89q23 0 63 7l-100 -435h-100
l79 351q-65 12 -93 53t-28 116l3 56h-7z" />
    <glyph glyph-name="uni04B6" unicode="&#x4b6;" horiz-adv-x="1249" 
d="M534 530q-328 0 -329 271q0 64 22 164l105 497h102l-102 -483q-25 -116 -25 -172q0 -92 57 -139t162 -47q195 0 412 90l160 751h100l-289 -1368h168l-98 -450h-105l80 356h-166l132 621q-218 -91 -386 -91z" />
    <glyph glyph-name="uni04B7" unicode="&#x4b7;" horiz-adv-x="1124" 
d="M422 406q-128 0 -197 60t-69 177q0 74 22 176l58 268h100q-69 -318 -75.5 -362t-6.5 -72q0 -74 44.5 -117.5t141.5 -43.5q163 0 290 135.5t175 369.5l19 90h98l-215 -1003h178l-102 -449h-101l84 365h-178l84 399q24 122 59 228h-8q-161 -221 -401 -221z" />
    <glyph glyph-name="uni04B8" unicode="&#x4b8;" horiz-adv-x="1192" 
d="M512 530q-146 0 -226.5 69.5t-80.5 201.5q0 64 22 164l105 497h102l-102 -483q-25 -116 -25 -172q0 -92 57 -139t162 -47h13l79 376h87l-80 -370q144 16 313 84l160 751h100l-309 -1462h-101l132 621q-153 -66 -314 -86l-67 -314h-86l65 309h-6z" />
    <glyph glyph-name="uni04B9" unicode="&#x4b9;" horiz-adv-x="1098" 
d="M254 653q0 -74 43.5 -117.5t138.5 -43.5l66 307h86l-64 -297q137 32 238.5 164.5t142.5 330.5l19 90h98l-234 -1087h-102q50 229 75 345.5t70 281.5h-8q-131 -182 -317 -215l-55 -267h-86l53 261q-128 0 -195 61.5t-67 175.5q0 74 22 176l58 268h100q-69 -318 -75.5 -362
t-6.5 -72z" />
    <glyph glyph-name="uni04BA" unicode="&#x4ba;" horiz-adv-x="1274" 
d="M991 655q0 187 -219 187q-189 0 -412 -90l-159 -752h-101l310 1462h100l-131 -620q212 90 383 90q332 0 332 -270q0 -62 -23 -164l-104 -498h-103l103 483q24 111 24 172z" />
    <glyph glyph-name="uni04BB" unicode="&#x4bb;" horiz-adv-x="1149" 
d="M672 682q128 0 197 -62t69 -176q0 -42 -8 -93t-72 -351h-100q69 321 75.5 364t6.5 70q0 74 -45 118t-142 44q-166 0 -292 -139t-173 -367l-18 -90h-98l233 1087h103q-49 -226 -74 -342t-72 -284h8q155 221 402 221z" />
    <glyph glyph-name="uni04BC" unicode="&#x4bc;" horiz-adv-x="1552" 
d="M1124 1389q-231 0 -407.5 -158.5t-251.5 -442.5h131q416 0 620.5 89t204.5 272q0 117 -77 178.5t-220 61.5zM336 555q0 85 8 141l-26 -1q-88 0 -137.5 47.5t-49.5 122.5t31 126h100q-31 -54 -31 -112q0 -91 101 -91h33q69 315 275.5 505t483.5 190q199 0 303.5 -85
t104.5 -241q0 -234 -231.5 -347.5t-722.5 -113.5h-129q-9 -56 -9 -127q0 -245 106.5 -370t315.5 -125t436 88v-96q-221 -86 -456 -86t-370.5 151t-135.5 424z" />
    <glyph glyph-name="uni04BD" unicode="&#x4bd;" horiz-adv-x="1143" 
d="M848 1104q114 0 182 -61t68 -166q0 -181 -163.5 -276t-485.5 -95h-33q-6 -44 -6 -98q0 -165 74 -251.5t210 -86.5t279 73v-94q-140 -69 -306 -69t-263 109.5t-97 305.5q0 58 6 111l-26 -1q-88 0 -137.5 47.5t-49.5 122.5t31 126h96q-30 -55 -30 -113q0 -94 104 -94h29
q53 230 195 370t323 140zM836 1018q-131 0 -243.5 -115.5t-162.5 -308.5h49q516 0 516 270q0 70 -44.5 112t-114.5 42z" />
    <glyph glyph-name="uni04BE" unicode="&#x4be;" horiz-adv-x="1552" 
d="M1124 1389q-231 0 -407.5 -158.5t-251.5 -442.5h131q416 0 620.5 89t204.5 272q0 117 -77 178.5t-220 61.5zM862 74q209 0 436 88v-96q-206 -82 -417 -86l-72 -336h-104l75 340q-212 21 -328 170.5t-116 400.5q0 85 8 141l-26 -1q-88 0 -137.5 47.5t-49.5 122.5t31 126
h100q-31 -54 -31 -112q0 -91 101 -91h33q69 315 275.5 505t483.5 190q199 0 303.5 -85t104.5 -241q0 -234 -231.5 -347.5t-722.5 -113.5h-129q-9 -56 -9 -127q0 -245 106.5 -370t315.5 -125z" />
    <glyph glyph-name="uni04BF" unicode="&#x4bf;" horiz-adv-x="1143" 
d="M836 1018q-131 0 -243.5 -115.5t-162.5 -308.5h49q516 0 516 270q0 70 -44.5 112t-114.5 42zM848 1104q114 0 182 -61t68 -166q0 -181 -163.5 -276t-485.5 -95h-33q-6 -44 -6 -98q0 -165 74 -251.5t210 -86.5t279 73v-94q-131 -65 -287 -69l-63 -345h-101l68 353
q-133 23 -208 127.5t-75 279.5q0 58 6 111l-26 -1q-88 0 -137.5 47.5t-49.5 122.5t31 126h96q-30 -55 -30 -113q0 -94 104 -94h29q53 230 195 370t323 140z" />
    <glyph glyph-name="uni04C0" unicode="&#x4c0;" horiz-adv-x="504" 
d="M102 0l310 1462h98l-309 -1462h-99z" />
    <glyph glyph-name="uni04C1" unicode="&#x4c1;" horiz-adv-x="1491" 
d="M641 760l-424 702h125l414 -704l147 704h103l-152 -706l692 706h140l-717 -725l434 -737h-123l-430 737l-154 -737h-102l158 739l-699 -739h-141zM996 1579q-144 0 -210 58t-66 155q0 38 13 74h82q-8 -45 -8 -62q1 -68 43 -104t143 -35q231 0 258 201h94
q-17 -137 -111 -212t-238 -75z" />
    <glyph glyph-name="uni04C2" unicode="&#x4c2;" horiz-adv-x="1581" 
d="M1524 1104q77 0 135 -17l-19 -92q-57 19 -127 19q-113 0 -207 -76t-150 -218t-56 -311q0 -339 243 -339q53 0 113 10v-88q-72 -12 -121 -12q-334 0 -334 419q0 46 9 115h-166l-109 -514h-96l109 514h-158q-62 -332 -273 -468q-103 -66 -233 -66q-75 0 -135 16l18 92
q56 -18 127 -18q116 0 210 79t149 219t55 308q0 338 -244 338q-52 0 -112 -10v88q72 12 120 12q334 0 334 -420q0 -50 -4 -82h164l104 485h95l-103 -485h162q58 308 267 438q102 64 233 64zM970 1241q-144 0 -210 58t-66 155q0 38 13 74h82q-8 -45 -8 -62q1 -68 43 -104
t143 -35q231 0 258 201h94q-17 -137 -111 -212t-238 -75z" />
    <glyph glyph-name="uni04C3" unicode="&#x4c3;" horiz-adv-x="1204" 
d="M580 756q228 0 352.5 -127.5t124.5 -362.5t-128.5 -506.5t-553.5 -271.5q-135 0 -230 41v104q119 -51 238 -51q354 0 461.5 238t107.5 436t-104.5 303t-302.5 105q-97 0 -205 -19l-135 -645h-103l310 1462h102l-158 -727l787 727h143l-788 -710q40 4 82 4z" />
    <glyph glyph-name="uni04C4" unicode="&#x4c4;" horiz-adv-x="942" 
d="M801 182q0 -196 -67.5 -363.5t-183.5 -252t-269 -84.5q-101 0 -179 37v98q86 -47 198 -47t204.5 80t143 222t50.5 308t-78.5 253t-228.5 87q-61 0 -117 -10l-104 -510h-98l225 1087h98l-110 -524l573 524h146l-555 -489q173 -5 262.5 -112.5t89.5 -303.5z" />
    <glyph glyph-name="uni04C5" unicode="&#x4c5;" horiz-adv-x="1325" 
d="M28 74q68 0 122.5 44t127 190t363.5 1154h633l-291 -1368h164l-217 -450h-115l209 356h-160l289 1368h-434l-40 -137q-257 -881 -363 -1067.5t-274 -186.5q-78 0 -126 17v96q44 -16 112 -16z" />
    <glyph glyph-name="uni04C6" unicode="&#x4c6;" horiz-adv-x="1059" 
d="M770 1012q-92 0 -152 -39.5t-112 -134t-130 -328.5t-133.5 -332.5t-121.5 -143t-162 -44.5q-37 0 -61 8v90q29 -8 59 -8q74 0 122 38t94.5 131t126.5 327t141.5 333.5t142.5 143t181 43.5t191 -17l-215 -999h164l-200 -447h-117l207 367h-166l215 1006q-38 6 -74 6z" />
    <glyph glyph-name="uni04C7" unicode="&#x4c7;" horiz-adv-x="1366" 
d="M420 -508q-140 0 -254 45v105q44 -20 122 -37t142 -17q234 0 366.5 130.5t194.5 418.5l123 582h-760l-149 -719h-103l310 1462h102l-139 -649h760l137 649h100l-280 -1329q-72 -339 -231 -490t-441 -151z" />
    <glyph glyph-name="uni04C8" unicode="&#x4c8;" horiz-adv-x="1208" 
d="M433 -498q-115 0 -191 37v99q88 -48 186 -48q146 0 234.5 93.5t134.5 306.5l112 526h-624l-111 -516h-100l233 1087h96l-100 -479h625l104 479h101l-240 -1132q-43 -169 -103.5 -263t-151 -142t-205.5 -48z" />
    <glyph glyph-name="uni04C9" unicode="&#x4c9;" horiz-adv-x="1423" 
d="M1114 719h-760l-149 -719h-103l310 1462h102l-139 -649h760l137 649h100l-289 -1368h164l-217 -450h-115l209 356h-161z" />
    <glyph glyph-name="uni04CA" unicode="&#x4ca;" horiz-adv-x="1235" 
d="M1075 84l-201 -451h-116l207 367h-166l110 516h-624l-111 -516h-100l233 1087h96l-100 -479h625l104 479h101l-222 -1003h164z" />
    <glyph glyph-name="uni04CB" unicode="&#x4cb;" horiz-adv-x="1192" 
d="M534 530q-328 0 -329 271q0 64 22 164l105 497h102l-102 -483q-25 -116 -25 -172q0 -92 57 -139t162 -47q195 0 412 90l160 751h100l-309 -1462h-166l-72 -356h-104l94 450h168l111 527q-218 -91 -386 -91z" />
    <glyph glyph-name="uni04CC" unicode="&#x4cc;" horiz-adv-x="1098" 
d="M254 653q0 -74 44.5 -117.5t141.5 -43.5q163 0 290 135.5t175 369.5l19 90h98l-234 -1087h-139l-74 -367h-98l92 451h136l49 229q26 124 77 314h-8q-161 -221 -401 -221q-128 0 -197 60t-69 177q0 74 22 176l58 268h100q-69 -318 -75.5 -362t-6.5 -72z" />
    <glyph glyph-name="uni04CD" unicode="&#x4cd;" horiz-adv-x="1706" 
d="M772 205l733 1257h150l-283 -1368h164l-217 -450h-115l209 356h-160l191 901q79 369 100 447h-6l-780 -1348h-51l-222 1348h-6q-20 -154 -78 -426l-196 -922h-96l309 1462h143l205 -1257h6z" />
    <glyph glyph-name="uni04CE" unicode="&#x4ce;" horiz-adv-x="1368" 
d="M1141 930q-17 -32 -39 -70t-531 -860h-67l-146 723q-28 135 -30 201l-193 -924h-90l231 1087h101l153 -798q27 -158 27 -170q26 55 62.5 117t529.5 851h117l-217 -1007h163l-200 -447h-117l207 367h-158z" />
    <glyph glyph-name="uni04CF" unicode="&#x4cf;" horiz-adv-x="504" 
d="M102 0l310 1462h98l-309 -1462h-99z" />
    <glyph glyph-name="uni04D0" unicode="&#x4d0;" horiz-adv-x="1059" 
d="M793 612l-39 291q-31 242 -39 402q-60 -125 -371 -693h449zM805 520h-512l-287 -520h-117l822 1468h67l201 -1468h-105zM761 1579q-145 0 -211 58t-65 155q0 38 13 74h82q-8 -45 -8 -62q0 -68 42 -104t144 -35q231 0 258 201h94q-16 -137 -110 -212t-239 -75z" />
    <glyph glyph-name="uni04D1" unicode="&#x4d1;" horiz-adv-x="1133" 
d="M205 365q0 -295 201 -295q90 0 178 62t158 166t108 230q37 126 37 209t-26 145q-56 136 -204 136q-124 0 -224 -82t-164 -246t-64 -325zM102 354q0 197 75 376q75 178 201 276t277 98q232 0 279 -219h6l59 202h80l-229 -1087h-82l45 274h-6q-174 -294 -424 -294
q-281 0 -281 374zM704 1241q-144 0 -210 58t-66 155q0 38 13 74h82q-8 -45 -8 -62q1 -68 43 -104t143 -35q231 0 258 201h94q-17 -137 -111 -212t-238 -75z" />
    <glyph glyph-name="uni04D2" unicode="&#x4d2;" horiz-adv-x="1059" 
d="M793 612l-39 291q-31 242 -39 402q-60 -125 -371 -693h449zM805 520h-512l-287 -520h-117l822 1468h67l201 -1468h-105zM590 1641q-55 0 -55 56q0 114 77 114q54 0 54 -56t-21 -85t-55 -29zM934 1641q-55 0 -55 56q0 114 77 114q54 0 54 -56t-21 -85t-55 -29z" />
    <glyph glyph-name="uni04D3" unicode="&#x4d3;" horiz-adv-x="1133" 
d="M205 365q0 -295 201 -295q90 0 178 62t158 166t108 230q37 126 37 209t-26 145q-56 136 -204 136q-124 0 -224 -82t-164 -246t-64 -325zM102 354q0 197 75 376q75 178 201 276t277 98q232 0 279 -219h6l59 202h80l-229 -1087h-82l45 274h-6q-174 -294 -424 -294
q-281 0 -281 374zM532 1303q-55 0 -55 56q0 114 77 114q54 0 54 -56t-21 -85t-55 -29zM876 1303q-55 0 -55 56q0 114 77 114q54 0 54 -56t-21 -85t-55 -29z" />
    <glyph glyph-name="uni04D4" unicode="&#x4d4;" horiz-adv-x="1640" 
d="M408 627h401l156 741h-88zM1403 0h-727l110 522h-444l-328 -522h-131l946 1462h883l-20 -94h-625l-117 -553h590l-20 -94h-588l-135 -627h626z" />
    <glyph glyph-name="uni04D5" unicode="&#x4d5;" horiz-adv-x="1632" 
d="M1317 1018q-119 0 -232 -116t-172 -308h48q263 0 383 67t120 203q0 70 -38 112t-109 42zM831 764q1 254 -205 254q-108 0 -208 -86t-156 -240t-57 -340q0 -282 164 -282q140 0 271 157q130 157 171 372q20 104 20 165zM342 -20q-116 0 -178 94t-62 285t70 369t193 278
q122 98 274 98q106 0 166 -56t74 -157h10l59 192h66l-35 -186q139 207 350 207q112 0 175 -62t63 -172q-1 -180 -159 -272t-470 -92h-39q-8 -51 -8 -96q0 -340 287 -340q109 0 264 73v-94q-149 -69 -280 -69q-130 0 -218 60t-117 165l-39 -205h-77l41 254h-9
q-94 -142 -189 -208q-96 -66 -212 -66z" />
    <glyph glyph-name="uni04D6" unicode="&#x4d6;" horiz-adv-x="1067" 
d="M829 0h-727l310 1462h727l-21 -94h-624l-117 -553h590l-21 -94h-588l-135 -627h627zM783 1579q-145 0 -211 58t-65 155q0 38 13 74h82q-8 -45 -8 -62q0 -68 42 -104t144 -35q231 0 258 201h94q-16 -137 -110 -212t-239 -75z" />
    <glyph glyph-name="uni04D7" unicode="&#x4d7;" horiz-adv-x="928" 
d="M631 1018q-131 0 -243 -116t-163 -308h49q517 0 517 270q1 66 -43 110t-117 44zM462 -20q-166 0 -263 110t-97 298t71 354t195 264t257 98q132 0 200 -61t68 -166q1 -181 -163 -276t-486 -95h-33q-6 -44 -6 -98q0 -166 74 -252q73 -86 209 -86t280 73v-94
q-140 -69 -306 -69zM644 1241q-144 0 -210 58t-66 155q0 38 13 74h82q-8 -45 -8 -62q1 -68 43 -104t143 -35q231 0 258 201h94q-17 -137 -111 -212t-238 -75z" />
    <glyph glyph-name="uni04D8" unicode="&#x4d8;" horiz-adv-x="1356" 
d="M502 74q230 0 407 157t252 443h-131q-414 0 -619.5 -88.5t-205.5 -272.5q0 -118 77 -178.5t220 -60.5zM780 1483q237 0 373.5 -151.5t136.5 -410.5t-107 -480.5t-285 -341t-386 -119.5t-313 85t-105 240q0 236 231.5 348.5t723.5 112.5h129q8 50 8 127q0 244 -107 370
t-315 126t-436 -89v97q215 86 452 86z" />
    <glyph glyph-name="uni04D9" unicode="&#x4d9;" horiz-adv-x="928" 
d="M324 66q132 0 244 116t161 307h-49q-516 0 -516 -270q0 -69 43.5 -111t116.5 -42zM494 1104q164 0 261 -109.5t97 -302.5t-75 -359.5t-197.5 -259.5t-252.5 -93t-198 61t-68 166q0 181 163.5 276t486.5 95h32q7 37 7 98q0 165 -74 251.5t-209 86.5t-281 -74v94
q144 70 308 70z" />
    </font>
</defs>
</svg>
